G04 #@! TF.GenerationSoftware,KiCad,Pcbnew,(5.1.5)-3*
G04 #@! TF.CreationDate,2020-05-07T09:23:51-07:00*
G04 #@! TF.ProjectId,Pcb,5063622e-6b69-4636-9164-5f7063625858,rev?*
G04 #@! TF.SameCoordinates,Original*
G04 #@! TF.FileFunction,Soldermask,Bot*
G04 #@! TF.FilePolarity,Negative*
%FSLAX46Y46*%
G04 Gerber Fmt 4.6, Leading zero omitted, Abs format (unit mm)*
G04 Created by KiCad (PCBNEW (5.1.5)-3) date 2020-05-07 09:23:51*
%MOMM*%
%LPD*%
G04 APERTURE LIST*
%ADD10C,0.100000*%
G04 APERTURE END LIST*
D10*
G36*
X120887086Y-77958435D02*
G01*
X121035003Y-78019704D01*
X121124163Y-78079279D01*
X121157184Y-78101343D01*
X121168134Y-78108660D01*
X121281340Y-78221866D01*
X121281342Y-78221869D01*
X121281343Y-78221870D01*
X121310721Y-78265837D01*
X121370296Y-78354997D01*
X121431565Y-78502914D01*
X121462800Y-78659946D01*
X121462800Y-78820054D01*
X121431565Y-78977086D01*
X121370296Y-79125003D01*
X121281340Y-79258134D01*
X121168134Y-79371340D01*
X121035003Y-79460296D01*
X120887086Y-79521565D01*
X120730054Y-79552800D01*
X120569946Y-79552800D01*
X120412914Y-79521565D01*
X120264997Y-79460296D01*
X120131866Y-79371340D01*
X120018660Y-79258134D01*
X119929704Y-79125003D01*
X119868435Y-78977086D01*
X119837200Y-78820054D01*
X119837200Y-78659946D01*
X119868435Y-78502914D01*
X119929704Y-78354997D01*
X119989279Y-78265837D01*
X120018657Y-78221870D01*
X120018658Y-78221869D01*
X120018660Y-78221866D01*
X120131866Y-78108660D01*
X120142817Y-78101343D01*
X120175837Y-78079279D01*
X120264997Y-78019704D01*
X120412914Y-77958435D01*
X120569946Y-77927200D01*
X120730054Y-77927200D01*
X120887086Y-77958435D01*
G37*
G36*
X114537086Y-76688435D02*
G01*
X114685003Y-76749704D01*
X114774163Y-76809279D01*
X114807184Y-76831343D01*
X114818134Y-76838660D01*
X114931340Y-76951866D01*
X114931342Y-76951869D01*
X114931343Y-76951870D01*
X114960721Y-76995837D01*
X115020296Y-77084997D01*
X115081565Y-77232914D01*
X115112800Y-77389946D01*
X115112800Y-77550054D01*
X115081565Y-77707086D01*
X115020296Y-77855003D01*
X114972055Y-77927200D01*
X114951185Y-77958435D01*
X114931340Y-77988134D01*
X114818134Y-78101340D01*
X114818131Y-78101342D01*
X114818130Y-78101343D01*
X114807179Y-78108660D01*
X114685003Y-78190296D01*
X114537086Y-78251565D01*
X114380054Y-78282800D01*
X114219946Y-78282800D01*
X114062914Y-78251565D01*
X113914997Y-78190296D01*
X113792821Y-78108660D01*
X113781870Y-78101343D01*
X113781869Y-78101342D01*
X113781866Y-78101340D01*
X113668660Y-77988134D01*
X113648816Y-77958435D01*
X113627945Y-77927200D01*
X113579704Y-77855003D01*
X113518435Y-77707086D01*
X113487200Y-77550054D01*
X113487200Y-77389946D01*
X113518435Y-77232914D01*
X113579704Y-77084997D01*
X113639279Y-76995837D01*
X113668657Y-76951870D01*
X113668658Y-76951869D01*
X113668660Y-76951866D01*
X113781866Y-76838660D01*
X113792817Y-76831343D01*
X113825837Y-76809279D01*
X113914997Y-76749704D01*
X114062914Y-76688435D01*
X114219946Y-76657200D01*
X114380054Y-76657200D01*
X114537086Y-76688435D01*
G37*
G36*
X111997086Y-76688435D02*
G01*
X112145003Y-76749704D01*
X112234163Y-76809279D01*
X112267184Y-76831343D01*
X112278134Y-76838660D01*
X112391340Y-76951866D01*
X112391342Y-76951869D01*
X112391343Y-76951870D01*
X112420721Y-76995837D01*
X112480296Y-77084997D01*
X112541565Y-77232914D01*
X112572800Y-77389946D01*
X112572800Y-77550054D01*
X112541565Y-77707086D01*
X112480296Y-77855003D01*
X112432055Y-77927200D01*
X112411185Y-77958435D01*
X112391340Y-77988134D01*
X112278134Y-78101340D01*
X112278131Y-78101342D01*
X112278130Y-78101343D01*
X112267179Y-78108660D01*
X112145003Y-78190296D01*
X111997086Y-78251565D01*
X111840054Y-78282800D01*
X111679946Y-78282800D01*
X111522914Y-78251565D01*
X111374997Y-78190296D01*
X111252821Y-78108660D01*
X111241870Y-78101343D01*
X111241869Y-78101342D01*
X111241866Y-78101340D01*
X111128660Y-77988134D01*
X111108816Y-77958435D01*
X111087945Y-77927200D01*
X111039704Y-77855003D01*
X110978435Y-77707086D01*
X110947200Y-77550054D01*
X110947200Y-77389946D01*
X110978435Y-77232914D01*
X111039704Y-77084997D01*
X111099279Y-76995837D01*
X111128657Y-76951870D01*
X111128658Y-76951869D01*
X111128660Y-76951866D01*
X111241866Y-76838660D01*
X111252817Y-76831343D01*
X111285837Y-76809279D01*
X111374997Y-76749704D01*
X111522914Y-76688435D01*
X111679946Y-76657200D01*
X111840054Y-76657200D01*
X111997086Y-76688435D01*
G37*
G36*
X109457086Y-76688435D02*
G01*
X109605003Y-76749704D01*
X109694163Y-76809279D01*
X109727184Y-76831343D01*
X109738134Y-76838660D01*
X109851340Y-76951866D01*
X109851342Y-76951869D01*
X109851343Y-76951870D01*
X109880721Y-76995837D01*
X109940296Y-77084997D01*
X110001565Y-77232914D01*
X110032800Y-77389946D01*
X110032800Y-77550054D01*
X110001565Y-77707086D01*
X109940296Y-77855003D01*
X109892055Y-77927200D01*
X109871185Y-77958435D01*
X109851340Y-77988134D01*
X109738134Y-78101340D01*
X109738131Y-78101342D01*
X109738130Y-78101343D01*
X109727179Y-78108660D01*
X109605003Y-78190296D01*
X109457086Y-78251565D01*
X109300054Y-78282800D01*
X109139946Y-78282800D01*
X108982914Y-78251565D01*
X108834997Y-78190296D01*
X108712821Y-78108660D01*
X108701870Y-78101343D01*
X108701869Y-78101342D01*
X108701866Y-78101340D01*
X108588660Y-77988134D01*
X108568816Y-77958435D01*
X108547945Y-77927200D01*
X108499704Y-77855003D01*
X108438435Y-77707086D01*
X108407200Y-77550054D01*
X108407200Y-77389946D01*
X108438435Y-77232914D01*
X108499704Y-77084997D01*
X108559279Y-76995837D01*
X108588657Y-76951870D01*
X108588658Y-76951869D01*
X108588660Y-76951866D01*
X108701866Y-76838660D01*
X108712817Y-76831343D01*
X108745837Y-76809279D01*
X108834997Y-76749704D01*
X108982914Y-76688435D01*
X109139946Y-76657200D01*
X109300054Y-76657200D01*
X109457086Y-76688435D01*
G37*
G36*
X120887086Y-75418435D02*
G01*
X121035003Y-75479704D01*
X121168134Y-75568660D01*
X121281340Y-75681866D01*
X121370296Y-75814997D01*
X121431565Y-75962914D01*
X121462800Y-76119946D01*
X121462800Y-76280054D01*
X121431565Y-76437086D01*
X121370296Y-76585003D01*
X121322055Y-76657200D01*
X121301185Y-76688435D01*
X121281340Y-76718134D01*
X121168134Y-76831340D01*
X121168131Y-76831342D01*
X121168130Y-76831343D01*
X121157179Y-76838660D01*
X121035003Y-76920296D01*
X120887086Y-76981565D01*
X120730054Y-77012800D01*
X120569946Y-77012800D01*
X120412914Y-76981565D01*
X120264997Y-76920296D01*
X120142821Y-76838660D01*
X120131870Y-76831343D01*
X120131869Y-76831342D01*
X120131866Y-76831340D01*
X120018660Y-76718134D01*
X119998816Y-76688435D01*
X119977945Y-76657200D01*
X119929704Y-76585003D01*
X119868435Y-76437086D01*
X119837200Y-76280054D01*
X119837200Y-76119946D01*
X119868435Y-75962914D01*
X119929704Y-75814997D01*
X120018660Y-75681866D01*
X120131866Y-75568660D01*
X120264997Y-75479704D01*
X120412914Y-75418435D01*
X120569946Y-75387200D01*
X120730054Y-75387200D01*
X120887086Y-75418435D01*
G37*
G36*
X83500800Y-75880800D02*
G01*
X81599200Y-75880800D01*
X81599200Y-73979200D01*
X83500800Y-73979200D01*
X83500800Y-75880800D01*
G37*
G36*
X98067338Y-74015738D02*
G01*
X98240373Y-74087412D01*
X98396100Y-74191465D01*
X98528535Y-74323900D01*
X98632588Y-74479627D01*
X98704262Y-74652662D01*
X98740800Y-74836354D01*
X98740800Y-75023646D01*
X98704262Y-75207338D01*
X98632588Y-75380373D01*
X98528535Y-75536100D01*
X98396100Y-75668535D01*
X98240373Y-75772588D01*
X98067338Y-75844262D01*
X97883646Y-75880800D01*
X97696354Y-75880800D01*
X97512662Y-75844262D01*
X97339627Y-75772588D01*
X97183900Y-75668535D01*
X97051465Y-75536100D01*
X96947412Y-75380373D01*
X96875738Y-75207338D01*
X96839200Y-75023646D01*
X96839200Y-74836354D01*
X96875738Y-74652662D01*
X96947412Y-74479627D01*
X97051465Y-74323900D01*
X97183900Y-74191465D01*
X97339627Y-74087412D01*
X97512662Y-74015738D01*
X97696354Y-73979200D01*
X97883646Y-73979200D01*
X98067338Y-74015738D01*
G37*
G36*
X98067338Y-71475738D02*
G01*
X98240373Y-71547412D01*
X98396100Y-71651465D01*
X98528535Y-71783900D01*
X98632588Y-71939627D01*
X98704262Y-72112662D01*
X98740800Y-72296354D01*
X98740800Y-72483646D01*
X98704262Y-72667338D01*
X98632588Y-72840373D01*
X98528535Y-72996100D01*
X98396100Y-73128535D01*
X98240373Y-73232588D01*
X98067338Y-73304262D01*
X97883646Y-73340800D01*
X97696354Y-73340800D01*
X97512662Y-73304262D01*
X97339627Y-73232588D01*
X97183900Y-73128535D01*
X97051465Y-72996100D01*
X96947412Y-72840373D01*
X96875738Y-72667338D01*
X96839200Y-72483646D01*
X96839200Y-72296354D01*
X96875738Y-72112662D01*
X96947412Y-71939627D01*
X97051465Y-71783900D01*
X97183900Y-71651465D01*
X97339627Y-71547412D01*
X97512662Y-71475738D01*
X97696354Y-71439200D01*
X97883646Y-71439200D01*
X98067338Y-71475738D01*
G37*
G36*
X82827338Y-71475738D02*
G01*
X83000373Y-71547412D01*
X83156100Y-71651465D01*
X83288535Y-71783900D01*
X83392588Y-71939627D01*
X83464262Y-72112662D01*
X83500800Y-72296354D01*
X83500800Y-72483646D01*
X83464262Y-72667338D01*
X83392588Y-72840373D01*
X83288535Y-72996100D01*
X83156100Y-73128535D01*
X83000373Y-73232588D01*
X82827338Y-73304262D01*
X82643646Y-73340800D01*
X82456354Y-73340800D01*
X82272662Y-73304262D01*
X82099627Y-73232588D01*
X81943900Y-73128535D01*
X81811465Y-72996100D01*
X81707412Y-72840373D01*
X81635738Y-72667338D01*
X81599200Y-72483646D01*
X81599200Y-72296354D01*
X81635738Y-72112662D01*
X81707412Y-71939627D01*
X81811465Y-71783900D01*
X81943900Y-71651465D01*
X82099627Y-71547412D01*
X82272662Y-71475738D01*
X82456354Y-71439200D01*
X82643646Y-71439200D01*
X82827338Y-71475738D01*
G37*
G36*
X98067338Y-68935738D02*
G01*
X98240373Y-69007412D01*
X98396100Y-69111465D01*
X98528535Y-69243900D01*
X98632588Y-69399627D01*
X98704262Y-69572662D01*
X98740800Y-69756354D01*
X98740800Y-69943646D01*
X98704262Y-70127338D01*
X98632588Y-70300373D01*
X98528535Y-70456100D01*
X98396100Y-70588535D01*
X98240373Y-70692588D01*
X98067338Y-70764262D01*
X97883646Y-70800800D01*
X97696354Y-70800800D01*
X97512662Y-70764262D01*
X97339627Y-70692588D01*
X97183900Y-70588535D01*
X97051465Y-70456100D01*
X96947412Y-70300373D01*
X96875738Y-70127338D01*
X96839200Y-69943646D01*
X96839200Y-69756354D01*
X96875738Y-69572662D01*
X96947412Y-69399627D01*
X97051465Y-69243900D01*
X97183900Y-69111465D01*
X97339627Y-69007412D01*
X97512662Y-68935738D01*
X97696354Y-68899200D01*
X97883646Y-68899200D01*
X98067338Y-68935738D01*
G37*
G36*
X82827338Y-68935738D02*
G01*
X83000373Y-69007412D01*
X83156100Y-69111465D01*
X83288535Y-69243900D01*
X83392588Y-69399627D01*
X83464262Y-69572662D01*
X83500800Y-69756354D01*
X83500800Y-69943646D01*
X83464262Y-70127338D01*
X83392588Y-70300373D01*
X83288535Y-70456100D01*
X83156100Y-70588535D01*
X83000373Y-70692588D01*
X82827338Y-70764262D01*
X82643646Y-70800800D01*
X82456354Y-70800800D01*
X82272662Y-70764262D01*
X82099627Y-70692588D01*
X81943900Y-70588535D01*
X81811465Y-70456100D01*
X81707412Y-70300373D01*
X81635738Y-70127338D01*
X81599200Y-69943646D01*
X81599200Y-69756354D01*
X81635738Y-69572662D01*
X81707412Y-69399627D01*
X81811465Y-69243900D01*
X81943900Y-69111465D01*
X82099627Y-69007412D01*
X82272662Y-68935738D01*
X82456354Y-68899200D01*
X82643646Y-68899200D01*
X82827338Y-68935738D01*
G37*
G36*
X73897086Y-69068435D02*
G01*
X74045003Y-69129704D01*
X74178134Y-69218660D01*
X74291340Y-69331866D01*
X74380296Y-69464997D01*
X74441565Y-69612914D01*
X74472800Y-69769946D01*
X74472800Y-69930054D01*
X74441565Y-70087086D01*
X74380296Y-70235003D01*
X74291340Y-70368134D01*
X74178134Y-70481340D01*
X74045003Y-70570296D01*
X73897086Y-70631565D01*
X73740054Y-70662800D01*
X73579946Y-70662800D01*
X73422914Y-70631565D01*
X73274997Y-70570296D01*
X73141866Y-70481340D01*
X73028660Y-70368134D01*
X72939704Y-70235003D01*
X72878435Y-70087086D01*
X72847200Y-69930054D01*
X72847200Y-69769946D01*
X72878435Y-69612914D01*
X72939704Y-69464997D01*
X73028660Y-69331866D01*
X73141866Y-69218660D01*
X73274997Y-69129704D01*
X73422914Y-69068435D01*
X73579946Y-69037200D01*
X73740054Y-69037200D01*
X73897086Y-69068435D01*
G37*
G36*
X135216417Y-66613877D02*
G01*
X135588529Y-66768010D01*
X135923422Y-66991779D01*
X136208221Y-67276578D01*
X136431990Y-67611471D01*
X136586123Y-67983583D01*
X136664700Y-68378614D01*
X136664700Y-68781386D01*
X136586123Y-69176417D01*
X136431990Y-69548529D01*
X136208221Y-69883422D01*
X135923422Y-70168221D01*
X135588529Y-70391990D01*
X135216417Y-70546123D01*
X134821386Y-70624700D01*
X134418614Y-70624700D01*
X134023583Y-70546123D01*
X133651471Y-70391990D01*
X133316578Y-70168221D01*
X133031779Y-69883422D01*
X132808010Y-69548529D01*
X132653877Y-69176417D01*
X132575300Y-68781386D01*
X132575300Y-68378614D01*
X132653877Y-67983583D01*
X132808010Y-67611471D01*
X133031779Y-67276578D01*
X133316578Y-66991779D01*
X133651471Y-66768010D01*
X134023583Y-66613877D01*
X134418614Y-66535300D01*
X134821386Y-66535300D01*
X135216417Y-66613877D01*
G37*
G36*
X139970046Y-67689778D02*
G01*
X140138531Y-67759566D01*
X140290163Y-67860884D01*
X140419116Y-67989837D01*
X140520434Y-68141469D01*
X140569862Y-68260800D01*
X140590222Y-68309954D01*
X140625800Y-68488816D01*
X140625800Y-68671184D01*
X140603879Y-68781386D01*
X140590222Y-68850046D01*
X140520434Y-69018531D01*
X140419116Y-69170163D01*
X140290163Y-69299116D01*
X140138531Y-69400434D01*
X139982665Y-69464995D01*
X139970046Y-69470222D01*
X139791184Y-69505800D01*
X139608816Y-69505800D01*
X139429954Y-69470222D01*
X139417335Y-69464995D01*
X139261469Y-69400434D01*
X139109837Y-69299116D01*
X138980884Y-69170163D01*
X138879566Y-69018531D01*
X138809778Y-68850046D01*
X138796121Y-68781386D01*
X138774200Y-68671184D01*
X138774200Y-68488816D01*
X138809778Y-68309954D01*
X138830138Y-68260800D01*
X138879566Y-68141469D01*
X138980884Y-67989837D01*
X139109837Y-67860884D01*
X139261469Y-67759566D01*
X139429954Y-67689778D01*
X139608816Y-67654200D01*
X139791184Y-67654200D01*
X139970046Y-67689778D01*
G37*
G36*
X129810046Y-67689778D02*
G01*
X129978531Y-67759566D01*
X130130163Y-67860884D01*
X130259116Y-67989837D01*
X130360434Y-68141469D01*
X130409862Y-68260800D01*
X130430222Y-68309954D01*
X130465800Y-68488816D01*
X130465800Y-68671184D01*
X130443879Y-68781386D01*
X130430222Y-68850046D01*
X130360434Y-69018531D01*
X130259116Y-69170163D01*
X130130163Y-69299116D01*
X129978531Y-69400434D01*
X129822665Y-69464995D01*
X129810046Y-69470222D01*
X129631184Y-69505800D01*
X129448816Y-69505800D01*
X129269954Y-69470222D01*
X129257335Y-69464995D01*
X129101469Y-69400434D01*
X128949837Y-69299116D01*
X128820884Y-69170163D01*
X128719566Y-69018531D01*
X128649778Y-68850046D01*
X128636121Y-68781386D01*
X128614200Y-68671184D01*
X128614200Y-68488816D01*
X128649778Y-68309954D01*
X128670138Y-68260800D01*
X128719566Y-68141469D01*
X128820884Y-67989837D01*
X128949837Y-67860884D01*
X129101469Y-67759566D01*
X129269954Y-67689778D01*
X129448816Y-67654200D01*
X129631184Y-67654200D01*
X129810046Y-67689778D01*
G37*
G36*
X98067338Y-66395738D02*
G01*
X98240373Y-66467412D01*
X98396100Y-66571465D01*
X98528535Y-66703900D01*
X98632588Y-66859627D01*
X98704262Y-67032662D01*
X98740800Y-67216354D01*
X98740800Y-67403646D01*
X98704262Y-67587338D01*
X98632588Y-67760373D01*
X98528535Y-67916100D01*
X98396100Y-68048535D01*
X98240373Y-68152588D01*
X98067338Y-68224262D01*
X97883646Y-68260800D01*
X97696354Y-68260800D01*
X97512662Y-68224262D01*
X97339627Y-68152588D01*
X97183900Y-68048535D01*
X97051465Y-67916100D01*
X96947412Y-67760373D01*
X96875738Y-67587338D01*
X96839200Y-67403646D01*
X96839200Y-67216354D01*
X96875738Y-67032662D01*
X96947412Y-66859627D01*
X97051465Y-66703900D01*
X97183900Y-66571465D01*
X97339627Y-66467412D01*
X97512662Y-66395738D01*
X97696354Y-66359200D01*
X97883646Y-66359200D01*
X98067338Y-66395738D01*
G37*
G36*
X82827338Y-66395738D02*
G01*
X83000373Y-66467412D01*
X83156100Y-66571465D01*
X83288535Y-66703900D01*
X83392588Y-66859627D01*
X83464262Y-67032662D01*
X83500800Y-67216354D01*
X83500800Y-67403646D01*
X83464262Y-67587338D01*
X83392588Y-67760373D01*
X83288535Y-67916100D01*
X83156100Y-68048535D01*
X83000373Y-68152588D01*
X82827338Y-68224262D01*
X82643646Y-68260800D01*
X82456354Y-68260800D01*
X82272662Y-68224262D01*
X82099627Y-68152588D01*
X81943900Y-68048535D01*
X81811465Y-67916100D01*
X81707412Y-67760373D01*
X81635738Y-67587338D01*
X81599200Y-67403646D01*
X81599200Y-67216354D01*
X81635738Y-67032662D01*
X81707412Y-66859627D01*
X81811465Y-66703900D01*
X81943900Y-66571465D01*
X82099627Y-66467412D01*
X82272662Y-66395738D01*
X82456354Y-66359200D01*
X82643646Y-66359200D01*
X82827338Y-66395738D01*
G37*
G36*
X73897086Y-66528435D02*
G01*
X74045003Y-66589704D01*
X74178134Y-66678660D01*
X74291340Y-66791866D01*
X74380296Y-66924997D01*
X74441565Y-67072914D01*
X74472800Y-67229946D01*
X74472800Y-67390054D01*
X74441565Y-67547086D01*
X74380296Y-67695003D01*
X74291340Y-67828134D01*
X74178134Y-67941340D01*
X74045003Y-68030296D01*
X73897086Y-68091565D01*
X73740054Y-68122800D01*
X73579946Y-68122800D01*
X73422914Y-68091565D01*
X73274997Y-68030296D01*
X73141866Y-67941340D01*
X73028660Y-67828134D01*
X72939704Y-67695003D01*
X72878435Y-67547086D01*
X72847200Y-67390054D01*
X72847200Y-67229946D01*
X72878435Y-67072914D01*
X72939704Y-66924997D01*
X73028660Y-66791866D01*
X73141866Y-66678660D01*
X73274997Y-66589704D01*
X73422914Y-66528435D01*
X73579946Y-66497200D01*
X73740054Y-66497200D01*
X73897086Y-66528435D01*
G37*
G36*
X131152969Y-64909386D02*
G01*
X131366951Y-64998019D01*
X131559530Y-65126697D01*
X131723303Y-65290470D01*
X131851981Y-65483049D01*
X131940614Y-65697031D01*
X131985800Y-65924194D01*
X131985800Y-66155806D01*
X131940614Y-66382969D01*
X131851981Y-66596951D01*
X131723303Y-66789530D01*
X131559530Y-66953303D01*
X131366951Y-67081981D01*
X131152969Y-67170614D01*
X130925806Y-67215800D01*
X130694194Y-67215800D01*
X130467031Y-67170614D01*
X130253049Y-67081981D01*
X130060470Y-66953303D01*
X129896697Y-66789530D01*
X129768019Y-66596951D01*
X129679386Y-66382969D01*
X129634200Y-66155806D01*
X129634200Y-65924194D01*
X129679386Y-65697031D01*
X129768019Y-65483049D01*
X129896697Y-65290470D01*
X130060470Y-65126697D01*
X130253049Y-64998019D01*
X130467031Y-64909386D01*
X130694194Y-64864200D01*
X130925806Y-64864200D01*
X131152969Y-64909386D01*
G37*
G36*
X98067338Y-63855738D02*
G01*
X98240373Y-63927412D01*
X98396100Y-64031465D01*
X98528535Y-64163900D01*
X98632588Y-64319627D01*
X98704262Y-64492662D01*
X98740800Y-64676354D01*
X98740800Y-64863646D01*
X98704262Y-65047338D01*
X98632588Y-65220373D01*
X98528535Y-65376100D01*
X98396100Y-65508535D01*
X98240373Y-65612588D01*
X98067338Y-65684262D01*
X97883646Y-65720800D01*
X97696354Y-65720800D01*
X97512662Y-65684262D01*
X97339627Y-65612588D01*
X97183900Y-65508535D01*
X97051465Y-65376100D01*
X96947412Y-65220373D01*
X96875738Y-65047338D01*
X96839200Y-64863646D01*
X96839200Y-64676354D01*
X96875738Y-64492662D01*
X96947412Y-64319627D01*
X97051465Y-64163900D01*
X97183900Y-64031465D01*
X97339627Y-63927412D01*
X97512662Y-63855738D01*
X97696354Y-63819200D01*
X97883646Y-63819200D01*
X98067338Y-63855738D01*
G37*
G36*
X82827338Y-63855738D02*
G01*
X83000373Y-63927412D01*
X83156100Y-64031465D01*
X83288535Y-64163900D01*
X83392588Y-64319627D01*
X83464262Y-64492662D01*
X83500800Y-64676354D01*
X83500800Y-64863646D01*
X83464262Y-65047338D01*
X83392588Y-65220373D01*
X83288535Y-65376100D01*
X83156100Y-65508535D01*
X83000373Y-65612588D01*
X82827338Y-65684262D01*
X82643646Y-65720800D01*
X82456354Y-65720800D01*
X82272662Y-65684262D01*
X82099627Y-65612588D01*
X81943900Y-65508535D01*
X81811465Y-65376100D01*
X81707412Y-65220373D01*
X81635738Y-65047338D01*
X81599200Y-64863646D01*
X81599200Y-64676354D01*
X81635738Y-64492662D01*
X81707412Y-64319627D01*
X81811465Y-64163900D01*
X81943900Y-64031465D01*
X82099627Y-63927412D01*
X82272662Y-63855738D01*
X82456354Y-63819200D01*
X82643646Y-63819200D01*
X82827338Y-63855738D01*
G37*
G36*
X73897086Y-63988435D02*
G01*
X74045003Y-64049704D01*
X74178134Y-64138660D01*
X74291340Y-64251866D01*
X74380296Y-64384997D01*
X74441565Y-64532914D01*
X74472800Y-64689946D01*
X74472800Y-64850054D01*
X74441565Y-65007086D01*
X74380296Y-65155003D01*
X74291340Y-65288134D01*
X74178134Y-65401340D01*
X74045003Y-65490296D01*
X73897086Y-65551565D01*
X73740054Y-65582800D01*
X73579946Y-65582800D01*
X73422914Y-65551565D01*
X73274997Y-65490296D01*
X73141866Y-65401340D01*
X73028660Y-65288134D01*
X72939704Y-65155003D01*
X72878435Y-65007086D01*
X72847200Y-64850054D01*
X72847200Y-64689946D01*
X72878435Y-64532914D01*
X72939704Y-64384997D01*
X73028660Y-64251866D01*
X73141866Y-64138660D01*
X73274997Y-64049704D01*
X73422914Y-63988435D01*
X73579946Y-63957200D01*
X73740054Y-63957200D01*
X73897086Y-63988435D01*
G37*
G36*
X137502969Y-62369386D02*
G01*
X137716951Y-62458019D01*
X137909530Y-62586697D01*
X138073303Y-62750470D01*
X138201981Y-62943049D01*
X138290614Y-63157031D01*
X138335800Y-63384194D01*
X138335800Y-63615806D01*
X138290614Y-63842969D01*
X138201981Y-64056951D01*
X138073303Y-64249530D01*
X137909530Y-64413303D01*
X137716951Y-64541981D01*
X137502969Y-64630614D01*
X137275806Y-64675800D01*
X137044194Y-64675800D01*
X136817031Y-64630614D01*
X136603049Y-64541981D01*
X136410470Y-64413303D01*
X136246697Y-64249530D01*
X136118019Y-64056951D01*
X136029386Y-63842969D01*
X135984200Y-63615806D01*
X135984200Y-63384194D01*
X136029386Y-63157031D01*
X136118019Y-62943049D01*
X136246697Y-62750470D01*
X136410470Y-62586697D01*
X136603049Y-62458019D01*
X136817031Y-62369386D01*
X137044194Y-62324200D01*
X137275806Y-62324200D01*
X137502969Y-62369386D01*
G37*
G36*
X98067338Y-61315738D02*
G01*
X98240373Y-61387412D01*
X98396100Y-61491465D01*
X98528535Y-61623900D01*
X98632588Y-61779627D01*
X98704262Y-61952662D01*
X98740800Y-62136354D01*
X98740800Y-62323646D01*
X98704262Y-62507338D01*
X98632588Y-62680373D01*
X98528535Y-62836100D01*
X98396100Y-62968535D01*
X98240373Y-63072588D01*
X98067338Y-63144262D01*
X97883646Y-63180800D01*
X97696354Y-63180800D01*
X97512662Y-63144262D01*
X97339627Y-63072588D01*
X97183900Y-62968535D01*
X97051465Y-62836100D01*
X96947412Y-62680373D01*
X96875738Y-62507338D01*
X96839200Y-62323646D01*
X96839200Y-62136354D01*
X96875738Y-61952662D01*
X96947412Y-61779627D01*
X97051465Y-61623900D01*
X97183900Y-61491465D01*
X97339627Y-61387412D01*
X97512662Y-61315738D01*
X97696354Y-61279200D01*
X97883646Y-61279200D01*
X98067338Y-61315738D01*
G37*
G36*
X82827338Y-61315738D02*
G01*
X83000373Y-61387412D01*
X83156100Y-61491465D01*
X83288535Y-61623900D01*
X83392588Y-61779627D01*
X83464262Y-61952662D01*
X83500800Y-62136354D01*
X83500800Y-62323646D01*
X83464262Y-62507338D01*
X83392588Y-62680373D01*
X83288535Y-62836100D01*
X83156100Y-62968535D01*
X83000373Y-63072588D01*
X82827338Y-63144262D01*
X82643646Y-63180800D01*
X82456354Y-63180800D01*
X82272662Y-63144262D01*
X82099627Y-63072588D01*
X81943900Y-62968535D01*
X81811465Y-62836100D01*
X81707412Y-62680373D01*
X81635738Y-62507338D01*
X81599200Y-62323646D01*
X81599200Y-62136354D01*
X81635738Y-61952662D01*
X81707412Y-61779627D01*
X81811465Y-61623900D01*
X81943900Y-61491465D01*
X82099627Y-61387412D01*
X82272662Y-61315738D01*
X82456354Y-61279200D01*
X82643646Y-61279200D01*
X82827338Y-61315738D01*
G37*
G36*
X73897086Y-61448435D02*
G01*
X74045003Y-61509704D01*
X74178134Y-61598660D01*
X74291340Y-61711866D01*
X74380296Y-61844997D01*
X74441565Y-61992914D01*
X74472800Y-62149946D01*
X74472800Y-62310054D01*
X74441565Y-62467086D01*
X74380296Y-62615003D01*
X74291340Y-62748134D01*
X74178134Y-62861340D01*
X74045003Y-62950296D01*
X73897086Y-63011565D01*
X73740054Y-63042800D01*
X73579946Y-63042800D01*
X73422914Y-63011565D01*
X73274997Y-62950296D01*
X73141866Y-62861340D01*
X73028660Y-62748134D01*
X72939704Y-62615003D01*
X72878435Y-62467086D01*
X72847200Y-62310054D01*
X72847200Y-62149946D01*
X72878435Y-61992914D01*
X72939704Y-61844997D01*
X73028660Y-61711866D01*
X73141866Y-61598660D01*
X73274997Y-61509704D01*
X73422914Y-61448435D01*
X73579946Y-61417200D01*
X73740054Y-61417200D01*
X73897086Y-61448435D01*
G37*
G36*
X62467086Y-61448435D02*
G01*
X62615003Y-61509704D01*
X62748134Y-61598660D01*
X62861340Y-61711866D01*
X62950296Y-61844997D01*
X63011565Y-61992914D01*
X63042800Y-62149946D01*
X63042800Y-62310054D01*
X63011565Y-62467086D01*
X62950296Y-62615003D01*
X62861340Y-62748134D01*
X62748134Y-62861340D01*
X62615003Y-62950296D01*
X62467086Y-63011565D01*
X62310054Y-63042800D01*
X62149946Y-63042800D01*
X61992914Y-63011565D01*
X61844997Y-62950296D01*
X61711866Y-62861340D01*
X61598660Y-62748134D01*
X61509704Y-62615003D01*
X61448435Y-62467086D01*
X61417200Y-62310054D01*
X61417200Y-62149946D01*
X61448435Y-61992914D01*
X61509704Y-61844997D01*
X61598660Y-61711866D01*
X61711866Y-61598660D01*
X61844997Y-61509704D01*
X61992914Y-61448435D01*
X62149946Y-61417200D01*
X62310054Y-61417200D01*
X62467086Y-61448435D01*
G37*
G36*
X98067338Y-58775738D02*
G01*
X98240373Y-58847412D01*
X98396100Y-58951465D01*
X98528535Y-59083900D01*
X98632588Y-59239627D01*
X98704262Y-59412662D01*
X98740800Y-59596354D01*
X98740800Y-59783646D01*
X98704262Y-59967338D01*
X98632588Y-60140373D01*
X98528535Y-60296100D01*
X98396100Y-60428535D01*
X98240373Y-60532588D01*
X98067338Y-60604262D01*
X97883646Y-60640800D01*
X97696354Y-60640800D01*
X97512662Y-60604262D01*
X97339627Y-60532588D01*
X97183900Y-60428535D01*
X97051465Y-60296100D01*
X96947412Y-60140373D01*
X96875738Y-59967338D01*
X96839200Y-59783646D01*
X96839200Y-59596354D01*
X96875738Y-59412662D01*
X96947412Y-59239627D01*
X97051465Y-59083900D01*
X97183900Y-58951465D01*
X97339627Y-58847412D01*
X97512662Y-58775738D01*
X97696354Y-58739200D01*
X97883646Y-58739200D01*
X98067338Y-58775738D01*
G37*
G36*
X82827338Y-58775738D02*
G01*
X83000373Y-58847412D01*
X83156100Y-58951465D01*
X83288535Y-59083900D01*
X83392588Y-59239627D01*
X83464262Y-59412662D01*
X83500800Y-59596354D01*
X83500800Y-59783646D01*
X83464262Y-59967338D01*
X83392588Y-60140373D01*
X83288535Y-60296100D01*
X83156100Y-60428535D01*
X83000373Y-60532588D01*
X82827338Y-60604262D01*
X82643646Y-60640800D01*
X82456354Y-60640800D01*
X82272662Y-60604262D01*
X82099627Y-60532588D01*
X81943900Y-60428535D01*
X81811465Y-60296100D01*
X81707412Y-60140373D01*
X81635738Y-59967338D01*
X81599200Y-59783646D01*
X81599200Y-59596354D01*
X81635738Y-59412662D01*
X81707412Y-59239627D01*
X81811465Y-59083900D01*
X81943900Y-58951465D01*
X82099627Y-58847412D01*
X82272662Y-58775738D01*
X82456354Y-58739200D01*
X82643646Y-58739200D01*
X82827338Y-58775738D01*
G37*
G36*
X73897086Y-58908435D02*
G01*
X74045003Y-58969704D01*
X74178134Y-59058660D01*
X74291340Y-59171866D01*
X74380296Y-59304997D01*
X74441565Y-59452914D01*
X74472800Y-59609946D01*
X74472800Y-59770054D01*
X74441565Y-59927086D01*
X74380296Y-60075003D01*
X74291340Y-60208134D01*
X74178134Y-60321340D01*
X74045003Y-60410296D01*
X73897086Y-60471565D01*
X73740054Y-60502800D01*
X73579946Y-60502800D01*
X73422914Y-60471565D01*
X73274997Y-60410296D01*
X73141866Y-60321340D01*
X73028660Y-60208134D01*
X72939704Y-60075003D01*
X72878435Y-59927086D01*
X72847200Y-59770054D01*
X72847200Y-59609946D01*
X72878435Y-59452914D01*
X72939704Y-59304997D01*
X73028660Y-59171866D01*
X73141866Y-59058660D01*
X73274997Y-58969704D01*
X73422914Y-58908435D01*
X73579946Y-58877200D01*
X73740054Y-58877200D01*
X73897086Y-58908435D01*
G37*
G36*
X62467086Y-58908435D02*
G01*
X62615003Y-58969704D01*
X62748134Y-59058660D01*
X62861340Y-59171866D01*
X62950296Y-59304997D01*
X63011565Y-59452914D01*
X63042800Y-59609946D01*
X63042800Y-59770054D01*
X63011565Y-59927086D01*
X62950296Y-60075003D01*
X62861340Y-60208134D01*
X62748134Y-60321340D01*
X62615003Y-60410296D01*
X62467086Y-60471565D01*
X62310054Y-60502800D01*
X62149946Y-60502800D01*
X61992914Y-60471565D01*
X61844997Y-60410296D01*
X61711866Y-60321340D01*
X61598660Y-60208134D01*
X61509704Y-60075003D01*
X61448435Y-59927086D01*
X61417200Y-59770054D01*
X61417200Y-59609946D01*
X61448435Y-59452914D01*
X61509704Y-59304997D01*
X61598660Y-59171866D01*
X61711866Y-59058660D01*
X61844997Y-58969704D01*
X61992914Y-58908435D01*
X62149946Y-58877200D01*
X62310054Y-58877200D01*
X62467086Y-58908435D01*
G37*
G36*
X98067338Y-56235738D02*
G01*
X98240373Y-56307412D01*
X98396100Y-56411465D01*
X98528535Y-56543900D01*
X98632588Y-56699627D01*
X98704262Y-56872662D01*
X98740800Y-57056354D01*
X98740800Y-57243646D01*
X98704262Y-57427338D01*
X98632588Y-57600373D01*
X98528535Y-57756100D01*
X98396100Y-57888535D01*
X98240373Y-57992588D01*
X98067338Y-58064262D01*
X97883646Y-58100800D01*
X97696354Y-58100800D01*
X97512662Y-58064262D01*
X97339627Y-57992588D01*
X97183900Y-57888535D01*
X97051465Y-57756100D01*
X96947412Y-57600373D01*
X96875738Y-57427338D01*
X96839200Y-57243646D01*
X96839200Y-57056354D01*
X96875738Y-56872662D01*
X96947412Y-56699627D01*
X97051465Y-56543900D01*
X97183900Y-56411465D01*
X97339627Y-56307412D01*
X97512662Y-56235738D01*
X97696354Y-56199200D01*
X97883646Y-56199200D01*
X98067338Y-56235738D01*
G37*
G36*
X82827338Y-56235738D02*
G01*
X83000373Y-56307412D01*
X83156100Y-56411465D01*
X83288535Y-56543900D01*
X83392588Y-56699627D01*
X83464262Y-56872662D01*
X83500800Y-57056354D01*
X83500800Y-57243646D01*
X83464262Y-57427338D01*
X83392588Y-57600373D01*
X83288535Y-57756100D01*
X83156100Y-57888535D01*
X83000373Y-57992588D01*
X82827338Y-58064262D01*
X82643646Y-58100800D01*
X82456354Y-58100800D01*
X82272662Y-58064262D01*
X82099627Y-57992588D01*
X81943900Y-57888535D01*
X81811465Y-57756100D01*
X81707412Y-57600373D01*
X81635738Y-57427338D01*
X81599200Y-57243646D01*
X81599200Y-57056354D01*
X81635738Y-56872662D01*
X81707412Y-56699627D01*
X81811465Y-56543900D01*
X81943900Y-56411465D01*
X82099627Y-56307412D01*
X82272662Y-56235738D01*
X82456354Y-56199200D01*
X82643646Y-56199200D01*
X82827338Y-56235738D01*
G37*
G36*
X62467086Y-56368435D02*
G01*
X62615003Y-56429704D01*
X62748134Y-56518660D01*
X62861340Y-56631866D01*
X62950296Y-56764997D01*
X63011565Y-56912914D01*
X63042800Y-57069946D01*
X63042800Y-57230054D01*
X63011565Y-57387086D01*
X62950296Y-57535003D01*
X62861340Y-57668134D01*
X62748134Y-57781340D01*
X62615003Y-57870296D01*
X62467086Y-57931565D01*
X62310054Y-57962800D01*
X62149946Y-57962800D01*
X61992914Y-57931565D01*
X61844997Y-57870296D01*
X61711866Y-57781340D01*
X61598660Y-57668134D01*
X61509704Y-57535003D01*
X61448435Y-57387086D01*
X61417200Y-57230054D01*
X61417200Y-57069946D01*
X61448435Y-56912914D01*
X61509704Y-56764997D01*
X61598660Y-56631866D01*
X61711866Y-56518660D01*
X61844997Y-56429704D01*
X61992914Y-56368435D01*
X62149946Y-56337200D01*
X62310054Y-56337200D01*
X62467086Y-56368435D01*
G37*
G36*
X73897086Y-56368435D02*
G01*
X74045003Y-56429704D01*
X74178134Y-56518660D01*
X74291340Y-56631866D01*
X74380296Y-56764997D01*
X74441565Y-56912914D01*
X74472800Y-57069946D01*
X74472800Y-57230054D01*
X74441565Y-57387086D01*
X74380296Y-57535003D01*
X74291340Y-57668134D01*
X74178134Y-57781340D01*
X74045003Y-57870296D01*
X73897086Y-57931565D01*
X73740054Y-57962800D01*
X73579946Y-57962800D01*
X73422914Y-57931565D01*
X73274997Y-57870296D01*
X73141866Y-57781340D01*
X73028660Y-57668134D01*
X72939704Y-57535003D01*
X72878435Y-57387086D01*
X72847200Y-57230054D01*
X72847200Y-57069946D01*
X72878435Y-56912914D01*
X72939704Y-56764997D01*
X73028660Y-56631866D01*
X73141866Y-56518660D01*
X73274997Y-56429704D01*
X73422914Y-56368435D01*
X73579946Y-56337200D01*
X73740054Y-56337200D01*
X73897086Y-56368435D01*
G37*
G36*
X98067338Y-53695738D02*
G01*
X98240373Y-53767412D01*
X98396100Y-53871465D01*
X98528535Y-54003900D01*
X98632588Y-54159627D01*
X98704262Y-54332662D01*
X98740800Y-54516354D01*
X98740800Y-54703646D01*
X98704262Y-54887338D01*
X98632588Y-55060373D01*
X98528535Y-55216100D01*
X98396100Y-55348535D01*
X98240373Y-55452588D01*
X98067338Y-55524262D01*
X97883646Y-55560800D01*
X97696354Y-55560800D01*
X97512662Y-55524262D01*
X97339627Y-55452588D01*
X97183900Y-55348535D01*
X97051465Y-55216100D01*
X96947412Y-55060373D01*
X96875738Y-54887338D01*
X96839200Y-54703646D01*
X96839200Y-54516354D01*
X96875738Y-54332662D01*
X96947412Y-54159627D01*
X97051465Y-54003900D01*
X97183900Y-53871465D01*
X97339627Y-53767412D01*
X97512662Y-53695738D01*
X97696354Y-53659200D01*
X97883646Y-53659200D01*
X98067338Y-53695738D01*
G37*
G36*
X82827338Y-53695738D02*
G01*
X83000373Y-53767412D01*
X83156100Y-53871465D01*
X83288535Y-54003900D01*
X83392588Y-54159627D01*
X83464262Y-54332662D01*
X83500800Y-54516354D01*
X83500800Y-54703646D01*
X83464262Y-54887338D01*
X83392588Y-55060373D01*
X83288535Y-55216100D01*
X83156100Y-55348535D01*
X83000373Y-55452588D01*
X82827338Y-55524262D01*
X82643646Y-55560800D01*
X82456354Y-55560800D01*
X82272662Y-55524262D01*
X82099627Y-55452588D01*
X81943900Y-55348535D01*
X81811465Y-55216100D01*
X81707412Y-55060373D01*
X81635738Y-54887338D01*
X81599200Y-54703646D01*
X81599200Y-54516354D01*
X81635738Y-54332662D01*
X81707412Y-54159627D01*
X81811465Y-54003900D01*
X81943900Y-53871465D01*
X82099627Y-53767412D01*
X82272662Y-53695738D01*
X82456354Y-53659200D01*
X82643646Y-53659200D01*
X82827338Y-53695738D01*
G37*
G36*
X62467086Y-53828435D02*
G01*
X62615003Y-53889704D01*
X62748134Y-53978660D01*
X62861340Y-54091866D01*
X62950296Y-54224997D01*
X63011565Y-54372914D01*
X63042800Y-54529946D01*
X63042800Y-54690054D01*
X63011565Y-54847086D01*
X62950296Y-54995003D01*
X62861340Y-55128134D01*
X62748134Y-55241340D01*
X62615003Y-55330296D01*
X62467086Y-55391565D01*
X62310054Y-55422800D01*
X62149946Y-55422800D01*
X61992914Y-55391565D01*
X61844997Y-55330296D01*
X61711866Y-55241340D01*
X61598660Y-55128134D01*
X61509704Y-54995003D01*
X61448435Y-54847086D01*
X61417200Y-54690054D01*
X61417200Y-54529946D01*
X61448435Y-54372914D01*
X61509704Y-54224997D01*
X61598660Y-54091866D01*
X61711866Y-53978660D01*
X61844997Y-53889704D01*
X61992914Y-53828435D01*
X62149946Y-53797200D01*
X62310054Y-53797200D01*
X62467086Y-53828435D01*
G37*
G36*
X73897086Y-53828435D02*
G01*
X74045003Y-53889704D01*
X74178134Y-53978660D01*
X74291340Y-54091866D01*
X74380296Y-54224997D01*
X74441565Y-54372914D01*
X74472800Y-54529946D01*
X74472800Y-54690054D01*
X74441565Y-54847086D01*
X74380296Y-54995003D01*
X74291340Y-55128134D01*
X74178134Y-55241340D01*
X74045003Y-55330296D01*
X73897086Y-55391565D01*
X73740054Y-55422800D01*
X73579946Y-55422800D01*
X73422914Y-55391565D01*
X73274997Y-55330296D01*
X73141866Y-55241340D01*
X73028660Y-55128134D01*
X72939704Y-54995003D01*
X72878435Y-54847086D01*
X72847200Y-54690054D01*
X72847200Y-54529946D01*
X72878435Y-54372914D01*
X72939704Y-54224997D01*
X73028660Y-54091866D01*
X73141866Y-53978660D01*
X73274997Y-53889704D01*
X73422914Y-53828435D01*
X73579946Y-53797200D01*
X73740054Y-53797200D01*
X73897086Y-53828435D01*
G37*
G36*
X82827338Y-51155738D02*
G01*
X83000373Y-51227412D01*
X83156100Y-51331465D01*
X83288535Y-51463900D01*
X83392588Y-51619627D01*
X83464262Y-51792662D01*
X83500800Y-51976354D01*
X83500800Y-52163646D01*
X83464262Y-52347338D01*
X83392588Y-52520373D01*
X83288535Y-52676100D01*
X83156100Y-52808535D01*
X83000373Y-52912588D01*
X82827338Y-52984262D01*
X82643646Y-53020800D01*
X82456354Y-53020800D01*
X82272662Y-52984262D01*
X82099627Y-52912588D01*
X81943900Y-52808535D01*
X81811465Y-52676100D01*
X81707412Y-52520373D01*
X81635738Y-52347338D01*
X81599200Y-52163646D01*
X81599200Y-51976354D01*
X81635738Y-51792662D01*
X81707412Y-51619627D01*
X81811465Y-51463900D01*
X81943900Y-51331465D01*
X82099627Y-51227412D01*
X82272662Y-51155738D01*
X82456354Y-51119200D01*
X82643646Y-51119200D01*
X82827338Y-51155738D01*
G37*
G36*
X98067338Y-51155738D02*
G01*
X98240373Y-51227412D01*
X98396100Y-51331465D01*
X98528535Y-51463900D01*
X98632588Y-51619627D01*
X98704262Y-51792662D01*
X98740800Y-51976354D01*
X98740800Y-52163646D01*
X98704262Y-52347338D01*
X98632588Y-52520373D01*
X98528535Y-52676100D01*
X98396100Y-52808535D01*
X98240373Y-52912588D01*
X98067338Y-52984262D01*
X97883646Y-53020800D01*
X97696354Y-53020800D01*
X97512662Y-52984262D01*
X97339627Y-52912588D01*
X97183900Y-52808535D01*
X97051465Y-52676100D01*
X96947412Y-52520373D01*
X96875738Y-52347338D01*
X96839200Y-52163646D01*
X96839200Y-51976354D01*
X96875738Y-51792662D01*
X96947412Y-51619627D01*
X97051465Y-51463900D01*
X97183900Y-51331465D01*
X97339627Y-51227412D01*
X97512662Y-51155738D01*
X97696354Y-51119200D01*
X97883646Y-51119200D01*
X98067338Y-51155738D01*
G37*
G36*
X62467086Y-51288435D02*
G01*
X62615003Y-51349704D01*
X62748134Y-51438660D01*
X62861340Y-51551866D01*
X62950296Y-51684997D01*
X63011565Y-51832914D01*
X63042800Y-51989946D01*
X63042800Y-52150054D01*
X63011565Y-52307086D01*
X62950296Y-52455003D01*
X62861340Y-52588134D01*
X62748134Y-52701340D01*
X62615003Y-52790296D01*
X62467086Y-52851565D01*
X62310054Y-52882800D01*
X62149946Y-52882800D01*
X61992914Y-52851565D01*
X61844997Y-52790296D01*
X61711866Y-52701340D01*
X61598660Y-52588134D01*
X61509704Y-52455003D01*
X61448435Y-52307086D01*
X61417200Y-52150054D01*
X61417200Y-51989946D01*
X61448435Y-51832914D01*
X61509704Y-51684997D01*
X61598660Y-51551866D01*
X61711866Y-51438660D01*
X61844997Y-51349704D01*
X61992914Y-51288435D01*
X62149946Y-51257200D01*
X62310054Y-51257200D01*
X62467086Y-51288435D01*
G37*
G36*
X73897086Y-51288435D02*
G01*
X74045003Y-51349704D01*
X74178134Y-51438660D01*
X74291340Y-51551866D01*
X74380296Y-51684997D01*
X74441565Y-51832914D01*
X74472800Y-51989946D01*
X74472800Y-52150054D01*
X74441565Y-52307086D01*
X74380296Y-52455003D01*
X74291340Y-52588134D01*
X74178134Y-52701340D01*
X74045003Y-52790296D01*
X73897086Y-52851565D01*
X73740054Y-52882800D01*
X73579946Y-52882800D01*
X73422914Y-52851565D01*
X73274997Y-52790296D01*
X73141866Y-52701340D01*
X73028660Y-52588134D01*
X72939704Y-52455003D01*
X72878435Y-52307086D01*
X72847200Y-52150054D01*
X72847200Y-51989946D01*
X72878435Y-51832914D01*
X72939704Y-51684997D01*
X73028660Y-51551866D01*
X73141866Y-51438660D01*
X73274997Y-51349704D01*
X73422914Y-51288435D01*
X73579946Y-51257200D01*
X73740054Y-51257200D01*
X73897086Y-51288435D01*
G37*
G36*
X98067338Y-48615738D02*
G01*
X98240373Y-48687412D01*
X98396100Y-48791465D01*
X98528535Y-48923900D01*
X98632588Y-49079627D01*
X98704262Y-49252662D01*
X98740800Y-49436354D01*
X98740800Y-49623646D01*
X98704262Y-49807338D01*
X98632588Y-49980373D01*
X98528535Y-50136100D01*
X98396100Y-50268535D01*
X98240373Y-50372588D01*
X98067338Y-50444262D01*
X97883646Y-50480800D01*
X97696354Y-50480800D01*
X97512662Y-50444262D01*
X97339627Y-50372588D01*
X97183900Y-50268535D01*
X97051465Y-50136100D01*
X96947412Y-49980373D01*
X96875738Y-49807338D01*
X96839200Y-49623646D01*
X96839200Y-49436354D01*
X96875738Y-49252662D01*
X96947412Y-49079627D01*
X97051465Y-48923900D01*
X97183900Y-48791465D01*
X97339627Y-48687412D01*
X97512662Y-48615738D01*
X97696354Y-48579200D01*
X97883646Y-48579200D01*
X98067338Y-48615738D01*
G37*
G36*
X82827338Y-48615738D02*
G01*
X83000373Y-48687412D01*
X83156100Y-48791465D01*
X83288535Y-48923900D01*
X83392588Y-49079627D01*
X83464262Y-49252662D01*
X83500800Y-49436354D01*
X83500800Y-49623646D01*
X83464262Y-49807338D01*
X83392588Y-49980373D01*
X83288535Y-50136100D01*
X83156100Y-50268535D01*
X83000373Y-50372588D01*
X82827338Y-50444262D01*
X82643646Y-50480800D01*
X82456354Y-50480800D01*
X82272662Y-50444262D01*
X82099627Y-50372588D01*
X81943900Y-50268535D01*
X81811465Y-50136100D01*
X81707412Y-49980373D01*
X81635738Y-49807338D01*
X81599200Y-49623646D01*
X81599200Y-49436354D01*
X81635738Y-49252662D01*
X81707412Y-49079627D01*
X81811465Y-48923900D01*
X81943900Y-48791465D01*
X82099627Y-48687412D01*
X82272662Y-48615738D01*
X82456354Y-48579200D01*
X82643646Y-48579200D01*
X82827338Y-48615738D01*
G37*
G36*
X73897086Y-48748435D02*
G01*
X74045003Y-48809704D01*
X74178134Y-48898660D01*
X74291340Y-49011866D01*
X74380296Y-49144997D01*
X74441565Y-49292914D01*
X74472800Y-49449946D01*
X74472800Y-49610054D01*
X74441565Y-49767086D01*
X74380296Y-49915003D01*
X74291340Y-50048134D01*
X74178134Y-50161340D01*
X74045003Y-50250296D01*
X73897086Y-50311565D01*
X73740054Y-50342800D01*
X73579946Y-50342800D01*
X73422914Y-50311565D01*
X73274997Y-50250296D01*
X73141866Y-50161340D01*
X73028660Y-50048134D01*
X72939704Y-49915003D01*
X72878435Y-49767086D01*
X72847200Y-49610054D01*
X72847200Y-49449946D01*
X72878435Y-49292914D01*
X72939704Y-49144997D01*
X73028660Y-49011866D01*
X73141866Y-48898660D01*
X73274997Y-48809704D01*
X73422914Y-48748435D01*
X73579946Y-48717200D01*
X73740054Y-48717200D01*
X73897086Y-48748435D01*
G37*
G36*
X98067338Y-46075738D02*
G01*
X98240373Y-46147412D01*
X98396100Y-46251465D01*
X98528535Y-46383900D01*
X98632588Y-46539627D01*
X98704262Y-46712662D01*
X98740800Y-46896354D01*
X98740800Y-47083646D01*
X98704262Y-47267338D01*
X98632588Y-47440373D01*
X98528535Y-47596100D01*
X98396100Y-47728535D01*
X98240373Y-47832588D01*
X98067338Y-47904262D01*
X97883646Y-47940800D01*
X97696354Y-47940800D01*
X97512662Y-47904262D01*
X97339627Y-47832588D01*
X97183900Y-47728535D01*
X97051465Y-47596100D01*
X96947412Y-47440373D01*
X96875738Y-47267338D01*
X96839200Y-47083646D01*
X96839200Y-46896354D01*
X96875738Y-46712662D01*
X96947412Y-46539627D01*
X97051465Y-46383900D01*
X97183900Y-46251465D01*
X97339627Y-46147412D01*
X97512662Y-46075738D01*
X97696354Y-46039200D01*
X97883646Y-46039200D01*
X98067338Y-46075738D01*
G37*
G36*
X82827338Y-46075738D02*
G01*
X83000373Y-46147412D01*
X83156100Y-46251465D01*
X83288535Y-46383900D01*
X83392588Y-46539627D01*
X83464262Y-46712662D01*
X83500800Y-46896354D01*
X83500800Y-47083646D01*
X83464262Y-47267338D01*
X83392588Y-47440373D01*
X83288535Y-47596100D01*
X83156100Y-47728535D01*
X83000373Y-47832588D01*
X82827338Y-47904262D01*
X82643646Y-47940800D01*
X82456354Y-47940800D01*
X82272662Y-47904262D01*
X82099627Y-47832588D01*
X81943900Y-47728535D01*
X81811465Y-47596100D01*
X81707412Y-47440373D01*
X81635738Y-47267338D01*
X81599200Y-47083646D01*
X81599200Y-46896354D01*
X81635738Y-46712662D01*
X81707412Y-46539627D01*
X81811465Y-46383900D01*
X81943900Y-46251465D01*
X82099627Y-46147412D01*
X82272662Y-46075738D01*
X82456354Y-46039200D01*
X82643646Y-46039200D01*
X82827338Y-46075738D01*
G37*
G36*
X73897086Y-46208435D02*
G01*
X74045003Y-46269704D01*
X74178134Y-46358660D01*
X74291340Y-46471866D01*
X74380296Y-46604997D01*
X74441565Y-46752914D01*
X74472800Y-46909946D01*
X74472800Y-47070054D01*
X74441565Y-47227086D01*
X74380296Y-47375003D01*
X74291340Y-47508134D01*
X74178134Y-47621340D01*
X74045003Y-47710296D01*
X73897086Y-47771565D01*
X73740054Y-47802800D01*
X73579946Y-47802800D01*
X73422914Y-47771565D01*
X73274997Y-47710296D01*
X73141866Y-47621340D01*
X73028660Y-47508134D01*
X72939704Y-47375003D01*
X72878435Y-47227086D01*
X72847200Y-47070054D01*
X72847200Y-46909946D01*
X72878435Y-46752914D01*
X72939704Y-46604997D01*
X73028660Y-46471866D01*
X73141866Y-46358660D01*
X73274997Y-46269704D01*
X73422914Y-46208435D01*
X73579946Y-46177200D01*
X73740054Y-46177200D01*
X73897086Y-46208435D01*
G37*
G36*
X135216417Y-43753877D02*
G01*
X135588529Y-43908010D01*
X135923422Y-44131779D01*
X136208221Y-44416578D01*
X136431990Y-44751471D01*
X136586123Y-45123583D01*
X136664700Y-45518614D01*
X136664700Y-45921386D01*
X136586123Y-46316417D01*
X136431990Y-46688529D01*
X136208221Y-47023422D01*
X135923422Y-47308221D01*
X135588529Y-47531990D01*
X135216417Y-47686123D01*
X134821386Y-47764700D01*
X134418614Y-47764700D01*
X134023583Y-47686123D01*
X133651471Y-47531990D01*
X133316578Y-47308221D01*
X133031779Y-47023422D01*
X132808010Y-46688529D01*
X132653877Y-46316417D01*
X132575300Y-45921386D01*
X132575300Y-45518614D01*
X132653877Y-45123583D01*
X132808010Y-44751471D01*
X133031779Y-44416578D01*
X133316578Y-44131779D01*
X133651471Y-43908010D01*
X134023583Y-43753877D01*
X134418614Y-43675300D01*
X134821386Y-43675300D01*
X135216417Y-43753877D01*
G37*
G36*
X139970046Y-44829778D02*
G01*
X140138531Y-44899566D01*
X140290163Y-45000884D01*
X140419116Y-45129837D01*
X140520434Y-45281469D01*
X140569862Y-45400800D01*
X140590222Y-45449954D01*
X140625800Y-45628816D01*
X140625800Y-45811184D01*
X140603879Y-45921386D01*
X140590222Y-45990046D01*
X140520434Y-46158531D01*
X140419116Y-46310163D01*
X140290163Y-46439116D01*
X140138531Y-46540434D01*
X139982665Y-46604995D01*
X139970046Y-46610222D01*
X139791184Y-46645800D01*
X139608816Y-46645800D01*
X139429954Y-46610222D01*
X139417335Y-46604995D01*
X139261469Y-46540434D01*
X139109837Y-46439116D01*
X138980884Y-46310163D01*
X138879566Y-46158531D01*
X138809778Y-45990046D01*
X138796121Y-45921386D01*
X138774200Y-45811184D01*
X138774200Y-45628816D01*
X138809778Y-45449954D01*
X138830138Y-45400800D01*
X138879566Y-45281469D01*
X138980884Y-45129837D01*
X139109837Y-45000884D01*
X139261469Y-44899566D01*
X139429954Y-44829778D01*
X139608816Y-44794200D01*
X139791184Y-44794200D01*
X139970046Y-44829778D01*
G37*
G36*
X129810046Y-44829778D02*
G01*
X129978531Y-44899566D01*
X130130163Y-45000884D01*
X130259116Y-45129837D01*
X130360434Y-45281469D01*
X130409862Y-45400800D01*
X130430222Y-45449954D01*
X130465800Y-45628816D01*
X130465800Y-45811184D01*
X130443879Y-45921386D01*
X130430222Y-45990046D01*
X130360434Y-46158531D01*
X130259116Y-46310163D01*
X130130163Y-46439116D01*
X129978531Y-46540434D01*
X129822665Y-46604995D01*
X129810046Y-46610222D01*
X129631184Y-46645800D01*
X129448816Y-46645800D01*
X129269954Y-46610222D01*
X129257335Y-46604995D01*
X129101469Y-46540434D01*
X128949837Y-46439116D01*
X128820884Y-46310163D01*
X128719566Y-46158531D01*
X128649778Y-45990046D01*
X128636121Y-45921386D01*
X128614200Y-45811184D01*
X128614200Y-45628816D01*
X128649778Y-45449954D01*
X128670138Y-45400800D01*
X128719566Y-45281469D01*
X128820884Y-45129837D01*
X128949837Y-45000884D01*
X129101469Y-44899566D01*
X129269954Y-44829778D01*
X129448816Y-44794200D01*
X129631184Y-44794200D01*
X129810046Y-44829778D01*
G37*
G36*
X98067338Y-43535738D02*
G01*
X98240373Y-43607412D01*
X98396100Y-43711465D01*
X98528535Y-43843900D01*
X98632588Y-43999627D01*
X98704262Y-44172662D01*
X98740800Y-44356354D01*
X98740800Y-44543646D01*
X98704262Y-44727338D01*
X98632588Y-44900373D01*
X98528535Y-45056100D01*
X98396100Y-45188535D01*
X98240373Y-45292588D01*
X98067338Y-45364262D01*
X97883646Y-45400800D01*
X97696354Y-45400800D01*
X97512662Y-45364262D01*
X97339627Y-45292588D01*
X97183900Y-45188535D01*
X97051465Y-45056100D01*
X96947412Y-44900373D01*
X96875738Y-44727338D01*
X96839200Y-44543646D01*
X96839200Y-44356354D01*
X96875738Y-44172662D01*
X96947412Y-43999627D01*
X97051465Y-43843900D01*
X97183900Y-43711465D01*
X97339627Y-43607412D01*
X97512662Y-43535738D01*
X97696354Y-43499200D01*
X97883646Y-43499200D01*
X98067338Y-43535738D01*
G37*
G36*
X82827338Y-43535738D02*
G01*
X83000373Y-43607412D01*
X83156100Y-43711465D01*
X83288535Y-43843900D01*
X83392588Y-43999627D01*
X83464262Y-44172662D01*
X83500800Y-44356354D01*
X83500800Y-44543646D01*
X83464262Y-44727338D01*
X83392588Y-44900373D01*
X83288535Y-45056100D01*
X83156100Y-45188535D01*
X83000373Y-45292588D01*
X82827338Y-45364262D01*
X82643646Y-45400800D01*
X82456354Y-45400800D01*
X82272662Y-45364262D01*
X82099627Y-45292588D01*
X81943900Y-45188535D01*
X81811465Y-45056100D01*
X81707412Y-44900373D01*
X81635738Y-44727338D01*
X81599200Y-44543646D01*
X81599200Y-44356354D01*
X81635738Y-44172662D01*
X81707412Y-43999627D01*
X81811465Y-43843900D01*
X81943900Y-43711465D01*
X82099627Y-43607412D01*
X82272662Y-43535738D01*
X82456354Y-43499200D01*
X82643646Y-43499200D01*
X82827338Y-43535738D01*
G37*
G36*
X73897086Y-43668435D02*
G01*
X74045003Y-43729704D01*
X74178134Y-43818660D01*
X74291340Y-43931866D01*
X74380296Y-44064997D01*
X74441565Y-44212914D01*
X74472800Y-44369946D01*
X74472800Y-44530054D01*
X74441565Y-44687086D01*
X74380296Y-44835003D01*
X74291340Y-44968134D01*
X74178134Y-45081340D01*
X74045003Y-45170296D01*
X73897086Y-45231565D01*
X73740054Y-45262800D01*
X73579946Y-45262800D01*
X73422914Y-45231565D01*
X73274997Y-45170296D01*
X73141866Y-45081340D01*
X73028660Y-44968134D01*
X72939704Y-44835003D01*
X72878435Y-44687086D01*
X72847200Y-44530054D01*
X72847200Y-44369946D01*
X72878435Y-44212914D01*
X72939704Y-44064997D01*
X73028660Y-43931866D01*
X73141866Y-43818660D01*
X73274997Y-43729704D01*
X73422914Y-43668435D01*
X73579946Y-43637200D01*
X73740054Y-43637200D01*
X73897086Y-43668435D01*
G37*
G36*
X131152969Y-42049386D02*
G01*
X131366951Y-42138019D01*
X131559530Y-42266697D01*
X131723303Y-42430470D01*
X131851981Y-42623049D01*
X131940614Y-42837031D01*
X131985800Y-43064194D01*
X131985800Y-43295806D01*
X131940614Y-43522969D01*
X131851981Y-43736951D01*
X131723303Y-43929530D01*
X131559530Y-44093303D01*
X131366951Y-44221981D01*
X131152969Y-44310614D01*
X130925806Y-44355800D01*
X130694194Y-44355800D01*
X130467031Y-44310614D01*
X130253049Y-44221981D01*
X130060470Y-44093303D01*
X129896697Y-43929530D01*
X129768019Y-43736951D01*
X129679386Y-43522969D01*
X129634200Y-43295806D01*
X129634200Y-43064194D01*
X129679386Y-42837031D01*
X129768019Y-42623049D01*
X129896697Y-42430470D01*
X130060470Y-42266697D01*
X130253049Y-42138019D01*
X130467031Y-42049386D01*
X130694194Y-42004200D01*
X130925806Y-42004200D01*
X131152969Y-42049386D01*
G37*
G36*
X98067338Y-40995738D02*
G01*
X98240373Y-41067412D01*
X98396100Y-41171465D01*
X98528535Y-41303900D01*
X98632588Y-41459627D01*
X98704262Y-41632662D01*
X98740800Y-41816354D01*
X98740800Y-42003646D01*
X98704262Y-42187338D01*
X98632588Y-42360373D01*
X98528535Y-42516100D01*
X98396100Y-42648535D01*
X98240373Y-42752588D01*
X98067338Y-42824262D01*
X97883646Y-42860800D01*
X97696354Y-42860800D01*
X97512662Y-42824262D01*
X97339627Y-42752588D01*
X97183900Y-42648535D01*
X97051465Y-42516100D01*
X96947412Y-42360373D01*
X96875738Y-42187338D01*
X96839200Y-42003646D01*
X96839200Y-41816354D01*
X96875738Y-41632662D01*
X96947412Y-41459627D01*
X97051465Y-41303900D01*
X97183900Y-41171465D01*
X97339627Y-41067412D01*
X97512662Y-40995738D01*
X97696354Y-40959200D01*
X97883646Y-40959200D01*
X98067338Y-40995738D01*
G37*
G36*
X82827338Y-40995738D02*
G01*
X83000373Y-41067412D01*
X83156100Y-41171465D01*
X83288535Y-41303900D01*
X83392588Y-41459627D01*
X83464262Y-41632662D01*
X83500800Y-41816354D01*
X83500800Y-42003646D01*
X83464262Y-42187338D01*
X83392588Y-42360373D01*
X83288535Y-42516100D01*
X83156100Y-42648535D01*
X83000373Y-42752588D01*
X82827338Y-42824262D01*
X82643646Y-42860800D01*
X82456354Y-42860800D01*
X82272662Y-42824262D01*
X82099627Y-42752588D01*
X81943900Y-42648535D01*
X81811465Y-42516100D01*
X81707412Y-42360373D01*
X81635738Y-42187338D01*
X81599200Y-42003646D01*
X81599200Y-41816354D01*
X81635738Y-41632662D01*
X81707412Y-41459627D01*
X81811465Y-41303900D01*
X81943900Y-41171465D01*
X82099627Y-41067412D01*
X82272662Y-40995738D01*
X82456354Y-40959200D01*
X82643646Y-40959200D01*
X82827338Y-40995738D01*
G37*
G36*
X137502969Y-39509386D02*
G01*
X137716951Y-39598019D01*
X137909530Y-39726697D01*
X138073303Y-39890470D01*
X138201981Y-40083049D01*
X138290614Y-40297031D01*
X138335800Y-40524194D01*
X138335800Y-40755806D01*
X138290614Y-40982969D01*
X138201981Y-41196951D01*
X138073303Y-41389530D01*
X137909530Y-41553303D01*
X137716951Y-41681981D01*
X137502969Y-41770614D01*
X137275806Y-41815800D01*
X137044194Y-41815800D01*
X136817031Y-41770614D01*
X136603049Y-41681981D01*
X136410470Y-41553303D01*
X136246697Y-41389530D01*
X136118019Y-41196951D01*
X136029386Y-40982969D01*
X135984200Y-40755806D01*
X135984200Y-40524194D01*
X136029386Y-40297031D01*
X136118019Y-40083049D01*
X136246697Y-39890470D01*
X136410470Y-39726697D01*
X136603049Y-39598019D01*
X136817031Y-39509386D01*
X137044194Y-39464200D01*
X137275806Y-39464200D01*
X137502969Y-39509386D01*
G37*
G36*
X98067338Y-38455738D02*
G01*
X98240373Y-38527412D01*
X98396100Y-38631465D01*
X98528535Y-38763900D01*
X98632588Y-38919627D01*
X98704262Y-39092662D01*
X98740800Y-39276354D01*
X98740800Y-39463646D01*
X98704262Y-39647338D01*
X98632588Y-39820373D01*
X98528535Y-39976100D01*
X98396100Y-40108535D01*
X98240373Y-40212588D01*
X98067338Y-40284262D01*
X97883646Y-40320800D01*
X97696354Y-40320800D01*
X97512662Y-40284262D01*
X97339627Y-40212588D01*
X97183900Y-40108535D01*
X97051465Y-39976100D01*
X96947412Y-39820373D01*
X96875738Y-39647338D01*
X96839200Y-39463646D01*
X96839200Y-39276354D01*
X96875738Y-39092662D01*
X96947412Y-38919627D01*
X97051465Y-38763900D01*
X97183900Y-38631465D01*
X97339627Y-38527412D01*
X97512662Y-38455738D01*
X97696354Y-38419200D01*
X97883646Y-38419200D01*
X98067338Y-38455738D01*
G37*
G36*
X82827338Y-38455738D02*
G01*
X83000373Y-38527412D01*
X83156100Y-38631465D01*
X83288535Y-38763900D01*
X83392588Y-38919627D01*
X83464262Y-39092662D01*
X83500800Y-39276354D01*
X83500800Y-39463646D01*
X83464262Y-39647338D01*
X83392588Y-39820373D01*
X83288535Y-39976100D01*
X83156100Y-40108535D01*
X83000373Y-40212588D01*
X82827338Y-40284262D01*
X82643646Y-40320800D01*
X82456354Y-40320800D01*
X82272662Y-40284262D01*
X82099627Y-40212588D01*
X81943900Y-40108535D01*
X81811465Y-39976100D01*
X81707412Y-39820373D01*
X81635738Y-39647338D01*
X81599200Y-39463646D01*
X81599200Y-39276354D01*
X81635738Y-39092662D01*
X81707412Y-38919627D01*
X81811465Y-38763900D01*
X81943900Y-38631465D01*
X82099627Y-38527412D01*
X82272662Y-38455738D01*
X82456354Y-38419200D01*
X82643646Y-38419200D01*
X82827338Y-38455738D01*
G37*
M02*
