G04 #@! TF.GenerationSoftware,KiCad,Pcbnew,(5.1.5)-3*
G04 #@! TF.CreationDate,2020-05-07T09:23:51-07:00*
G04 #@! TF.ProjectId,Pcb,5063622e-6b69-4636-9164-5f7063625858,rev?*
G04 #@! TF.SameCoordinates,Original*
G04 #@! TF.FileFunction,Legend,Bot*
G04 #@! TF.FilePolarity,Positive*
%FSLAX46Y46*%
G04 Gerber Fmt 4.6, Leading zero omitted, Abs format (unit mm)*
G04 Created by KiCad (PCBNEW (5.1.5)-3) date 2020-05-07 09:23:51*
%MOMM*%
%LPD*%
G04 APERTURE LIST*
%ADD10C,0.120000*%
%ADD11C,0.200000*%
%ADD12C,0.127000*%
%ADD13C,0.150000*%
%ADD14C,0.015000*%
G04 APERTURE END LIST*
D10*
X121920000Y-74930000D02*
X119380000Y-74930000D01*
X119380000Y-74930000D02*
X119380000Y-80010000D01*
X119380000Y-80010000D02*
X121920000Y-80010000D01*
X121920000Y-80010000D02*
X121920000Y-74930000D01*
D11*
X80070000Y-74950000D02*
G75*
G03X80070000Y-74950000I-100000J0D01*
G01*
D12*
X81280000Y-78740000D02*
X99060000Y-78740000D01*
X99060000Y-78740000D02*
X99060000Y-35560000D01*
X99060000Y-35560000D02*
X81280000Y-35560000D01*
X81280000Y-35560000D02*
X81280000Y-78740000D01*
D13*
X118062380Y-77136666D02*
X118776666Y-77136666D01*
X118919523Y-77089047D01*
X119014761Y-76993809D01*
X119062380Y-76850952D01*
X119062380Y-76755714D01*
X119062380Y-78136666D02*
X119062380Y-77565238D01*
X119062380Y-77850952D02*
X118062380Y-77850952D01*
X118205238Y-77755714D01*
X118300476Y-77660476D01*
X118348095Y-77565238D01*
D14*
X86415000Y-80172333D02*
X85748333Y-80172333D01*
X86548333Y-80572333D02*
X86081666Y-79172333D01*
X85615000Y-80572333D01*
X84415000Y-80572333D02*
X85215000Y-80572333D01*
X84815000Y-80572333D02*
X84815000Y-79172333D01*
X84948333Y-79372333D01*
X85081666Y-79505666D01*
X85215000Y-79572333D01*
M02*
