M48
; DRILL file {KiCad (5.1.5)-3} date 5/7/2020 9:25:01 AM
; FORMAT={-:-/ absolute / inch / decimal}
; #@! TF.CreationDate,2020-05-07T09:25:01-07:00
; #@! TF.GenerationSoftware,Kicad,Pcbnew,(5.1.5)-3
; #@! TF.FileFunction,Plated,1,2,PTH
FMAT,2
INCH
T1C0.0300
T2C0.0354
T3C0.0579
%
G90
G05
T1
X2.45Y-2.05
X2.45Y-2.15
X2.45Y-2.25
X2.45Y-2.35
X2.45Y-2.45
X4.3Y-3.05
X4.4Y-3.05
X4.5Y-3.05
X4.75Y-3.0
X4.75Y-3.1
X2.9Y-1.75
X2.9Y-1.85
X2.9Y-1.95
X2.9Y-2.05
X2.9Y-2.15
X2.9Y-2.25
X2.9Y-2.35
X2.9Y-2.45
X2.9Y-2.55
X2.9Y-2.65
X2.9Y-2.75
T2
X3.25Y-1.55
X3.25Y-1.65
X3.25Y-1.75
X3.25Y-1.85
X3.25Y-1.95
X3.25Y-2.05
X3.25Y-2.15
X3.25Y-2.25
X3.25Y-2.35
X3.25Y-2.45
X3.25Y-2.55
X3.25Y-2.65
X3.25Y-2.75
X3.25Y-2.85
X3.25Y-2.95
X3.85Y-1.55
X3.85Y-1.65
X3.85Y-1.75
X3.85Y-1.85
X3.85Y-1.95
X3.85Y-2.05
X3.85Y-2.15
X3.85Y-2.25
X3.85Y-2.35
X3.85Y-2.45
X3.85Y-2.55
X3.85Y-2.65
X3.85Y-2.75
X3.85Y-2.85
X3.85Y-2.95
T3
X5.15Y-1.7
X5.4Y-1.6
X5.15Y-2.6
X5.4Y-2.5
T0
M30
