G04 #@! TF.GenerationSoftware,KiCad,Pcbnew,(5.1.5)-3*
G04 #@! TF.CreationDate,2020-05-07T09:23:51-07:00*
G04 #@! TF.ProjectId,Pcb,5063622e-6b69-4636-9164-5f7063625858,rev?*
G04 #@! TF.SameCoordinates,Original*
G04 #@! TF.FileFunction,Copper,L2,Bot*
G04 #@! TF.FilePolarity,Positive*
%FSLAX46Y46*%
G04 Gerber Fmt 4.6, Leading zero omitted, Abs format (unit mm)*
G04 Created by KiCad (PCBNEW (5.1.5)-3) date 2020-05-07 09:23:51*
%MOMM*%
%LPD*%
G04 APERTURE LIST*
%ADD10C,1.524000*%
%ADD11C,2.250000*%
%ADD12R,1.800000X1.800000*%
%ADD13C,1.800000*%
%ADD14C,0.254000*%
G04 APERTURE END LIST*
D10*
X114300000Y-77470000D03*
X111760000Y-77470000D03*
X109220000Y-77470000D03*
X120650000Y-76200000D03*
X120650000Y-78740000D03*
X73660000Y-44450000D03*
X73660000Y-46990000D03*
X73660000Y-49530000D03*
X73660000Y-52070000D03*
X73660000Y-54610000D03*
X73660000Y-57150000D03*
X73660000Y-59690000D03*
X73660000Y-62230000D03*
X73660000Y-64770000D03*
X73660000Y-67310000D03*
X73660000Y-69850000D03*
D11*
X130810000Y-43180000D03*
X137160000Y-40640000D03*
D10*
X62230000Y-52070000D03*
X62230000Y-54610000D03*
X62230000Y-57150000D03*
X62230000Y-59690000D03*
X62230000Y-62230000D03*
D12*
X82550000Y-74930000D03*
D13*
X82550000Y-72390000D03*
X82550000Y-69850000D03*
X82550000Y-67310000D03*
X82550000Y-64770000D03*
X82550000Y-62230000D03*
X82550000Y-59690000D03*
X82550000Y-57150000D03*
X82550000Y-54610000D03*
X82550000Y-52070000D03*
X82550000Y-49530000D03*
X82550000Y-46990000D03*
X82550000Y-44450000D03*
X82550000Y-41910000D03*
X82550000Y-39370000D03*
X97790000Y-39370000D03*
X97790000Y-41910000D03*
X97790000Y-44450000D03*
X97790000Y-46990000D03*
X97790000Y-49530000D03*
X97790000Y-52070000D03*
X97790000Y-54610000D03*
X97790000Y-57150000D03*
X97790000Y-59690000D03*
X97790000Y-62230000D03*
X97790000Y-64770000D03*
X97790000Y-67310000D03*
X97790000Y-69850000D03*
X97790000Y-72390000D03*
X97790000Y-74930000D03*
D11*
X137160000Y-63500000D03*
X130810000Y-66040000D03*
D14*
X73660000Y-44450000D02*
X67310000Y-50800000D01*
X67310000Y-54610000D02*
X62230000Y-59690000D01*
X67310000Y-50800000D02*
X67310000Y-54610000D01*
X94698434Y-67310000D02*
X97790000Y-67310000D01*
X84030424Y-77978010D02*
X94698434Y-67310000D01*
X84030424Y-77978010D02*
X77259576Y-77978010D01*
X77259576Y-77978010D02*
X65321566Y-66040000D01*
X65321566Y-66040000D02*
X63500000Y-66040000D01*
X63500000Y-66040000D02*
X59690000Y-62230000D01*
X59690000Y-62230000D02*
X59690000Y-60960000D01*
X59690000Y-60960000D02*
X60960000Y-59690000D01*
X60960000Y-59690000D02*
X62230000Y-59690000D01*
X73660000Y-54610000D02*
X76200000Y-52070000D01*
X76200000Y-45720000D02*
X82550000Y-39370000D01*
X76200000Y-52070000D02*
X76200000Y-45720000D01*
X81650001Y-42809999D02*
X82550000Y-41910000D01*
X76708010Y-47751990D02*
X81650001Y-42809999D01*
X76708010Y-54101990D02*
X76708010Y-47751990D01*
X73660000Y-57150000D02*
X76708010Y-54101990D01*
X81650001Y-45349999D02*
X82550000Y-44450000D01*
X77216020Y-49783980D02*
X81650001Y-45349999D01*
X77216020Y-56133980D02*
X77216020Y-49783980D01*
X73660000Y-59690000D02*
X77216020Y-56133980D01*
X77724030Y-51815970D02*
X81650001Y-47889999D01*
X81650001Y-47889999D02*
X82550000Y-46990000D01*
X77724030Y-58165970D02*
X77724030Y-51815970D01*
X73660000Y-62230000D02*
X77724030Y-58165970D01*
X81650001Y-50429999D02*
X82550000Y-49530000D01*
X78232040Y-60197960D02*
X78232040Y-53847960D01*
X78232040Y-53847960D02*
X81650001Y-50429999D01*
X73660000Y-64770000D02*
X78232040Y-60197960D01*
X124460000Y-66040000D02*
X124460000Y-74930000D01*
X124460000Y-74930000D02*
X120650000Y-78740000D01*
X137160000Y-63500000D02*
X127000000Y-63500000D01*
X127000000Y-63500000D02*
X124460000Y-66040000D01*
X73660000Y-49530000D02*
X68580000Y-54610000D01*
X68580000Y-55880000D02*
X62230000Y-62230000D01*
X68580000Y-54610000D02*
X68580000Y-55880000D01*
X85090000Y-76200000D02*
X85090000Y-69850000D01*
X62230000Y-62230000D02*
X77470000Y-77470000D01*
X85090000Y-69850000D02*
X82550000Y-67310000D01*
X83820000Y-77470000D02*
X85090000Y-76200000D01*
X77470000Y-77470000D02*
X83820000Y-77470000D01*
X97790000Y-72390000D02*
X105410000Y-80010000D01*
X119380000Y-80010000D02*
X120650000Y-78740000D01*
X105410000Y-80010000D02*
X119380000Y-80010000D01*
M02*
