G04 #@! TF.GenerationSoftware,KiCad,Pcbnew,(5.1.5)-3*
G04 #@! TF.CreationDate,2020-05-07T09:23:51-07:00*
G04 #@! TF.ProjectId,Pcb,5063622e-6b69-4636-9164-5f7063625858,rev?*
G04 #@! TF.SameCoordinates,Original*
G04 #@! TF.FileFunction,Legend,Top*
G04 #@! TF.FilePolarity,Positive*
%FSLAX46Y46*%
G04 Gerber Fmt 4.6, Leading zero omitted, Abs format (unit mm)*
G04 Created by KiCad (PCBNEW (5.1.5)-3) date 2020-05-07 09:23:51*
%MOMM*%
%LPD*%
G04 APERTURE LIST*
%ADD10C,0.300000*%
%ADD11C,0.120000*%
%ADD12C,0.150000*%
G04 APERTURE END LIST*
D10*
X31258571Y-34540000D02*
X31972857Y-34540000D01*
X31115714Y-34968571D02*
X31615714Y-33468571D01*
X32115714Y-34968571D01*
X32830000Y-34968571D02*
X32687142Y-34897142D01*
X32615714Y-34754285D01*
X32615714Y-33468571D01*
X34044285Y-34968571D02*
X34044285Y-34182857D01*
X33972857Y-34040000D01*
X33830000Y-33968571D01*
X33544285Y-33968571D01*
X33401428Y-34040000D01*
X34044285Y-34897142D02*
X33901428Y-34968571D01*
X33544285Y-34968571D01*
X33401428Y-34897142D01*
X33330000Y-34754285D01*
X33330000Y-34611428D01*
X33401428Y-34468571D01*
X33544285Y-34397142D01*
X33901428Y-34397142D01*
X34044285Y-34325714D01*
X34758571Y-33968571D02*
X34758571Y-34968571D01*
X34758571Y-34111428D02*
X34830000Y-34040000D01*
X34972857Y-33968571D01*
X35187142Y-33968571D01*
X35330000Y-34040000D01*
X35401428Y-34182857D01*
X35401428Y-34968571D01*
X37115714Y-33468571D02*
X37472857Y-34968571D01*
X37758571Y-33897142D01*
X38044285Y-34968571D01*
X38401428Y-33468571D01*
X39615714Y-34968571D02*
X39615714Y-34182857D01*
X39544285Y-34040000D01*
X39401428Y-33968571D01*
X39115714Y-33968571D01*
X38972857Y-34040000D01*
X39615714Y-34897142D02*
X39472857Y-34968571D01*
X39115714Y-34968571D01*
X38972857Y-34897142D01*
X38901428Y-34754285D01*
X38901428Y-34611428D01*
X38972857Y-34468571D01*
X39115714Y-34397142D01*
X39472857Y-34397142D01*
X39615714Y-34325714D01*
X40330000Y-33968571D02*
X40330000Y-34968571D01*
X40330000Y-34111428D02*
X40401428Y-34040000D01*
X40544285Y-33968571D01*
X40758571Y-33968571D01*
X40901428Y-34040000D01*
X40972857Y-34182857D01*
X40972857Y-34968571D01*
X42330000Y-33968571D02*
X42330000Y-35182857D01*
X42258571Y-35325714D01*
X42187142Y-35397142D01*
X42044285Y-35468571D01*
X41830000Y-35468571D01*
X41687142Y-35397142D01*
X42330000Y-34897142D02*
X42187142Y-34968571D01*
X41901428Y-34968571D01*
X41758571Y-34897142D01*
X41687142Y-34825714D01*
X41615714Y-34682857D01*
X41615714Y-34254285D01*
X41687142Y-34111428D01*
X41758571Y-34040000D01*
X41901428Y-33968571D01*
X42187142Y-33968571D01*
X42330000Y-34040000D01*
D11*
X106680000Y-80010000D02*
X106680000Y-78740000D01*
X116840000Y-80010000D02*
X106680000Y-80010000D01*
X116840000Y-74930000D02*
X116840000Y-80010000D01*
X106680000Y-74930000D02*
X116840000Y-74930000D01*
X106680000Y-78740000D02*
X106680000Y-74930000D01*
X72390000Y-40640000D02*
X72390000Y-73660000D01*
X72390000Y-73660000D02*
X116840000Y-73660000D01*
X116840000Y-73660000D02*
X116840000Y-40640000D01*
X116840000Y-40640000D02*
X72390000Y-40640000D01*
X78740000Y-71120000D02*
X113030000Y-71120000D01*
X113030000Y-71120000D02*
X113030000Y-44450000D01*
X113030000Y-44450000D02*
X113030000Y-43180000D01*
X113030000Y-43180000D02*
X78740000Y-43180000D01*
X78740000Y-43180000D02*
X78740000Y-71120000D01*
X64770000Y-43180000D02*
X64770000Y-69850000D01*
X31750000Y-43180000D02*
X64770000Y-43180000D01*
X31750000Y-69850000D02*
X31750000Y-43180000D01*
X64770000Y-69850000D02*
X31750000Y-69850000D01*
D12*
X107584761Y-78803333D02*
X107632380Y-78660476D01*
X107632380Y-78422380D01*
X107584761Y-78327142D01*
X107537142Y-78279523D01*
X107441904Y-78231904D01*
X107346666Y-78231904D01*
X107251428Y-78279523D01*
X107203809Y-78327142D01*
X107156190Y-78422380D01*
X107108571Y-78612857D01*
X107060952Y-78708095D01*
X107013333Y-78755714D01*
X106918095Y-78803333D01*
X106822857Y-78803333D01*
X106727619Y-78755714D01*
X106680000Y-78708095D01*
X106632380Y-78612857D01*
X106632380Y-78374761D01*
X106680000Y-78231904D01*
X106632380Y-77898571D02*
X107632380Y-77660476D01*
X106918095Y-77470000D01*
X107632380Y-77279523D01*
X106632380Y-77041428D01*
X107632380Y-76136666D02*
X107632380Y-76708095D01*
X107632380Y-76422380D02*
X106632380Y-76422380D01*
X106775238Y-76517619D01*
X106870476Y-76612857D01*
X106918095Y-76708095D01*
X75485714Y-42576666D02*
X75961904Y-42576666D01*
X75390476Y-42862380D02*
X75723809Y-41862380D01*
X76057142Y-42862380D01*
X76342857Y-41957619D02*
X76390476Y-41910000D01*
X76485714Y-41862380D01*
X76723809Y-41862380D01*
X76819047Y-41910000D01*
X76866666Y-41957619D01*
X76914285Y-42052857D01*
X76914285Y-42148095D01*
X76866666Y-42290952D01*
X76295238Y-42862380D01*
X76914285Y-42862380D01*
X63460476Y-68802380D02*
X63793809Y-69802380D01*
X64127142Y-68802380D01*
X65031904Y-69802380D02*
X64698571Y-69326190D01*
X64460476Y-69802380D02*
X64460476Y-68802380D01*
X64841428Y-68802380D01*
X64936666Y-68850000D01*
X64984285Y-68897619D01*
X65031904Y-68992857D01*
X65031904Y-69135714D01*
X64984285Y-69230952D01*
X64936666Y-69278571D01*
X64841428Y-69326190D01*
X64460476Y-69326190D01*
X65984285Y-69802380D02*
X65412857Y-69802380D01*
X65698571Y-69802380D02*
X65698571Y-68802380D01*
X65603333Y-68945238D01*
X65508095Y-69040476D01*
X65412857Y-69088095D01*
M02*
