M48
INCH,TZ
T1C0.0157
T2C0.0300
T3C0.0394
T4C0.0579
%
G90
G05
T1
X46080Y-25300
X46800Y-35620
X46880Y-30980
X47660Y-36740
X51000Y-31480
X51252Y-30748
X51860Y-31660
X53820Y-35820
X54260Y-29780
X54600Y-27900
X54600Y-32700
X54980Y-29780
X55520Y-24720
X55560Y-26740
X55560Y-27134
X55600Y-23540
X55900Y-27460
X56520Y-28000
X56900Y-26100
X60360Y-34580
X60400Y-26100
X61060Y-27926
X61060Y-28320
X61065Y-27528
X61700Y-31400
X61800Y-27900
X61840Y-35750
X61840Y-38950
T2
X48000Y-28000
X48000Y-29000
X48000Y-30000
X48000Y-31000
X48000Y-32000
X50000Y-25000
X50000Y-26000
X50000Y-27000
X50000Y-28000
X50000Y-29000
X50000Y-30000
X50000Y-31000
X50000Y-32000
X50000Y-33000
X50000Y-34000
X50000Y-35000
T3
X36550Y-25550
X37550Y-25550
X38550Y-25550
X39550Y-25550
X40550Y-25550
X41550Y-25550
X42550Y-25550
X43550Y-25550
X59490Y-36750
X59490Y-37750
X49167Y-39000
X50167Y-39000
X51167Y-39000
T4
X69500Y-33280
X72000Y-32280
X69500Y-25700
X72000Y-24700
T0
M30
