G04 #@! TF.GenerationSoftware,KiCad,Pcbnew,(5.1.6)-1*
G04 #@! TF.CreationDate,2020-11-30T20:52:42-08:00*
G04 #@! TF.ProjectId,pcb2,70636232-2e6b-4696-9361-645f70636258,rev?*
G04 #@! TF.SameCoordinates,Original*
G04 #@! TF.FileFunction,Legend,Bot*
G04 #@! TF.FilePolarity,Positive*
%FSLAX46Y46*%
G04 Gerber Fmt 4.6, Leading zero omitted, Abs format (unit mm)*
G04 Created by KiCad (PCBNEW (5.1.6)-1) date 2020-11-30 20:52:42*
%MOMM*%
%LPD*%
G01*
G04 APERTURE LIST*
%ADD10C,0.120000*%
%ADD11C,0.150000*%
G04 APERTURE END LIST*
D10*
G04 #@! TO.C,C14*
X151205458Y-68804860D02*
X150688302Y-68804860D01*
X151205458Y-67384860D02*
X150688302Y-67384860D01*
G04 #@! TO.C,C8*
X143870178Y-68807400D02*
X143353022Y-68807400D01*
X143870178Y-67387400D02*
X143353022Y-67387400D01*
G04 #@! TO.C,A1*
X109347000Y-67437000D02*
X94107000Y-67437000D01*
X111887000Y-56007000D02*
X111887000Y-64897000D01*
X91567000Y-56007000D02*
X91567000Y-64897000D01*
X94107000Y-53467000D02*
X109347000Y-53467000D01*
X94107000Y-53467000D02*
G75*
G03*
X91567000Y-56007000I0J-2540000D01*
G01*
X111887000Y-56007000D02*
G75*
G03*
X109347000Y-53467000I-2540000J0D01*
G01*
X109347000Y-67437000D02*
G75*
G03*
X111887000Y-64897000I0J2540000D01*
G01*
X91567000Y-64897000D02*
G75*
G03*
X94107000Y-67437000I2540000J0D01*
G01*
G04 #@! TO.C,C1*
X156132600Y-92656922D02*
X156132600Y-93174078D01*
X154712600Y-92656922D02*
X154712600Y-93174078D01*
G04 #@! TO.C,C2*
X142190400Y-57436278D02*
X142190400Y-56919122D01*
X143610400Y-57436278D02*
X143610400Y-56919122D01*
G04 #@! TO.C,C3*
X156132600Y-96700078D02*
X156132600Y-96182922D01*
X154712600Y-96700078D02*
X154712600Y-96182922D01*
G04 #@! TO.C,C4*
X142190400Y-60475122D02*
X142190400Y-60992278D01*
X143610400Y-60475122D02*
X143610400Y-60992278D01*
G04 #@! TO.C,C5*
X142517122Y-98502400D02*
X143034278Y-98502400D01*
X142517122Y-99922400D02*
X143034278Y-99922400D01*
G04 #@! TO.C,C6*
X147026700Y-96604322D02*
X147026700Y-97121478D01*
X145606700Y-96604322D02*
X145606700Y-97121478D01*
G04 #@! TO.C,C7*
X154099522Y-68807400D02*
X154616678Y-68807400D01*
X154099522Y-67387400D02*
X154616678Y-67387400D01*
G04 #@! TO.C,C9*
X141019600Y-72140578D02*
X141019600Y-71623422D01*
X139599600Y-72140578D02*
X139599600Y-71623422D01*
G04 #@! TO.C,C10*
X139498000Y-81861922D02*
X139498000Y-82379078D01*
X140918000Y-81861922D02*
X140918000Y-82379078D01*
G04 #@! TO.C,C11*
X153997922Y-86816000D02*
X154515078Y-86816000D01*
X153997922Y-85396000D02*
X154515078Y-85396000D01*
G04 #@! TO.C,C12*
X158823922Y-80824000D02*
X159341078Y-80824000D01*
X158823922Y-82244000D02*
X159341078Y-82244000D01*
G04 #@! TO.C,C13*
X158823922Y-73100000D02*
X159341078Y-73100000D01*
X158823922Y-71680000D02*
X159341078Y-71680000D01*
G04 #@! TO.C,D1*
X126488900Y-96250000D02*
X126488900Y-94250000D01*
X126488900Y-94250000D02*
X130388900Y-94250000D01*
X126488900Y-96250000D02*
X130388900Y-96250000D01*
G04 #@! TO.C,D2*
X161220100Y-99893000D02*
X158535100Y-99893000D01*
X161220100Y-97973000D02*
X161220100Y-99893000D01*
X158535100Y-97973000D02*
X161220100Y-97973000D01*
G04 #@! TO.C,D3*
X125627400Y-94432000D02*
X122942400Y-94432000D01*
X122942400Y-94432000D02*
X122942400Y-92512000D01*
X122942400Y-92512000D02*
X125627400Y-92512000D01*
G04 #@! TO.C,D4*
X93862400Y-63260800D02*
X93862400Y-59360800D01*
X91862400Y-63260800D02*
X91862400Y-59360800D01*
X93862400Y-63260800D02*
X91862400Y-63260800D01*
G04 #@! TO.C,F1*
X129344964Y-93747000D02*
X128140836Y-93747000D01*
X129344964Y-91927000D02*
X128140836Y-91927000D01*
G04 #@! TO.C,JP2*
X149774600Y-97215000D02*
X151104600Y-97215000D01*
X149774600Y-95885000D02*
X149774600Y-97215000D01*
X149774600Y-94615000D02*
X152434600Y-94615000D01*
X152434600Y-94615000D02*
X152434600Y-92015000D01*
X149774600Y-94615000D02*
X149774600Y-92015000D01*
X149774600Y-92015000D02*
X152434600Y-92015000D01*
G04 #@! TO.C,L1*
X139605278Y-99922400D02*
X139088122Y-99922400D01*
X139605278Y-98502400D02*
X139088122Y-98502400D01*
G04 #@! TO.C,R1*
X124368822Y-96150500D02*
X124885978Y-96150500D01*
X124368822Y-94730500D02*
X124885978Y-94730500D01*
G04 #@! TO.C,R2*
X164514600Y-92626922D02*
X164514600Y-93144078D01*
X163094600Y-92626922D02*
X163094600Y-93144078D01*
G04 #@! TO.C,R3*
X163094600Y-96700078D02*
X163094600Y-96182922D01*
X164514600Y-96700078D02*
X164514600Y-96182922D01*
G04 #@! TO.C,R4*
X143034278Y-91794400D02*
X142517122Y-91794400D01*
X143034278Y-90374400D02*
X142517122Y-90374400D01*
G04 #@! TO.C,R5*
X139605278Y-90374400D02*
X139088122Y-90374400D01*
X139605278Y-91794400D02*
X139088122Y-91794400D01*
G04 #@! TO.C,R6*
X147014000Y-67647078D02*
X147014000Y-67129922D01*
X145594000Y-67647078D02*
X145594000Y-67129922D01*
G04 #@! TO.C,R7*
X147554880Y-67647078D02*
X147554880Y-67129922D01*
X148974880Y-67647078D02*
X148974880Y-67129922D01*
G04 #@! TO.C,R8*
X166318000Y-71808078D02*
X166318000Y-71290922D01*
X164898000Y-71808078D02*
X164898000Y-71290922D01*
G04 #@! TO.C,R9*
X144218922Y-86816000D02*
X144736078Y-86816000D01*
X144218922Y-85396000D02*
X144736078Y-85396000D01*
G04 #@! TO.C,R10*
X134621200Y-95328478D02*
X134621200Y-94811322D01*
X136041200Y-95328478D02*
X136041200Y-94811322D01*
G04 #@! TO.C,SW2*
X123555401Y-97731001D02*
X123555401Y-99061001D01*
X124885401Y-97731001D02*
X123555401Y-97731001D01*
X126155401Y-97731001D02*
X126155401Y-100391001D01*
X126155401Y-100391001D02*
X131295401Y-100391001D01*
X126155401Y-97731001D02*
X131295401Y-97731001D01*
X131295401Y-97731001D02*
X131295401Y-100391001D01*
G04 #@! TO.C,SW4*
X161059200Y-69572800D02*
X160569200Y-69082800D01*
X163959200Y-69572800D02*
X161059200Y-69572800D01*
X163959200Y-69572800D02*
X164449200Y-69082800D01*
X163959200Y-64132800D02*
X161059200Y-64132800D01*
X163959200Y-64132800D02*
X164449200Y-64622800D01*
X159789200Y-67892800D02*
X159789200Y-65812800D01*
X161059200Y-64132800D02*
X160569200Y-64622800D01*
X165229200Y-67892800D02*
X165229200Y-65812800D01*
G04 #@! TO.C,U1*
X145404400Y-62287200D02*
X151414400Y-62287200D01*
X147654400Y-55467200D02*
X151414400Y-55467200D01*
X151414400Y-62287200D02*
X151414400Y-61027200D01*
X151414400Y-55467200D02*
X151414400Y-56727200D01*
G04 #@! TO.C,U2*
X161162600Y-93799000D02*
X161162600Y-96249000D01*
X157942600Y-95599000D02*
X157942600Y-93799000D01*
G04 #@! TO.C,U3*
X140838700Y-96702400D02*
X137913700Y-96702400D01*
X140838700Y-96702400D02*
X142338700Y-96702400D01*
X140838700Y-93482400D02*
X139338700Y-93482400D01*
X140838700Y-93482400D02*
X142338700Y-93482400D01*
D11*
G04 #@! TO.C,U4*
X144752000Y-71787000D02*
X144752000Y-70512000D01*
X144177000Y-82137000D02*
X144177000Y-81462000D01*
X154527000Y-82137000D02*
X154527000Y-81462000D01*
X154527000Y-71787000D02*
X154527000Y-72462000D01*
X144177000Y-71787000D02*
X144177000Y-72462000D01*
X154527000Y-71787000D02*
X153852000Y-71787000D01*
X154527000Y-82137000D02*
X153852000Y-82137000D01*
X144177000Y-82137000D02*
X144852000Y-82137000D01*
X144177000Y-71787000D02*
X144752000Y-71787000D01*
D10*
G04 #@! TO.C,Y1*
X157354000Y-78962000D02*
X157354000Y-74962000D01*
X160654000Y-78962000D02*
X157354000Y-78962000D01*
G04 #@! TO.C,C14*
D11*
X151589737Y-66802002D02*
X151637356Y-66849621D01*
X151780213Y-66897240D01*
X151875451Y-66897240D01*
X152018308Y-66849621D01*
X152113546Y-66754383D01*
X152161165Y-66659145D01*
X152208784Y-66468669D01*
X152208784Y-66325812D01*
X152161165Y-66135336D01*
X152113546Y-66040098D01*
X152018308Y-65944860D01*
X151875451Y-65897240D01*
X151780213Y-65897240D01*
X151637356Y-65944860D01*
X151589737Y-65992479D01*
X150637356Y-66897240D02*
X151208784Y-66897240D01*
X150923070Y-66897240D02*
X150923070Y-65897240D01*
X151018308Y-66040098D01*
X151113546Y-66135336D01*
X151208784Y-66182955D01*
X149780213Y-66230574D02*
X149780213Y-66897240D01*
X150018308Y-65849621D02*
X150256403Y-66563907D01*
X149637356Y-66563907D01*
G04 #@! TO.C,C8*
X143778266Y-66930542D02*
X143825885Y-66978161D01*
X143968742Y-67025780D01*
X144063980Y-67025780D01*
X144206838Y-66978161D01*
X144302076Y-66882923D01*
X144349695Y-66787685D01*
X144397314Y-66597209D01*
X144397314Y-66454352D01*
X144349695Y-66263876D01*
X144302076Y-66168638D01*
X144206838Y-66073400D01*
X144063980Y-66025780D01*
X143968742Y-66025780D01*
X143825885Y-66073400D01*
X143778266Y-66121019D01*
X143206838Y-66454352D02*
X143302076Y-66406733D01*
X143349695Y-66359114D01*
X143397314Y-66263876D01*
X143397314Y-66216257D01*
X143349695Y-66121019D01*
X143302076Y-66073400D01*
X143206838Y-66025780D01*
X143016361Y-66025780D01*
X142921123Y-66073400D01*
X142873504Y-66121019D01*
X142825885Y-66216257D01*
X142825885Y-66263876D01*
X142873504Y-66359114D01*
X142921123Y-66406733D01*
X143016361Y-66454352D01*
X143206838Y-66454352D01*
X143302076Y-66501971D01*
X143349695Y-66549590D01*
X143397314Y-66644828D01*
X143397314Y-66835304D01*
X143349695Y-66930542D01*
X143302076Y-66978161D01*
X143206838Y-67025780D01*
X143016361Y-67025780D01*
X142921123Y-66978161D01*
X142873504Y-66930542D01*
X142825885Y-66835304D01*
X142825885Y-66644828D01*
X142873504Y-66549590D01*
X142921123Y-66501971D01*
X143016361Y-66454352D01*
G04 #@! TO.C,A1*
X112601285Y-54133666D02*
X112125095Y-54133666D01*
X112696523Y-54419380D02*
X112363190Y-53419380D01*
X112029857Y-54419380D01*
X111172714Y-54419380D02*
X111744142Y-54419380D01*
X111458428Y-54419380D02*
X111458428Y-53419380D01*
X111553666Y-53562238D01*
X111648904Y-53657476D01*
X111744142Y-53705095D01*
G04 #@! TO.C,C1*
X154129742Y-92748833D02*
X154177361Y-92701214D01*
X154224980Y-92558357D01*
X154224980Y-92463119D01*
X154177361Y-92320261D01*
X154082123Y-92225023D01*
X153986885Y-92177404D01*
X153796409Y-92129785D01*
X153653552Y-92129785D01*
X153463076Y-92177404D01*
X153367838Y-92225023D01*
X153272600Y-92320261D01*
X153224980Y-92463119D01*
X153224980Y-92558357D01*
X153272600Y-92701214D01*
X153320219Y-92748833D01*
X154224980Y-93701214D02*
X154224980Y-93129785D01*
X154224980Y-93415500D02*
X153224980Y-93415500D01*
X153367838Y-93320261D01*
X153463076Y-93225023D01*
X153510695Y-93129785D01*
G04 #@! TO.C,C2*
X141479542Y-56932533D02*
X141527161Y-56884914D01*
X141574780Y-56742057D01*
X141574780Y-56646819D01*
X141527161Y-56503961D01*
X141431923Y-56408723D01*
X141336685Y-56361104D01*
X141146209Y-56313485D01*
X141003352Y-56313485D01*
X140812876Y-56361104D01*
X140717638Y-56408723D01*
X140622400Y-56503961D01*
X140574780Y-56646819D01*
X140574780Y-56742057D01*
X140622400Y-56884914D01*
X140670019Y-56932533D01*
X140670019Y-57313485D02*
X140622400Y-57361104D01*
X140574780Y-57456342D01*
X140574780Y-57694438D01*
X140622400Y-57789676D01*
X140670019Y-57837295D01*
X140765257Y-57884914D01*
X140860495Y-57884914D01*
X141003352Y-57837295D01*
X141574780Y-57265866D01*
X141574780Y-57884914D01*
G04 #@! TO.C,C3*
X154128742Y-96274833D02*
X154176361Y-96227214D01*
X154223980Y-96084357D01*
X154223980Y-95989119D01*
X154176361Y-95846261D01*
X154081123Y-95751023D01*
X153985885Y-95703404D01*
X153795409Y-95655785D01*
X153652552Y-95655785D01*
X153462076Y-95703404D01*
X153366838Y-95751023D01*
X153271600Y-95846261D01*
X153223980Y-95989119D01*
X153223980Y-96084357D01*
X153271600Y-96227214D01*
X153319219Y-96274833D01*
X153223980Y-96608166D02*
X153223980Y-97227214D01*
X153604933Y-96893880D01*
X153604933Y-97036738D01*
X153652552Y-97131976D01*
X153700171Y-97179595D01*
X153795409Y-97227214D01*
X154033504Y-97227214D01*
X154128742Y-97179595D01*
X154176361Y-97131976D01*
X154223980Y-97036738D01*
X154223980Y-96751023D01*
X154176361Y-96655785D01*
X154128742Y-96608166D01*
G04 #@! TO.C,C4*
X141607542Y-60567033D02*
X141655161Y-60519414D01*
X141702780Y-60376557D01*
X141702780Y-60281319D01*
X141655161Y-60138461D01*
X141559923Y-60043223D01*
X141464685Y-59995604D01*
X141274209Y-59947985D01*
X141131352Y-59947985D01*
X140940876Y-59995604D01*
X140845638Y-60043223D01*
X140750400Y-60138461D01*
X140702780Y-60281319D01*
X140702780Y-60376557D01*
X140750400Y-60519414D01*
X140798019Y-60567033D01*
X141036114Y-61424176D02*
X141702780Y-61424176D01*
X140655161Y-61186080D02*
X141369447Y-60947985D01*
X141369447Y-61567033D01*
G04 #@! TO.C,C5*
X142942366Y-101219542D02*
X142989985Y-101267161D01*
X143132842Y-101314780D01*
X143228080Y-101314780D01*
X143370938Y-101267161D01*
X143466176Y-101171923D01*
X143513795Y-101076685D01*
X143561414Y-100886209D01*
X143561414Y-100743352D01*
X143513795Y-100552876D01*
X143466176Y-100457638D01*
X143370938Y-100362400D01*
X143228080Y-100314780D01*
X143132842Y-100314780D01*
X142989985Y-100362400D01*
X142942366Y-100410019D01*
X142037604Y-100314780D02*
X142513795Y-100314780D01*
X142561414Y-100790971D01*
X142513795Y-100743352D01*
X142418557Y-100695733D01*
X142180461Y-100695733D01*
X142085223Y-100743352D01*
X142037604Y-100790971D01*
X141989985Y-100886209D01*
X141989985Y-101124304D01*
X142037604Y-101219542D01*
X142085223Y-101267161D01*
X142180461Y-101314780D01*
X142418557Y-101314780D01*
X142513795Y-101267161D01*
X142561414Y-101219542D01*
G04 #@! TO.C,C6*
X148324842Y-96696233D02*
X148372461Y-96648614D01*
X148420080Y-96505757D01*
X148420080Y-96410519D01*
X148372461Y-96267661D01*
X148277223Y-96172423D01*
X148181985Y-96124804D01*
X147991509Y-96077185D01*
X147848652Y-96077185D01*
X147658176Y-96124804D01*
X147562938Y-96172423D01*
X147467700Y-96267661D01*
X147420080Y-96410519D01*
X147420080Y-96505757D01*
X147467700Y-96648614D01*
X147515319Y-96696233D01*
X147420080Y-97553376D02*
X147420080Y-97362900D01*
X147467700Y-97267661D01*
X147515319Y-97220042D01*
X147658176Y-97124804D01*
X147848652Y-97077185D01*
X148229604Y-97077185D01*
X148324842Y-97124804D01*
X148372461Y-97172423D01*
X148420080Y-97267661D01*
X148420080Y-97458138D01*
X148372461Y-97553376D01*
X148324842Y-97600995D01*
X148229604Y-97648614D01*
X147991509Y-97648614D01*
X147896271Y-97600995D01*
X147848652Y-97553376D01*
X147801033Y-97458138D01*
X147801033Y-97267661D01*
X147848652Y-97172423D01*
X147896271Y-97124804D01*
X147991509Y-97077185D01*
G04 #@! TO.C,C7*
X154524766Y-66930542D02*
X154572385Y-66978161D01*
X154715242Y-67025780D01*
X154810480Y-67025780D01*
X154953338Y-66978161D01*
X155048576Y-66882923D01*
X155096195Y-66787685D01*
X155143814Y-66597209D01*
X155143814Y-66454352D01*
X155096195Y-66263876D01*
X155048576Y-66168638D01*
X154953338Y-66073400D01*
X154810480Y-66025780D01*
X154715242Y-66025780D01*
X154572385Y-66073400D01*
X154524766Y-66121019D01*
X154191433Y-66025780D02*
X153524766Y-66025780D01*
X153953338Y-67025780D01*
G04 #@! TO.C,C9*
X139041142Y-71715333D02*
X139088761Y-71667714D01*
X139136380Y-71524857D01*
X139136380Y-71429619D01*
X139088761Y-71286761D01*
X138993523Y-71191523D01*
X138898285Y-71143904D01*
X138707809Y-71096285D01*
X138564952Y-71096285D01*
X138374476Y-71143904D01*
X138279238Y-71191523D01*
X138184000Y-71286761D01*
X138136380Y-71429619D01*
X138136380Y-71524857D01*
X138184000Y-71667714D01*
X138231619Y-71715333D01*
X139136380Y-72191523D02*
X139136380Y-72382000D01*
X139088761Y-72477238D01*
X139041142Y-72524857D01*
X138898285Y-72620095D01*
X138707809Y-72667714D01*
X138326857Y-72667714D01*
X138231619Y-72620095D01*
X138184000Y-72572476D01*
X138136380Y-72477238D01*
X138136380Y-72286761D01*
X138184000Y-72191523D01*
X138231619Y-72143904D01*
X138326857Y-72096285D01*
X138564952Y-72096285D01*
X138660190Y-72143904D01*
X138707809Y-72191523D01*
X138755428Y-72286761D01*
X138755428Y-72477238D01*
X138707809Y-72572476D01*
X138660190Y-72620095D01*
X138564952Y-72667714D01*
G04 #@! TO.C,C10*
X138915142Y-81477642D02*
X138962761Y-81430023D01*
X139010380Y-81287166D01*
X139010380Y-81191928D01*
X138962761Y-81049071D01*
X138867523Y-80953833D01*
X138772285Y-80906214D01*
X138581809Y-80858595D01*
X138438952Y-80858595D01*
X138248476Y-80906214D01*
X138153238Y-80953833D01*
X138058000Y-81049071D01*
X138010380Y-81191928D01*
X138010380Y-81287166D01*
X138058000Y-81430023D01*
X138105619Y-81477642D01*
X139010380Y-82430023D02*
X139010380Y-81858595D01*
X139010380Y-82144309D02*
X138010380Y-82144309D01*
X138153238Y-82049071D01*
X138248476Y-81953833D01*
X138296095Y-81858595D01*
X138010380Y-83049071D02*
X138010380Y-83144309D01*
X138058000Y-83239547D01*
X138105619Y-83287166D01*
X138200857Y-83334785D01*
X138391333Y-83382404D01*
X138629428Y-83382404D01*
X138819904Y-83334785D01*
X138915142Y-83287166D01*
X138962761Y-83239547D01*
X139010380Y-83144309D01*
X139010380Y-83049071D01*
X138962761Y-82953833D01*
X138915142Y-82906214D01*
X138819904Y-82858595D01*
X138629428Y-82810976D01*
X138391333Y-82810976D01*
X138200857Y-82858595D01*
X138105619Y-82906214D01*
X138058000Y-82953833D01*
X138010380Y-83049071D01*
G04 #@! TO.C,C11*
X154899357Y-88113142D02*
X154946976Y-88160761D01*
X155089833Y-88208380D01*
X155185071Y-88208380D01*
X155327928Y-88160761D01*
X155423166Y-88065523D01*
X155470785Y-87970285D01*
X155518404Y-87779809D01*
X155518404Y-87636952D01*
X155470785Y-87446476D01*
X155423166Y-87351238D01*
X155327928Y-87256000D01*
X155185071Y-87208380D01*
X155089833Y-87208380D01*
X154946976Y-87256000D01*
X154899357Y-87303619D01*
X153946976Y-88208380D02*
X154518404Y-88208380D01*
X154232690Y-88208380D02*
X154232690Y-87208380D01*
X154327928Y-87351238D01*
X154423166Y-87446476D01*
X154518404Y-87494095D01*
X152994595Y-88208380D02*
X153566023Y-88208380D01*
X153280309Y-88208380D02*
X153280309Y-87208380D01*
X153375547Y-87351238D01*
X153470785Y-87446476D01*
X153566023Y-87494095D01*
G04 #@! TO.C,C12*
X161901142Y-80891142D02*
X161948761Y-80843523D01*
X161996380Y-80700666D01*
X161996380Y-80605428D01*
X161948761Y-80462571D01*
X161853523Y-80367333D01*
X161758285Y-80319714D01*
X161567809Y-80272095D01*
X161424952Y-80272095D01*
X161234476Y-80319714D01*
X161139238Y-80367333D01*
X161044000Y-80462571D01*
X160996380Y-80605428D01*
X160996380Y-80700666D01*
X161044000Y-80843523D01*
X161091619Y-80891142D01*
X161996380Y-81843523D02*
X161996380Y-81272095D01*
X161996380Y-81557809D02*
X160996380Y-81557809D01*
X161139238Y-81462571D01*
X161234476Y-81367333D01*
X161282095Y-81272095D01*
X161091619Y-82224476D02*
X161044000Y-82272095D01*
X160996380Y-82367333D01*
X160996380Y-82605428D01*
X161044000Y-82700666D01*
X161091619Y-82748285D01*
X161186857Y-82795904D01*
X161282095Y-82795904D01*
X161424952Y-82748285D01*
X161996380Y-82176857D01*
X161996380Y-82795904D01*
G04 #@! TO.C,C13*
X161901142Y-71747142D02*
X161948761Y-71699523D01*
X161996380Y-71556666D01*
X161996380Y-71461428D01*
X161948761Y-71318571D01*
X161853523Y-71223333D01*
X161758285Y-71175714D01*
X161567809Y-71128095D01*
X161424952Y-71128095D01*
X161234476Y-71175714D01*
X161139238Y-71223333D01*
X161044000Y-71318571D01*
X160996380Y-71461428D01*
X160996380Y-71556666D01*
X161044000Y-71699523D01*
X161091619Y-71747142D01*
X161996380Y-72699523D02*
X161996380Y-72128095D01*
X161996380Y-72413809D02*
X160996380Y-72413809D01*
X161139238Y-72318571D01*
X161234476Y-72223333D01*
X161282095Y-72128095D01*
X160996380Y-73032857D02*
X160996380Y-73651904D01*
X161377333Y-73318571D01*
X161377333Y-73461428D01*
X161424952Y-73556666D01*
X161472571Y-73604285D01*
X161567809Y-73651904D01*
X161805904Y-73651904D01*
X161901142Y-73604285D01*
X161948761Y-73556666D01*
X161996380Y-73461428D01*
X161996380Y-73175714D01*
X161948761Y-73080476D01*
X161901142Y-73032857D01*
G04 #@! TO.C,D1*
X132176780Y-94511904D02*
X131176780Y-94511904D01*
X131176780Y-94750000D01*
X131224400Y-94892857D01*
X131319638Y-94988095D01*
X131414876Y-95035714D01*
X131605352Y-95083333D01*
X131748209Y-95083333D01*
X131938685Y-95035714D01*
X132033923Y-94988095D01*
X132129161Y-94892857D01*
X132176780Y-94750000D01*
X132176780Y-94511904D01*
X132176780Y-96035714D02*
X132176780Y-95464285D01*
X132176780Y-95750000D02*
X131176780Y-95750000D01*
X131319638Y-95654761D01*
X131414876Y-95559523D01*
X131462495Y-95464285D01*
G04 #@! TO.C,D2*
X160224695Y-101036380D02*
X160224695Y-100036380D01*
X159986600Y-100036380D01*
X159843742Y-100084000D01*
X159748504Y-100179238D01*
X159700885Y-100274476D01*
X159653266Y-100464952D01*
X159653266Y-100607809D01*
X159700885Y-100798285D01*
X159748504Y-100893523D01*
X159843742Y-100988761D01*
X159986600Y-101036380D01*
X160224695Y-101036380D01*
X159272314Y-100131619D02*
X159224695Y-100084000D01*
X159129457Y-100036380D01*
X158891361Y-100036380D01*
X158796123Y-100084000D01*
X158748504Y-100131619D01*
X158700885Y-100226857D01*
X158700885Y-100322095D01*
X158748504Y-100464952D01*
X159319933Y-101036380D01*
X158700885Y-101036380D01*
G04 #@! TO.C,D3*
X122681780Y-92797404D02*
X121681780Y-92797404D01*
X121681780Y-93035500D01*
X121729400Y-93178357D01*
X121824638Y-93273595D01*
X121919876Y-93321214D01*
X122110352Y-93368833D01*
X122253209Y-93368833D01*
X122443685Y-93321214D01*
X122538923Y-93273595D01*
X122634161Y-93178357D01*
X122681780Y-93035500D01*
X122681780Y-92797404D01*
X121681780Y-93702166D02*
X121681780Y-94321214D01*
X122062733Y-93987880D01*
X122062733Y-94130738D01*
X122110352Y-94225976D01*
X122157971Y-94273595D01*
X122253209Y-94321214D01*
X122491304Y-94321214D01*
X122586542Y-94273595D01*
X122634161Y-94225976D01*
X122681780Y-94130738D01*
X122681780Y-93845023D01*
X122634161Y-93749785D01*
X122586542Y-93702166D01*
G04 #@! TO.C,D4*
X95314780Y-60272704D02*
X94314780Y-60272704D01*
X94314780Y-60510800D01*
X94362400Y-60653657D01*
X94457638Y-60748895D01*
X94552876Y-60796514D01*
X94743352Y-60844133D01*
X94886209Y-60844133D01*
X95076685Y-60796514D01*
X95171923Y-60748895D01*
X95267161Y-60653657D01*
X95314780Y-60510800D01*
X95314780Y-60272704D01*
X94648114Y-61701276D02*
X95314780Y-61701276D01*
X94267161Y-61463180D02*
X94981447Y-61225085D01*
X94981447Y-61844133D01*
G04 #@! TO.C,F1*
X131589471Y-92567166D02*
X131589471Y-92233833D01*
X132113280Y-92233833D02*
X131113280Y-92233833D01*
X131113280Y-92710023D01*
X132113280Y-93614785D02*
X132113280Y-93043357D01*
X132113280Y-93329071D02*
X131113280Y-93329071D01*
X131256138Y-93233833D01*
X131351376Y-93138595D01*
X131398995Y-93043357D01*
G04 #@! TO.C,JP2*
X151937933Y-97667380D02*
X151937933Y-98381666D01*
X151985552Y-98524523D01*
X152080790Y-98619761D01*
X152223647Y-98667380D01*
X152318885Y-98667380D01*
X151461742Y-98667380D02*
X151461742Y-97667380D01*
X151080790Y-97667380D01*
X150985552Y-97715000D01*
X150937933Y-97762619D01*
X150890314Y-97857857D01*
X150890314Y-98000714D01*
X150937933Y-98095952D01*
X150985552Y-98143571D01*
X151080790Y-98191190D01*
X151461742Y-98191190D01*
X150509361Y-97762619D02*
X150461742Y-97715000D01*
X150366504Y-97667380D01*
X150128409Y-97667380D01*
X150033171Y-97715000D01*
X149985552Y-97762619D01*
X149937933Y-97857857D01*
X149937933Y-97953095D01*
X149985552Y-98095952D01*
X150556980Y-98667380D01*
X149937933Y-98667380D01*
G04 #@! TO.C,L1*
X139513366Y-101315780D02*
X139989557Y-101315780D01*
X139989557Y-100315780D01*
X138656223Y-101315780D02*
X139227652Y-101315780D01*
X138941938Y-101315780D02*
X138941938Y-100315780D01*
X139037176Y-100458638D01*
X139132414Y-100553876D01*
X139227652Y-100601495D01*
G04 #@! TO.C,R1*
X122715280Y-95210333D02*
X122239090Y-94877000D01*
X122715280Y-94638904D02*
X121715280Y-94638904D01*
X121715280Y-95019857D01*
X121762900Y-95115095D01*
X121810519Y-95162714D01*
X121905757Y-95210333D01*
X122048614Y-95210333D01*
X122143852Y-95162714D01*
X122191471Y-95115095D01*
X122239090Y-95019857D01*
X122239090Y-94638904D01*
X122715280Y-96162714D02*
X122715280Y-95591285D01*
X122715280Y-95877000D02*
X121715280Y-95877000D01*
X121858138Y-95781761D01*
X121953376Y-95686523D01*
X122000995Y-95591285D01*
G04 #@! TO.C,R2*
X165907980Y-92718833D02*
X165431790Y-92385500D01*
X165907980Y-92147404D02*
X164907980Y-92147404D01*
X164907980Y-92528357D01*
X164955600Y-92623595D01*
X165003219Y-92671214D01*
X165098457Y-92718833D01*
X165241314Y-92718833D01*
X165336552Y-92671214D01*
X165384171Y-92623595D01*
X165431790Y-92528357D01*
X165431790Y-92147404D01*
X165003219Y-93099785D02*
X164955600Y-93147404D01*
X164907980Y-93242642D01*
X164907980Y-93480738D01*
X164955600Y-93575976D01*
X165003219Y-93623595D01*
X165098457Y-93671214D01*
X165193695Y-93671214D01*
X165336552Y-93623595D01*
X165907980Y-93052166D01*
X165907980Y-93671214D01*
G04 #@! TO.C,R3*
X165906980Y-96274833D02*
X165430790Y-95941500D01*
X165906980Y-95703404D02*
X164906980Y-95703404D01*
X164906980Y-96084357D01*
X164954600Y-96179595D01*
X165002219Y-96227214D01*
X165097457Y-96274833D01*
X165240314Y-96274833D01*
X165335552Y-96227214D01*
X165383171Y-96179595D01*
X165430790Y-96084357D01*
X165430790Y-95703404D01*
X164906980Y-96608166D02*
X164906980Y-97227214D01*
X165287933Y-96893880D01*
X165287933Y-97036738D01*
X165335552Y-97131976D01*
X165383171Y-97179595D01*
X165478409Y-97227214D01*
X165716504Y-97227214D01*
X165811742Y-97179595D01*
X165859361Y-97131976D01*
X165906980Y-97036738D01*
X165906980Y-96751023D01*
X165859361Y-96655785D01*
X165811742Y-96608166D01*
G04 #@! TO.C,R4*
X142942366Y-89886780D02*
X143275700Y-89410590D01*
X143513795Y-89886780D02*
X143513795Y-88886780D01*
X143132842Y-88886780D01*
X143037604Y-88934400D01*
X142989985Y-88982019D01*
X142942366Y-89077257D01*
X142942366Y-89220114D01*
X142989985Y-89315352D01*
X143037604Y-89362971D01*
X143132842Y-89410590D01*
X143513795Y-89410590D01*
X142085223Y-89220114D02*
X142085223Y-89886780D01*
X142323319Y-88839161D02*
X142561414Y-89553447D01*
X141942366Y-89553447D01*
G04 #@! TO.C,R5*
X139513366Y-89886780D02*
X139846700Y-89410590D01*
X140084795Y-89886780D02*
X140084795Y-88886780D01*
X139703842Y-88886780D01*
X139608604Y-88934400D01*
X139560985Y-88982019D01*
X139513366Y-89077257D01*
X139513366Y-89220114D01*
X139560985Y-89315352D01*
X139608604Y-89362971D01*
X139703842Y-89410590D01*
X140084795Y-89410590D01*
X138608604Y-88886780D02*
X139084795Y-88886780D01*
X139132414Y-89362971D01*
X139084795Y-89315352D01*
X138989557Y-89267733D01*
X138751461Y-89267733D01*
X138656223Y-89315352D01*
X138608604Y-89362971D01*
X138560985Y-89458209D01*
X138560985Y-89696304D01*
X138608604Y-89791542D01*
X138656223Y-89839161D01*
X138751461Y-89886780D01*
X138989557Y-89886780D01*
X139084795Y-89839161D01*
X139132414Y-89791542D01*
G04 #@! TO.C,R6*
X146470666Y-65476380D02*
X146804000Y-65000190D01*
X147042095Y-65476380D02*
X147042095Y-64476380D01*
X146661142Y-64476380D01*
X146565904Y-64524000D01*
X146518285Y-64571619D01*
X146470666Y-64666857D01*
X146470666Y-64809714D01*
X146518285Y-64904952D01*
X146565904Y-64952571D01*
X146661142Y-65000190D01*
X147042095Y-65000190D01*
X145613523Y-64476380D02*
X145804000Y-64476380D01*
X145899238Y-64524000D01*
X145946857Y-64571619D01*
X146042095Y-64714476D01*
X146089714Y-64904952D01*
X146089714Y-65285904D01*
X146042095Y-65381142D01*
X145994476Y-65428761D01*
X145899238Y-65476380D01*
X145708761Y-65476380D01*
X145613523Y-65428761D01*
X145565904Y-65381142D01*
X145518285Y-65285904D01*
X145518285Y-65047809D01*
X145565904Y-64952571D01*
X145613523Y-64904952D01*
X145708761Y-64857333D01*
X145899238Y-64857333D01*
X145994476Y-64904952D01*
X146042095Y-64952571D01*
X146089714Y-65047809D01*
G04 #@! TO.C,R7*
X148487426Y-65476380D02*
X148820760Y-65000190D01*
X149058855Y-65476380D02*
X149058855Y-64476380D01*
X148677902Y-64476380D01*
X148582664Y-64524000D01*
X148535045Y-64571619D01*
X148487426Y-64666857D01*
X148487426Y-64809714D01*
X148535045Y-64904952D01*
X148582664Y-64952571D01*
X148677902Y-65000190D01*
X149058855Y-65000190D01*
X148154093Y-64476380D02*
X147487426Y-64476380D01*
X147915998Y-65476380D01*
G04 #@! TO.C,R8*
X167710380Y-71382833D02*
X167234190Y-71049500D01*
X167710380Y-70811404D02*
X166710380Y-70811404D01*
X166710380Y-71192357D01*
X166758000Y-71287595D01*
X166805619Y-71335214D01*
X166900857Y-71382833D01*
X167043714Y-71382833D01*
X167138952Y-71335214D01*
X167186571Y-71287595D01*
X167234190Y-71192357D01*
X167234190Y-70811404D01*
X167138952Y-71954261D02*
X167091333Y-71859023D01*
X167043714Y-71811404D01*
X166948476Y-71763785D01*
X166900857Y-71763785D01*
X166805619Y-71811404D01*
X166758000Y-71859023D01*
X166710380Y-71954261D01*
X166710380Y-72144738D01*
X166758000Y-72239976D01*
X166805619Y-72287595D01*
X166900857Y-72335214D01*
X166948476Y-72335214D01*
X167043714Y-72287595D01*
X167091333Y-72239976D01*
X167138952Y-72144738D01*
X167138952Y-71954261D01*
X167186571Y-71859023D01*
X167234190Y-71811404D01*
X167329428Y-71763785D01*
X167519904Y-71763785D01*
X167615142Y-71811404D01*
X167662761Y-71859023D01*
X167710380Y-71954261D01*
X167710380Y-72144738D01*
X167662761Y-72239976D01*
X167615142Y-72287595D01*
X167519904Y-72335214D01*
X167329428Y-72335214D01*
X167234190Y-72287595D01*
X167186571Y-72239976D01*
X167138952Y-72144738D01*
G04 #@! TO.C,R9*
X144644166Y-88208380D02*
X144977500Y-87732190D01*
X145215595Y-88208380D02*
X145215595Y-87208380D01*
X144834642Y-87208380D01*
X144739404Y-87256000D01*
X144691785Y-87303619D01*
X144644166Y-87398857D01*
X144644166Y-87541714D01*
X144691785Y-87636952D01*
X144739404Y-87684571D01*
X144834642Y-87732190D01*
X145215595Y-87732190D01*
X144167976Y-88208380D02*
X143977500Y-88208380D01*
X143882261Y-88160761D01*
X143834642Y-88113142D01*
X143739404Y-87970285D01*
X143691785Y-87779809D01*
X143691785Y-87398857D01*
X143739404Y-87303619D01*
X143787023Y-87256000D01*
X143882261Y-87208380D01*
X144072738Y-87208380D01*
X144167976Y-87256000D01*
X144215595Y-87303619D01*
X144263214Y-87398857D01*
X144263214Y-87636952D01*
X144215595Y-87732190D01*
X144167976Y-87779809D01*
X144072738Y-87827428D01*
X143882261Y-87827428D01*
X143787023Y-87779809D01*
X143739404Y-87732190D01*
X143691785Y-87636952D01*
G04 #@! TO.C,R10*
X134132580Y-94378542D02*
X133656390Y-94045209D01*
X134132580Y-93807114D02*
X133132580Y-93807114D01*
X133132580Y-94188066D01*
X133180200Y-94283304D01*
X133227819Y-94330923D01*
X133323057Y-94378542D01*
X133465914Y-94378542D01*
X133561152Y-94330923D01*
X133608771Y-94283304D01*
X133656390Y-94188066D01*
X133656390Y-93807114D01*
X134132580Y-95330923D02*
X134132580Y-94759495D01*
X134132580Y-95045209D02*
X133132580Y-95045209D01*
X133275438Y-94949971D01*
X133370676Y-94854733D01*
X133418295Y-94759495D01*
X133132580Y-95949971D02*
X133132580Y-96045209D01*
X133180200Y-96140447D01*
X133227819Y-96188066D01*
X133323057Y-96235685D01*
X133513533Y-96283304D01*
X133751628Y-96283304D01*
X133942104Y-96235685D01*
X134037342Y-96188066D01*
X134084961Y-96140447D01*
X134132580Y-96045209D01*
X134132580Y-95949971D01*
X134084961Y-95854733D01*
X134037342Y-95807114D01*
X133942104Y-95759495D01*
X133751628Y-95711876D01*
X133513533Y-95711876D01*
X133323057Y-95759495D01*
X133227819Y-95807114D01*
X133180200Y-95854733D01*
X133132580Y-95949971D01*
G04 #@! TO.C,SW2*
X122960162Y-97727667D02*
X123007781Y-97870524D01*
X123007781Y-98108620D01*
X122960162Y-98203858D01*
X122912543Y-98251477D01*
X122817305Y-98299096D01*
X122722067Y-98299096D01*
X122626829Y-98251477D01*
X122579210Y-98203858D01*
X122531591Y-98108620D01*
X122483972Y-97918143D01*
X122436353Y-97822905D01*
X122388734Y-97775286D01*
X122293496Y-97727667D01*
X122198258Y-97727667D01*
X122103020Y-97775286D01*
X122055401Y-97822905D01*
X122007781Y-97918143D01*
X122007781Y-98156239D01*
X122055401Y-98299096D01*
X122007781Y-98632429D02*
X123007781Y-98870524D01*
X122293496Y-99061001D01*
X123007781Y-99251477D01*
X122007781Y-99489572D01*
X122103020Y-99822905D02*
X122055401Y-99870524D01*
X122007781Y-99965762D01*
X122007781Y-100203858D01*
X122055401Y-100299096D01*
X122103020Y-100346715D01*
X122198258Y-100394334D01*
X122293496Y-100394334D01*
X122436353Y-100346715D01*
X123007781Y-99775286D01*
X123007781Y-100394334D01*
G04 #@! TO.C,SW4*
X163842533Y-63657561D02*
X163699676Y-63705180D01*
X163461580Y-63705180D01*
X163366342Y-63657561D01*
X163318723Y-63609942D01*
X163271104Y-63514704D01*
X163271104Y-63419466D01*
X163318723Y-63324228D01*
X163366342Y-63276609D01*
X163461580Y-63228990D01*
X163652057Y-63181371D01*
X163747295Y-63133752D01*
X163794914Y-63086133D01*
X163842533Y-62990895D01*
X163842533Y-62895657D01*
X163794914Y-62800419D01*
X163747295Y-62752800D01*
X163652057Y-62705180D01*
X163413961Y-62705180D01*
X163271104Y-62752800D01*
X162937771Y-62705180D02*
X162699676Y-63705180D01*
X162509200Y-62990895D01*
X162318723Y-63705180D01*
X162080628Y-62705180D01*
X161271104Y-63038514D02*
X161271104Y-63705180D01*
X161509200Y-62657561D02*
X161747295Y-63371847D01*
X161128247Y-63371847D01*
G04 #@! TO.C,U1*
X150266304Y-62829580D02*
X150266304Y-63639104D01*
X150218685Y-63734342D01*
X150171066Y-63781961D01*
X150075828Y-63829580D01*
X149885352Y-63829580D01*
X149790114Y-63781961D01*
X149742495Y-63734342D01*
X149694876Y-63639104D01*
X149694876Y-62829580D01*
X148694876Y-63829580D02*
X149266304Y-63829580D01*
X148980590Y-63829580D02*
X148980590Y-62829580D01*
X149075828Y-62972438D01*
X149171066Y-63067676D01*
X149266304Y-63115295D01*
G04 #@! TO.C,U2*
X159065980Y-91059095D02*
X159875504Y-91059095D01*
X159970742Y-91106714D01*
X160018361Y-91154333D01*
X160065980Y-91249571D01*
X160065980Y-91440047D01*
X160018361Y-91535285D01*
X159970742Y-91582904D01*
X159875504Y-91630523D01*
X159065980Y-91630523D01*
X159161219Y-92059095D02*
X159113600Y-92106714D01*
X159065980Y-92201952D01*
X159065980Y-92440047D01*
X159113600Y-92535285D01*
X159161219Y-92582904D01*
X159256457Y-92630523D01*
X159351695Y-92630523D01*
X159494552Y-92582904D01*
X160065980Y-92011476D01*
X160065980Y-92630523D01*
G04 #@! TO.C,U3*
X141600604Y-96994780D02*
X141600604Y-97804304D01*
X141552985Y-97899542D01*
X141505366Y-97947161D01*
X141410128Y-97994780D01*
X141219652Y-97994780D01*
X141124414Y-97947161D01*
X141076795Y-97899542D01*
X141029176Y-97804304D01*
X141029176Y-96994780D01*
X140648223Y-96994780D02*
X140029176Y-96994780D01*
X140362509Y-97375733D01*
X140219652Y-97375733D01*
X140124414Y-97423352D01*
X140076795Y-97470971D01*
X140029176Y-97566209D01*
X140029176Y-97804304D01*
X140076795Y-97899542D01*
X140124414Y-97947161D01*
X140219652Y-97994780D01*
X140505366Y-97994780D01*
X140600604Y-97947161D01*
X140648223Y-97899542D01*
G04 #@! TO.C,U4*
X141354380Y-76200095D02*
X142163904Y-76200095D01*
X142259142Y-76247714D01*
X142306761Y-76295333D01*
X142354380Y-76390571D01*
X142354380Y-76581047D01*
X142306761Y-76676285D01*
X142259142Y-76723904D01*
X142163904Y-76771523D01*
X141354380Y-76771523D01*
X141687714Y-77676285D02*
X142354380Y-77676285D01*
X141306761Y-77438190D02*
X142021047Y-77200095D01*
X142021047Y-77819142D01*
G04 #@! TO.C,Y1*
X161430190Y-76485809D02*
X161906380Y-76485809D01*
X160906380Y-76152476D02*
X161430190Y-76485809D01*
X160906380Y-76819142D01*
X161906380Y-77676285D02*
X161906380Y-77104857D01*
X161906380Y-77390571D02*
X160906380Y-77390571D01*
X161049238Y-77295333D01*
X161144476Y-77200095D01*
X161192095Y-77104857D01*
G04 #@! TD*
M02*
