G04 #@! TF.GenerationSoftware,KiCad,Pcbnew,(5.1.6)-1*
G04 #@! TF.CreationDate,2020-11-30T20:52:42-08:00*
G04 #@! TF.ProjectId,pcb2,70636232-2e6b-4696-9361-645f70636258,rev?*
G04 #@! TF.SameCoordinates,Original*
G04 #@! TF.FileFunction,Soldermask,Bot*
G04 #@! TF.FilePolarity,Negative*
%FSLAX46Y46*%
G04 Gerber Fmt 4.6, Leading zero omitted, Abs format (unit mm)*
G04 Created by KiCad (PCBNEW (5.1.6)-1) date 2020-11-30 20:52:42*
%MOMM*%
%LPD*%
G01*
G04 APERTURE LIST*
%ADD10C,1.624000*%
%ADD11C,2.030000*%
%ADD12R,1.000000X1.300000*%
%ADD13R,1.300000X1.000000*%
%ADD14R,1.800000X1.800000*%
%ADD15O,1.800000X1.800000*%
%ADD16C,1.850000*%
%ADD17C,2.350000*%
%ADD18C,4.087800*%
%ADD19R,1.900000X1.200000*%
%ADD20R,2.100000X3.900000*%
%ADD21R,2.100000X1.600000*%
%ADD22R,0.750000X1.160000*%
%ADD23R,0.650000X1.600000*%
%ADD24R,1.600000X0.650000*%
%ADD25R,1.300000X1.500000*%
G04 APERTURE END LIST*
G04 #@! TO.C,C14*
G36*
G01*
X152421880Y-67613610D02*
X152421880Y-68576110D01*
G75*
G02*
X152153130Y-68844860I-268750J0D01*
G01*
X151615630Y-68844860D01*
G75*
G02*
X151346880Y-68576110I0J268750D01*
G01*
X151346880Y-67613610D01*
G75*
G02*
X151615630Y-67344860I268750J0D01*
G01*
X152153130Y-67344860D01*
G75*
G02*
X152421880Y-67613610I0J-268750D01*
G01*
G37*
G36*
G01*
X150546880Y-67613610D02*
X150546880Y-68576110D01*
G75*
G02*
X150278130Y-68844860I-268750J0D01*
G01*
X149740630Y-68844860D01*
G75*
G02*
X149471880Y-68576110I0J268750D01*
G01*
X149471880Y-67613610D01*
G75*
G02*
X149740630Y-67344860I268750J0D01*
G01*
X150278130Y-67344860D01*
G75*
G02*
X150546880Y-67613610I0J-268750D01*
G01*
G37*
G04 #@! TD*
D10*
G04 #@! TO.C,JP1*
X127000000Y-63500000D03*
X127000000Y-66040000D03*
X127000000Y-68580000D03*
X127000000Y-71120000D03*
X127000000Y-73660000D03*
X127000000Y-76200000D03*
X127000000Y-78740000D03*
X127000000Y-81280000D03*
X127000000Y-83820000D03*
X127000000Y-86360000D03*
X127000000Y-88900000D03*
G04 #@! TD*
G04 #@! TO.C,C8*
G36*
G01*
X145086600Y-67616150D02*
X145086600Y-68578650D01*
G75*
G02*
X144817850Y-68847400I-268750J0D01*
G01*
X144280350Y-68847400D01*
G75*
G02*
X144011600Y-68578650I0J268750D01*
G01*
X144011600Y-67616150D01*
G75*
G02*
X144280350Y-67347400I268750J0D01*
G01*
X144817850Y-67347400D01*
G75*
G02*
X145086600Y-67616150I0J-268750D01*
G01*
G37*
G36*
G01*
X143211600Y-67616150D02*
X143211600Y-68578650D01*
G75*
G02*
X142942850Y-68847400I-268750J0D01*
G01*
X142405350Y-68847400D01*
G75*
G02*
X142136600Y-68578650I0J268750D01*
G01*
X142136600Y-67616150D01*
G75*
G02*
X142405350Y-67347400I268750J0D01*
G01*
X142942850Y-67347400D01*
G75*
G02*
X143211600Y-67616150I0J-268750D01*
G01*
G37*
G04 #@! TD*
D11*
G04 #@! TO.C,A1*
X110617000Y-64897000D03*
X108077000Y-64897000D03*
X105537000Y-64897000D03*
X102997000Y-64897000D03*
X100457000Y-64897000D03*
X97917000Y-64897000D03*
X95377000Y-64897000D03*
X92837000Y-64897000D03*
G04 #@! TD*
G04 #@! TO.C,C1*
G36*
G01*
X154941350Y-91440500D02*
X155903850Y-91440500D01*
G75*
G02*
X156172600Y-91709250I0J-268750D01*
G01*
X156172600Y-92246750D01*
G75*
G02*
X155903850Y-92515500I-268750J0D01*
G01*
X154941350Y-92515500D01*
G75*
G02*
X154672600Y-92246750I0J268750D01*
G01*
X154672600Y-91709250D01*
G75*
G02*
X154941350Y-91440500I268750J0D01*
G01*
G37*
G36*
G01*
X154941350Y-93315500D02*
X155903850Y-93315500D01*
G75*
G02*
X156172600Y-93584250I0J-268750D01*
G01*
X156172600Y-94121750D01*
G75*
G02*
X155903850Y-94390500I-268750J0D01*
G01*
X154941350Y-94390500D01*
G75*
G02*
X154672600Y-94121750I0J268750D01*
G01*
X154672600Y-93584250D01*
G75*
G02*
X154941350Y-93315500I268750J0D01*
G01*
G37*
G04 #@! TD*
G04 #@! TO.C,C2*
G36*
G01*
X143381650Y-58652700D02*
X142419150Y-58652700D01*
G75*
G02*
X142150400Y-58383950I0J268750D01*
G01*
X142150400Y-57846450D01*
G75*
G02*
X142419150Y-57577700I268750J0D01*
G01*
X143381650Y-57577700D01*
G75*
G02*
X143650400Y-57846450I0J-268750D01*
G01*
X143650400Y-58383950D01*
G75*
G02*
X143381650Y-58652700I-268750J0D01*
G01*
G37*
G36*
G01*
X143381650Y-56777700D02*
X142419150Y-56777700D01*
G75*
G02*
X142150400Y-56508950I0J268750D01*
G01*
X142150400Y-55971450D01*
G75*
G02*
X142419150Y-55702700I268750J0D01*
G01*
X143381650Y-55702700D01*
G75*
G02*
X143650400Y-55971450I0J-268750D01*
G01*
X143650400Y-56508950D01*
G75*
G02*
X143381650Y-56777700I-268750J0D01*
G01*
G37*
G04 #@! TD*
G04 #@! TO.C,C3*
G36*
G01*
X155903850Y-96041500D02*
X154941350Y-96041500D01*
G75*
G02*
X154672600Y-95772750I0J268750D01*
G01*
X154672600Y-95235250D01*
G75*
G02*
X154941350Y-94966500I268750J0D01*
G01*
X155903850Y-94966500D01*
G75*
G02*
X156172600Y-95235250I0J-268750D01*
G01*
X156172600Y-95772750D01*
G75*
G02*
X155903850Y-96041500I-268750J0D01*
G01*
G37*
G36*
G01*
X155903850Y-97916500D02*
X154941350Y-97916500D01*
G75*
G02*
X154672600Y-97647750I0J268750D01*
G01*
X154672600Y-97110250D01*
G75*
G02*
X154941350Y-96841500I268750J0D01*
G01*
X155903850Y-96841500D01*
G75*
G02*
X156172600Y-97110250I0J-268750D01*
G01*
X156172600Y-97647750D01*
G75*
G02*
X155903850Y-97916500I-268750J0D01*
G01*
G37*
G04 #@! TD*
G04 #@! TO.C,C4*
G36*
G01*
X142419150Y-61133700D02*
X143381650Y-61133700D01*
G75*
G02*
X143650400Y-61402450I0J-268750D01*
G01*
X143650400Y-61939950D01*
G75*
G02*
X143381650Y-62208700I-268750J0D01*
G01*
X142419150Y-62208700D01*
G75*
G02*
X142150400Y-61939950I0J268750D01*
G01*
X142150400Y-61402450D01*
G75*
G02*
X142419150Y-61133700I268750J0D01*
G01*
G37*
G36*
G01*
X142419150Y-59258700D02*
X143381650Y-59258700D01*
G75*
G02*
X143650400Y-59527450I0J-268750D01*
G01*
X143650400Y-60064950D01*
G75*
G02*
X143381650Y-60333700I-268750J0D01*
G01*
X142419150Y-60333700D01*
G75*
G02*
X142150400Y-60064950I0J268750D01*
G01*
X142150400Y-59527450D01*
G75*
G02*
X142419150Y-59258700I268750J0D01*
G01*
G37*
G04 #@! TD*
G04 #@! TO.C,C5*
G36*
G01*
X141300700Y-99693650D02*
X141300700Y-98731150D01*
G75*
G02*
X141569450Y-98462400I268750J0D01*
G01*
X142106950Y-98462400D01*
G75*
G02*
X142375700Y-98731150I0J-268750D01*
G01*
X142375700Y-99693650D01*
G75*
G02*
X142106950Y-99962400I-268750J0D01*
G01*
X141569450Y-99962400D01*
G75*
G02*
X141300700Y-99693650I0J268750D01*
G01*
G37*
G36*
G01*
X143175700Y-99693650D02*
X143175700Y-98731150D01*
G75*
G02*
X143444450Y-98462400I268750J0D01*
G01*
X143981950Y-98462400D01*
G75*
G02*
X144250700Y-98731150I0J-268750D01*
G01*
X144250700Y-99693650D01*
G75*
G02*
X143981950Y-99962400I-268750J0D01*
G01*
X143444450Y-99962400D01*
G75*
G02*
X143175700Y-99693650I0J268750D01*
G01*
G37*
G04 #@! TD*
G04 #@! TO.C,C6*
G36*
G01*
X145835450Y-95387900D02*
X146797950Y-95387900D01*
G75*
G02*
X147066700Y-95656650I0J-268750D01*
G01*
X147066700Y-96194150D01*
G75*
G02*
X146797950Y-96462900I-268750J0D01*
G01*
X145835450Y-96462900D01*
G75*
G02*
X145566700Y-96194150I0J268750D01*
G01*
X145566700Y-95656650D01*
G75*
G02*
X145835450Y-95387900I268750J0D01*
G01*
G37*
G36*
G01*
X145835450Y-97262900D02*
X146797950Y-97262900D01*
G75*
G02*
X147066700Y-97531650I0J-268750D01*
G01*
X147066700Y-98069150D01*
G75*
G02*
X146797950Y-98337900I-268750J0D01*
G01*
X145835450Y-98337900D01*
G75*
G02*
X145566700Y-98069150I0J268750D01*
G01*
X145566700Y-97531650D01*
G75*
G02*
X145835450Y-97262900I268750J0D01*
G01*
G37*
G04 #@! TD*
G04 #@! TO.C,C7*
G36*
G01*
X154758100Y-68578650D02*
X154758100Y-67616150D01*
G75*
G02*
X155026850Y-67347400I268750J0D01*
G01*
X155564350Y-67347400D01*
G75*
G02*
X155833100Y-67616150I0J-268750D01*
G01*
X155833100Y-68578650D01*
G75*
G02*
X155564350Y-68847400I-268750J0D01*
G01*
X155026850Y-68847400D01*
G75*
G02*
X154758100Y-68578650I0J268750D01*
G01*
G37*
G36*
G01*
X152883100Y-68578650D02*
X152883100Y-67616150D01*
G75*
G02*
X153151850Y-67347400I268750J0D01*
G01*
X153689350Y-67347400D01*
G75*
G02*
X153958100Y-67616150I0J-268750D01*
G01*
X153958100Y-68578650D01*
G75*
G02*
X153689350Y-68847400I-268750J0D01*
G01*
X153151850Y-68847400D01*
G75*
G02*
X152883100Y-68578650I0J268750D01*
G01*
G37*
G04 #@! TD*
G04 #@! TO.C,C9*
G36*
G01*
X140790850Y-71482000D02*
X139828350Y-71482000D01*
G75*
G02*
X139559600Y-71213250I0J268750D01*
G01*
X139559600Y-70675750D01*
G75*
G02*
X139828350Y-70407000I268750J0D01*
G01*
X140790850Y-70407000D01*
G75*
G02*
X141059600Y-70675750I0J-268750D01*
G01*
X141059600Y-71213250D01*
G75*
G02*
X140790850Y-71482000I-268750J0D01*
G01*
G37*
G36*
G01*
X140790850Y-73357000D02*
X139828350Y-73357000D01*
G75*
G02*
X139559600Y-73088250I0J268750D01*
G01*
X139559600Y-72550750D01*
G75*
G02*
X139828350Y-72282000I268750J0D01*
G01*
X140790850Y-72282000D01*
G75*
G02*
X141059600Y-72550750I0J-268750D01*
G01*
X141059600Y-73088250D01*
G75*
G02*
X140790850Y-73357000I-268750J0D01*
G01*
G37*
G04 #@! TD*
G04 #@! TO.C,C10*
G36*
G01*
X139726750Y-82520500D02*
X140689250Y-82520500D01*
G75*
G02*
X140958000Y-82789250I0J-268750D01*
G01*
X140958000Y-83326750D01*
G75*
G02*
X140689250Y-83595500I-268750J0D01*
G01*
X139726750Y-83595500D01*
G75*
G02*
X139458000Y-83326750I0J268750D01*
G01*
X139458000Y-82789250D01*
G75*
G02*
X139726750Y-82520500I268750J0D01*
G01*
G37*
G36*
G01*
X139726750Y-80645500D02*
X140689250Y-80645500D01*
G75*
G02*
X140958000Y-80914250I0J-268750D01*
G01*
X140958000Y-81451750D01*
G75*
G02*
X140689250Y-81720500I-268750J0D01*
G01*
X139726750Y-81720500D01*
G75*
G02*
X139458000Y-81451750I0J268750D01*
G01*
X139458000Y-80914250D01*
G75*
G02*
X139726750Y-80645500I268750J0D01*
G01*
G37*
G04 #@! TD*
G04 #@! TO.C,C11*
G36*
G01*
X154656500Y-86587250D02*
X154656500Y-85624750D01*
G75*
G02*
X154925250Y-85356000I268750J0D01*
G01*
X155462750Y-85356000D01*
G75*
G02*
X155731500Y-85624750I0J-268750D01*
G01*
X155731500Y-86587250D01*
G75*
G02*
X155462750Y-86856000I-268750J0D01*
G01*
X154925250Y-86856000D01*
G75*
G02*
X154656500Y-86587250I0J268750D01*
G01*
G37*
G36*
G01*
X152781500Y-86587250D02*
X152781500Y-85624750D01*
G75*
G02*
X153050250Y-85356000I268750J0D01*
G01*
X153587750Y-85356000D01*
G75*
G02*
X153856500Y-85624750I0J-268750D01*
G01*
X153856500Y-86587250D01*
G75*
G02*
X153587750Y-86856000I-268750J0D01*
G01*
X153050250Y-86856000D01*
G75*
G02*
X152781500Y-86587250I0J268750D01*
G01*
G37*
G04 #@! TD*
G04 #@! TO.C,C12*
G36*
G01*
X157607500Y-82015250D02*
X157607500Y-81052750D01*
G75*
G02*
X157876250Y-80784000I268750J0D01*
G01*
X158413750Y-80784000D01*
G75*
G02*
X158682500Y-81052750I0J-268750D01*
G01*
X158682500Y-82015250D01*
G75*
G02*
X158413750Y-82284000I-268750J0D01*
G01*
X157876250Y-82284000D01*
G75*
G02*
X157607500Y-82015250I0J268750D01*
G01*
G37*
G36*
G01*
X159482500Y-82015250D02*
X159482500Y-81052750D01*
G75*
G02*
X159751250Y-80784000I268750J0D01*
G01*
X160288750Y-80784000D01*
G75*
G02*
X160557500Y-81052750I0J-268750D01*
G01*
X160557500Y-82015250D01*
G75*
G02*
X160288750Y-82284000I-268750J0D01*
G01*
X159751250Y-82284000D01*
G75*
G02*
X159482500Y-82015250I0J268750D01*
G01*
G37*
G04 #@! TD*
G04 #@! TO.C,C13*
G36*
G01*
X159482500Y-72871250D02*
X159482500Y-71908750D01*
G75*
G02*
X159751250Y-71640000I268750J0D01*
G01*
X160288750Y-71640000D01*
G75*
G02*
X160557500Y-71908750I0J-268750D01*
G01*
X160557500Y-72871250D01*
G75*
G02*
X160288750Y-73140000I-268750J0D01*
G01*
X159751250Y-73140000D01*
G75*
G02*
X159482500Y-72871250I0J268750D01*
G01*
G37*
G36*
G01*
X157607500Y-72871250D02*
X157607500Y-71908750D01*
G75*
G02*
X157876250Y-71640000I268750J0D01*
G01*
X158413750Y-71640000D01*
G75*
G02*
X158682500Y-71908750I0J-268750D01*
G01*
X158682500Y-72871250D01*
G75*
G02*
X158413750Y-73140000I-268750J0D01*
G01*
X157876250Y-73140000D01*
G75*
G02*
X157607500Y-72871250I0J268750D01*
G01*
G37*
G04 #@! TD*
D12*
G04 #@! TO.C,D1*
X130388900Y-95250000D03*
X127088900Y-95250000D03*
G04 #@! TD*
G04 #@! TO.C,D2*
G36*
G01*
X161010100Y-98451750D02*
X161010100Y-99414250D01*
G75*
G02*
X160741350Y-99683000I-268750J0D01*
G01*
X160203850Y-99683000D01*
G75*
G02*
X159935100Y-99414250I0J268750D01*
G01*
X159935100Y-98451750D01*
G75*
G02*
X160203850Y-98183000I268750J0D01*
G01*
X160741350Y-98183000D01*
G75*
G02*
X161010100Y-98451750I0J-268750D01*
G01*
G37*
G36*
G01*
X159135100Y-98451750D02*
X159135100Y-99414250D01*
G75*
G02*
X158866350Y-99683000I-268750J0D01*
G01*
X158328850Y-99683000D01*
G75*
G02*
X158060100Y-99414250I0J268750D01*
G01*
X158060100Y-98451750D01*
G75*
G02*
X158328850Y-98183000I268750J0D01*
G01*
X158866350Y-98183000D01*
G75*
G02*
X159135100Y-98451750I0J-268750D01*
G01*
G37*
G04 #@! TD*
G04 #@! TO.C,D3*
G36*
G01*
X125027400Y-93953250D02*
X125027400Y-92990750D01*
G75*
G02*
X125296150Y-92722000I268750J0D01*
G01*
X125833650Y-92722000D01*
G75*
G02*
X126102400Y-92990750I0J-268750D01*
G01*
X126102400Y-93953250D01*
G75*
G02*
X125833650Y-94222000I-268750J0D01*
G01*
X125296150Y-94222000D01*
G75*
G02*
X125027400Y-93953250I0J268750D01*
G01*
G37*
G36*
G01*
X123152400Y-93953250D02*
X123152400Y-92990750D01*
G75*
G02*
X123421150Y-92722000I268750J0D01*
G01*
X123958650Y-92722000D01*
G75*
G02*
X124227400Y-92990750I0J-268750D01*
G01*
X124227400Y-93953250D01*
G75*
G02*
X123958650Y-94222000I-268750J0D01*
G01*
X123421150Y-94222000D01*
G75*
G02*
X123152400Y-93953250I0J268750D01*
G01*
G37*
G04 #@! TD*
D13*
G04 #@! TO.C,D4*
X92862400Y-62660800D03*
X92862400Y-59360800D03*
G04 #@! TD*
G04 #@! TO.C,F1*
G36*
G01*
X130817900Y-92182000D02*
X130817900Y-93492000D01*
G75*
G02*
X130547900Y-93762000I-270000J0D01*
G01*
X129737900Y-93762000D01*
G75*
G02*
X129467900Y-93492000I0J270000D01*
G01*
X129467900Y-92182000D01*
G75*
G02*
X129737900Y-91912000I270000J0D01*
G01*
X130547900Y-91912000D01*
G75*
G02*
X130817900Y-92182000I0J-270000D01*
G01*
G37*
G36*
G01*
X128017900Y-92182000D02*
X128017900Y-93492000D01*
G75*
G02*
X127747900Y-93762000I-270000J0D01*
G01*
X126937900Y-93762000D01*
G75*
G02*
X126667900Y-93492000I0J270000D01*
G01*
X126667900Y-92182000D01*
G75*
G02*
X126937900Y-91912000I270000J0D01*
G01*
X127747900Y-91912000D01*
G75*
G02*
X128017900Y-92182000I0J-270000D01*
G01*
G37*
G04 #@! TD*
D14*
G04 #@! TO.C,JP2*
X151104600Y-95885000D03*
D15*
X151104600Y-93345000D03*
G04 #@! TD*
D10*
G04 #@! TO.C,JP3*
X121920000Y-71120000D03*
X121920000Y-73660000D03*
X121920000Y-76200000D03*
X121920000Y-78740000D03*
X121920000Y-81280000D03*
G04 #@! TD*
G04 #@! TO.C,L1*
G36*
G01*
X140821700Y-98731150D02*
X140821700Y-99693650D01*
G75*
G02*
X140552950Y-99962400I-268750J0D01*
G01*
X140015450Y-99962400D01*
G75*
G02*
X139746700Y-99693650I0J268750D01*
G01*
X139746700Y-98731150D01*
G75*
G02*
X140015450Y-98462400I268750J0D01*
G01*
X140552950Y-98462400D01*
G75*
G02*
X140821700Y-98731150I0J-268750D01*
G01*
G37*
G36*
G01*
X138946700Y-98731150D02*
X138946700Y-99693650D01*
G75*
G02*
X138677950Y-99962400I-268750J0D01*
G01*
X138140450Y-99962400D01*
G75*
G02*
X137871700Y-99693650I0J268750D01*
G01*
X137871700Y-98731150D01*
G75*
G02*
X138140450Y-98462400I268750J0D01*
G01*
X138677950Y-98462400D01*
G75*
G02*
X138946700Y-98731150I0J-268750D01*
G01*
G37*
G04 #@! TD*
G04 #@! TO.C,R1*
G36*
G01*
X125027400Y-95921750D02*
X125027400Y-94959250D01*
G75*
G02*
X125296150Y-94690500I268750J0D01*
G01*
X125833650Y-94690500D01*
G75*
G02*
X126102400Y-94959250I0J-268750D01*
G01*
X126102400Y-95921750D01*
G75*
G02*
X125833650Y-96190500I-268750J0D01*
G01*
X125296150Y-96190500D01*
G75*
G02*
X125027400Y-95921750I0J268750D01*
G01*
G37*
G36*
G01*
X123152400Y-95921750D02*
X123152400Y-94959250D01*
G75*
G02*
X123421150Y-94690500I268750J0D01*
G01*
X123958650Y-94690500D01*
G75*
G02*
X124227400Y-94959250I0J-268750D01*
G01*
X124227400Y-95921750D01*
G75*
G02*
X123958650Y-96190500I-268750J0D01*
G01*
X123421150Y-96190500D01*
G75*
G02*
X123152400Y-95921750I0J268750D01*
G01*
G37*
G04 #@! TD*
G04 #@! TO.C,R2*
G36*
G01*
X163323350Y-91410500D02*
X164285850Y-91410500D01*
G75*
G02*
X164554600Y-91679250I0J-268750D01*
G01*
X164554600Y-92216750D01*
G75*
G02*
X164285850Y-92485500I-268750J0D01*
G01*
X163323350Y-92485500D01*
G75*
G02*
X163054600Y-92216750I0J268750D01*
G01*
X163054600Y-91679250D01*
G75*
G02*
X163323350Y-91410500I268750J0D01*
G01*
G37*
G36*
G01*
X163323350Y-93285500D02*
X164285850Y-93285500D01*
G75*
G02*
X164554600Y-93554250I0J-268750D01*
G01*
X164554600Y-94091750D01*
G75*
G02*
X164285850Y-94360500I-268750J0D01*
G01*
X163323350Y-94360500D01*
G75*
G02*
X163054600Y-94091750I0J268750D01*
G01*
X163054600Y-93554250D01*
G75*
G02*
X163323350Y-93285500I268750J0D01*
G01*
G37*
G04 #@! TD*
G04 #@! TO.C,R3*
G36*
G01*
X164285850Y-97916500D02*
X163323350Y-97916500D01*
G75*
G02*
X163054600Y-97647750I0J268750D01*
G01*
X163054600Y-97110250D01*
G75*
G02*
X163323350Y-96841500I268750J0D01*
G01*
X164285850Y-96841500D01*
G75*
G02*
X164554600Y-97110250I0J-268750D01*
G01*
X164554600Y-97647750D01*
G75*
G02*
X164285850Y-97916500I-268750J0D01*
G01*
G37*
G36*
G01*
X164285850Y-96041500D02*
X163323350Y-96041500D01*
G75*
G02*
X163054600Y-95772750I0J268750D01*
G01*
X163054600Y-95235250D01*
G75*
G02*
X163323350Y-94966500I268750J0D01*
G01*
X164285850Y-94966500D01*
G75*
G02*
X164554600Y-95235250I0J-268750D01*
G01*
X164554600Y-95772750D01*
G75*
G02*
X164285850Y-96041500I-268750J0D01*
G01*
G37*
G04 #@! TD*
G04 #@! TO.C,R4*
G36*
G01*
X144250700Y-90603150D02*
X144250700Y-91565650D01*
G75*
G02*
X143981950Y-91834400I-268750J0D01*
G01*
X143444450Y-91834400D01*
G75*
G02*
X143175700Y-91565650I0J268750D01*
G01*
X143175700Y-90603150D01*
G75*
G02*
X143444450Y-90334400I268750J0D01*
G01*
X143981950Y-90334400D01*
G75*
G02*
X144250700Y-90603150I0J-268750D01*
G01*
G37*
G36*
G01*
X142375700Y-90603150D02*
X142375700Y-91565650D01*
G75*
G02*
X142106950Y-91834400I-268750J0D01*
G01*
X141569450Y-91834400D01*
G75*
G02*
X141300700Y-91565650I0J268750D01*
G01*
X141300700Y-90603150D01*
G75*
G02*
X141569450Y-90334400I268750J0D01*
G01*
X142106950Y-90334400D01*
G75*
G02*
X142375700Y-90603150I0J-268750D01*
G01*
G37*
G04 #@! TD*
G04 #@! TO.C,R5*
G36*
G01*
X138946700Y-90603150D02*
X138946700Y-91565650D01*
G75*
G02*
X138677950Y-91834400I-268750J0D01*
G01*
X138140450Y-91834400D01*
G75*
G02*
X137871700Y-91565650I0J268750D01*
G01*
X137871700Y-90603150D01*
G75*
G02*
X138140450Y-90334400I268750J0D01*
G01*
X138677950Y-90334400D01*
G75*
G02*
X138946700Y-90603150I0J-268750D01*
G01*
G37*
G36*
G01*
X140821700Y-90603150D02*
X140821700Y-91565650D01*
G75*
G02*
X140552950Y-91834400I-268750J0D01*
G01*
X140015450Y-91834400D01*
G75*
G02*
X139746700Y-91565650I0J268750D01*
G01*
X139746700Y-90603150D01*
G75*
G02*
X140015450Y-90334400I268750J0D01*
G01*
X140552950Y-90334400D01*
G75*
G02*
X140821700Y-90603150I0J-268750D01*
G01*
G37*
G04 #@! TD*
G04 #@! TO.C,R6*
G36*
G01*
X146785250Y-66988500D02*
X145822750Y-66988500D01*
G75*
G02*
X145554000Y-66719750I0J268750D01*
G01*
X145554000Y-66182250D01*
G75*
G02*
X145822750Y-65913500I268750J0D01*
G01*
X146785250Y-65913500D01*
G75*
G02*
X147054000Y-66182250I0J-268750D01*
G01*
X147054000Y-66719750D01*
G75*
G02*
X146785250Y-66988500I-268750J0D01*
G01*
G37*
G36*
G01*
X146785250Y-68863500D02*
X145822750Y-68863500D01*
G75*
G02*
X145554000Y-68594750I0J268750D01*
G01*
X145554000Y-68057250D01*
G75*
G02*
X145822750Y-67788500I268750J0D01*
G01*
X146785250Y-67788500D01*
G75*
G02*
X147054000Y-68057250I0J-268750D01*
G01*
X147054000Y-68594750D01*
G75*
G02*
X146785250Y-68863500I-268750J0D01*
G01*
G37*
G04 #@! TD*
G04 #@! TO.C,R7*
G36*
G01*
X148746130Y-68863500D02*
X147783630Y-68863500D01*
G75*
G02*
X147514880Y-68594750I0J268750D01*
G01*
X147514880Y-68057250D01*
G75*
G02*
X147783630Y-67788500I268750J0D01*
G01*
X148746130Y-67788500D01*
G75*
G02*
X149014880Y-68057250I0J-268750D01*
G01*
X149014880Y-68594750D01*
G75*
G02*
X148746130Y-68863500I-268750J0D01*
G01*
G37*
G36*
G01*
X148746130Y-66988500D02*
X147783630Y-66988500D01*
G75*
G02*
X147514880Y-66719750I0J268750D01*
G01*
X147514880Y-66182250D01*
G75*
G02*
X147783630Y-65913500I268750J0D01*
G01*
X148746130Y-65913500D01*
G75*
G02*
X149014880Y-66182250I0J-268750D01*
G01*
X149014880Y-66719750D01*
G75*
G02*
X148746130Y-66988500I-268750J0D01*
G01*
G37*
G04 #@! TD*
G04 #@! TO.C,R8*
G36*
G01*
X166089250Y-71149500D02*
X165126750Y-71149500D01*
G75*
G02*
X164858000Y-70880750I0J268750D01*
G01*
X164858000Y-70343250D01*
G75*
G02*
X165126750Y-70074500I268750J0D01*
G01*
X166089250Y-70074500D01*
G75*
G02*
X166358000Y-70343250I0J-268750D01*
G01*
X166358000Y-70880750D01*
G75*
G02*
X166089250Y-71149500I-268750J0D01*
G01*
G37*
G36*
G01*
X166089250Y-73024500D02*
X165126750Y-73024500D01*
G75*
G02*
X164858000Y-72755750I0J268750D01*
G01*
X164858000Y-72218250D01*
G75*
G02*
X165126750Y-71949500I268750J0D01*
G01*
X166089250Y-71949500D01*
G75*
G02*
X166358000Y-72218250I0J-268750D01*
G01*
X166358000Y-72755750D01*
G75*
G02*
X166089250Y-73024500I-268750J0D01*
G01*
G37*
G04 #@! TD*
G04 #@! TO.C,R9*
G36*
G01*
X144877500Y-86587250D02*
X144877500Y-85624750D01*
G75*
G02*
X145146250Y-85356000I268750J0D01*
G01*
X145683750Y-85356000D01*
G75*
G02*
X145952500Y-85624750I0J-268750D01*
G01*
X145952500Y-86587250D01*
G75*
G02*
X145683750Y-86856000I-268750J0D01*
G01*
X145146250Y-86856000D01*
G75*
G02*
X144877500Y-86587250I0J268750D01*
G01*
G37*
G36*
G01*
X143002500Y-86587250D02*
X143002500Y-85624750D01*
G75*
G02*
X143271250Y-85356000I268750J0D01*
G01*
X143808750Y-85356000D01*
G75*
G02*
X144077500Y-85624750I0J-268750D01*
G01*
X144077500Y-86587250D01*
G75*
G02*
X143808750Y-86856000I-268750J0D01*
G01*
X143271250Y-86856000D01*
G75*
G02*
X143002500Y-86587250I0J268750D01*
G01*
G37*
G04 #@! TD*
G04 #@! TO.C,R10*
G36*
G01*
X135812450Y-96544900D02*
X134849950Y-96544900D01*
G75*
G02*
X134581200Y-96276150I0J268750D01*
G01*
X134581200Y-95738650D01*
G75*
G02*
X134849950Y-95469900I268750J0D01*
G01*
X135812450Y-95469900D01*
G75*
G02*
X136081200Y-95738650I0J-268750D01*
G01*
X136081200Y-96276150D01*
G75*
G02*
X135812450Y-96544900I-268750J0D01*
G01*
G37*
G36*
G01*
X135812450Y-94669900D02*
X134849950Y-94669900D01*
G75*
G02*
X134581200Y-94401150I0J268750D01*
G01*
X134581200Y-93863650D01*
G75*
G02*
X134849950Y-93594900I268750J0D01*
G01*
X135812450Y-93594900D01*
G75*
G02*
X136081200Y-93863650I0J-268750D01*
G01*
X136081200Y-94401150D01*
G75*
G02*
X135812450Y-94669900I-268750J0D01*
G01*
G37*
G04 #@! TD*
D16*
G04 #@! TO.C,SW1*
X185420000Y-67818000D03*
X175260000Y-67818000D03*
D17*
X176530000Y-65278000D03*
D18*
X180340000Y-67818000D03*
D17*
X182880000Y-62738000D03*
G04 #@! TD*
D14*
G04 #@! TO.C,SW2*
X124885401Y-99061001D03*
D15*
X127425401Y-99061001D03*
X129965401Y-99061001D03*
G04 #@! TD*
D17*
G04 #@! TO.C,SW3*
X182880000Y-81991200D03*
D18*
X180340000Y-87071200D03*
D17*
X176530000Y-84531200D03*
D16*
X175260000Y-87071200D03*
X185420000Y-87071200D03*
G04 #@! TD*
D19*
G04 #@! TO.C,SW4*
X165609200Y-65002800D03*
X159409200Y-65002800D03*
X165609200Y-68702800D03*
X159409200Y-68702800D03*
G04 #@! TD*
D20*
G04 #@! TO.C,U1*
X152654400Y-58877200D03*
D21*
X146354400Y-58877200D03*
X146354400Y-56577200D03*
X146354400Y-61177200D03*
G04 #@! TD*
D22*
G04 #@! TO.C,U2*
X160502600Y-95799000D03*
X159552600Y-95799000D03*
X158602600Y-95799000D03*
X158602600Y-93599000D03*
X160502600Y-93599000D03*
G04 #@! TD*
G04 #@! TO.C,U3*
G36*
G01*
X137863700Y-96192400D02*
X137863700Y-95942400D01*
G75*
G02*
X137988700Y-95817400I125000J0D01*
G01*
X139463700Y-95817400D01*
G75*
G02*
X139588700Y-95942400I0J-125000D01*
G01*
X139588700Y-96192400D01*
G75*
G02*
X139463700Y-96317400I-125000J0D01*
G01*
X137988700Y-96317400D01*
G75*
G02*
X137863700Y-96192400I0J125000D01*
G01*
G37*
G36*
G01*
X137863700Y-95542400D02*
X137863700Y-95292400D01*
G75*
G02*
X137988700Y-95167400I125000J0D01*
G01*
X139463700Y-95167400D01*
G75*
G02*
X139588700Y-95292400I0J-125000D01*
G01*
X139588700Y-95542400D01*
G75*
G02*
X139463700Y-95667400I-125000J0D01*
G01*
X137988700Y-95667400D01*
G75*
G02*
X137863700Y-95542400I0J125000D01*
G01*
G37*
G36*
G01*
X137863700Y-94892400D02*
X137863700Y-94642400D01*
G75*
G02*
X137988700Y-94517400I125000J0D01*
G01*
X139463700Y-94517400D01*
G75*
G02*
X139588700Y-94642400I0J-125000D01*
G01*
X139588700Y-94892400D01*
G75*
G02*
X139463700Y-95017400I-125000J0D01*
G01*
X137988700Y-95017400D01*
G75*
G02*
X137863700Y-94892400I0J125000D01*
G01*
G37*
G36*
G01*
X137863700Y-94242400D02*
X137863700Y-93992400D01*
G75*
G02*
X137988700Y-93867400I125000J0D01*
G01*
X139463700Y-93867400D01*
G75*
G02*
X139588700Y-93992400I0J-125000D01*
G01*
X139588700Y-94242400D01*
G75*
G02*
X139463700Y-94367400I-125000J0D01*
G01*
X137988700Y-94367400D01*
G75*
G02*
X137863700Y-94242400I0J125000D01*
G01*
G37*
G36*
G01*
X142088700Y-94242400D02*
X142088700Y-93992400D01*
G75*
G02*
X142213700Y-93867400I125000J0D01*
G01*
X143688700Y-93867400D01*
G75*
G02*
X143813700Y-93992400I0J-125000D01*
G01*
X143813700Y-94242400D01*
G75*
G02*
X143688700Y-94367400I-125000J0D01*
G01*
X142213700Y-94367400D01*
G75*
G02*
X142088700Y-94242400I0J125000D01*
G01*
G37*
G36*
G01*
X142088700Y-94892400D02*
X142088700Y-94642400D01*
G75*
G02*
X142213700Y-94517400I125000J0D01*
G01*
X143688700Y-94517400D01*
G75*
G02*
X143813700Y-94642400I0J-125000D01*
G01*
X143813700Y-94892400D01*
G75*
G02*
X143688700Y-95017400I-125000J0D01*
G01*
X142213700Y-95017400D01*
G75*
G02*
X142088700Y-94892400I0J125000D01*
G01*
G37*
G36*
G01*
X142088700Y-95542400D02*
X142088700Y-95292400D01*
G75*
G02*
X142213700Y-95167400I125000J0D01*
G01*
X143688700Y-95167400D01*
G75*
G02*
X143813700Y-95292400I0J-125000D01*
G01*
X143813700Y-95542400D01*
G75*
G02*
X143688700Y-95667400I-125000J0D01*
G01*
X142213700Y-95667400D01*
G75*
G02*
X142088700Y-95542400I0J125000D01*
G01*
G37*
G36*
G01*
X142088700Y-96192400D02*
X142088700Y-95942400D01*
G75*
G02*
X142213700Y-95817400I125000J0D01*
G01*
X143688700Y-95817400D01*
G75*
G02*
X143813700Y-95942400I0J-125000D01*
G01*
X143813700Y-96192400D01*
G75*
G02*
X143688700Y-96317400I-125000J0D01*
G01*
X142213700Y-96317400D01*
G75*
G02*
X142088700Y-96192400I0J125000D01*
G01*
G37*
G04 #@! TD*
D23*
G04 #@! TO.C,U4*
X145352000Y-71262000D03*
X146152000Y-71262000D03*
X146952000Y-71262000D03*
X147752000Y-71262000D03*
X148552000Y-71262000D03*
X149352000Y-71262000D03*
X150152000Y-71262000D03*
X150952000Y-71262000D03*
X151752000Y-71262000D03*
X152552000Y-71262000D03*
X153352000Y-71262000D03*
D24*
X155052000Y-72962000D03*
X155052000Y-73762000D03*
X155052000Y-74562000D03*
X155052000Y-75362000D03*
X155052000Y-76162000D03*
X155052000Y-76962000D03*
X155052000Y-77762000D03*
X155052000Y-78562000D03*
X155052000Y-79362000D03*
X155052000Y-80162000D03*
X155052000Y-80962000D03*
D23*
X153352000Y-82662000D03*
X152552000Y-82662000D03*
X151752000Y-82662000D03*
X150952000Y-82662000D03*
X150152000Y-82662000D03*
X149352000Y-82662000D03*
X148552000Y-82662000D03*
X147752000Y-82662000D03*
X146952000Y-82662000D03*
X146152000Y-82662000D03*
X145352000Y-82662000D03*
D24*
X143652000Y-80962000D03*
X143652000Y-80162000D03*
X143652000Y-79362000D03*
X143652000Y-78562000D03*
X143652000Y-77762000D03*
X143652000Y-76962000D03*
X143652000Y-76162000D03*
X143652000Y-75362000D03*
X143652000Y-74562000D03*
X143652000Y-73762000D03*
X143652000Y-72962000D03*
G04 #@! TD*
D25*
G04 #@! TO.C,Y1*
X158154000Y-78062000D03*
X158154000Y-75862000D03*
X159854000Y-75862000D03*
X159854000Y-78062000D03*
G04 #@! TD*
M02*
