G04 #@! TF.GenerationSoftware,KiCad,Pcbnew,(5.1.6)-1*
G04 #@! TF.CreationDate,2020-11-30T20:52:42-08:00*
G04 #@! TF.ProjectId,pcb2,70636232-2e6b-4696-9361-645f70636258,rev?*
G04 #@! TF.SameCoordinates,Original*
G04 #@! TF.FileFunction,Copper,L1,Top*
G04 #@! TF.FilePolarity,Positive*
%FSLAX46Y46*%
G04 Gerber Fmt 4.6, Leading zero omitted, Abs format (unit mm)*
G04 Created by KiCad (PCBNEW (5.1.6)-1) date 2020-11-30 20:52:42*
%MOMM*%
%LPD*%
G01*
G04 APERTURE LIST*
G04 #@! TA.AperFunction,ComponentPad*
%ADD10C,1.524000*%
G04 #@! TD*
G04 #@! TA.AperFunction,ComponentPad*
%ADD11C,1.930000*%
G04 #@! TD*
G04 #@! TA.AperFunction,ComponentPad*
%ADD12R,1.700000X1.700000*%
G04 #@! TD*
G04 #@! TA.AperFunction,ComponentPad*
%ADD13O,1.700000X1.700000*%
G04 #@! TD*
G04 #@! TA.AperFunction,ComponentPad*
%ADD14C,2.250000*%
G04 #@! TD*
G04 #@! TA.AperFunction,ViaPad*
%ADD15C,0.800000*%
G04 #@! TD*
G04 #@! TA.AperFunction,Conductor*
%ADD16C,0.250000*%
G04 #@! TD*
G04 #@! TA.AperFunction,Conductor*
%ADD17C,0.254000*%
G04 #@! TD*
G04 APERTURE END LIST*
D10*
G04 #@! TO.P,JP1,1*
G04 #@! TO.N,Net-(JP1-Pad1)*
X127000000Y-63500000D03*
G04 #@! TO.P,JP1,2*
G04 #@! TO.N,+3V3*
X127000000Y-66040000D03*
G04 #@! TO.P,JP1,3*
G04 #@! TO.N,GND*
X127000000Y-68580000D03*
G04 #@! TO.P,JP1,4*
G04 #@! TO.N,SCK*
X127000000Y-71120000D03*
G04 #@! TO.P,JP1,5*
G04 #@! TO.N,MISO*
X127000000Y-73660000D03*
G04 #@! TO.P,JP1,6*
G04 #@! TO.N,MOSI*
X127000000Y-76200000D03*
G04 #@! TO.P,JP1,7*
G04 #@! TO.N,TCS*
X127000000Y-78740000D03*
G04 #@! TO.P,JP1,8*
G04 #@! TO.N,RST*
X127000000Y-81280000D03*
G04 #@! TO.P,JP1,9*
G04 #@! TO.N,DC*
X127000000Y-83820000D03*
G04 #@! TO.P,JP1,10*
G04 #@! TO.N,CCS*
X127000000Y-86360000D03*
G04 #@! TO.P,JP1,11*
G04 #@! TO.N,LITE*
X127000000Y-88900000D03*
G04 #@! TD*
D11*
G04 #@! TO.P,A1,8*
G04 #@! TO.N,Net-(A1-Pad8)*
X110617000Y-64897000D03*
G04 #@! TO.P,A1,7*
G04 #@! TO.N,Net-(A1-Pad7)*
X108077000Y-64897000D03*
G04 #@! TO.P,A1,6*
G04 #@! TO.N,D+*
X105537000Y-64897000D03*
G04 #@! TO.P,A1,5*
G04 #@! TO.N,D-*
X102997000Y-64897000D03*
G04 #@! TO.P,A1,4*
G04 #@! TO.N,Net-(A1-Pad4)*
X100457000Y-64897000D03*
G04 #@! TO.P,A1,3*
G04 #@! TO.N,Net-(A1-Pad3)*
X97917000Y-64897000D03*
G04 #@! TO.P,A1,2*
G04 #@! TO.N,VBUS*
X95377000Y-64897000D03*
G04 #@! TO.P,A1,1*
G04 #@! TO.N,EN*
X92837000Y-64897000D03*
G04 #@! TD*
D12*
G04 #@! TO.P,JP2,1*
G04 #@! TO.N,VBAT*
X151104600Y-95885000D03*
D13*
G04 #@! TO.P,JP2,2*
G04 #@! TO.N,GND*
X151104600Y-93345000D03*
G04 #@! TD*
D10*
G04 #@! TO.P,JP3,5*
G04 #@! TO.N,SW*
X121920000Y-71120000D03*
G04 #@! TO.P,JP3,4*
G04 #@! TO.N,VRy*
X121920000Y-73660000D03*
G04 #@! TO.P,JP3,3*
G04 #@! TO.N,VRx*
X121920000Y-76200000D03*
G04 #@! TO.P,JP3,2*
G04 #@! TO.N,+5V*
X121920000Y-78740000D03*
G04 #@! TO.P,JP3,1*
G04 #@! TO.N,GND*
X121920000Y-81280000D03*
G04 #@! TD*
D14*
G04 #@! TO.P,SW1,1*
G04 #@! TO.N,B1*
X176530000Y-65278000D03*
G04 #@! TO.P,SW1,2*
G04 #@! TO.N,GND*
X182880000Y-62738000D03*
G04 #@! TD*
D12*
G04 #@! TO.P,SW2,1*
G04 #@! TO.N,+5V*
X124885401Y-99061001D03*
D13*
G04 #@! TO.P,SW2,2*
G04 #@! TO.N,Net-(D1-Pad1)*
X127425401Y-99061001D03*
G04 #@! TO.P,SW2,3*
G04 #@! TO.N,N/C*
X129965401Y-99061001D03*
G04 #@! TD*
D14*
G04 #@! TO.P,SW3,2*
G04 #@! TO.N,GND*
X182880000Y-81991200D03*
G04 #@! TO.P,SW3,1*
G04 #@! TO.N,B2*
X176530000Y-84531200D03*
G04 #@! TD*
D15*
G04 #@! TO.N,GND*
X121056400Y-93319600D03*
X136702800Y-90982800D03*
X131724400Y-80416400D03*
X117043200Y-64262000D03*
G04 #@! TO.N,+5V*
X138684000Y-70866000D03*
X138684000Y-83058000D03*
X144526000Y-66294000D03*
X153416000Y-66294000D03*
X156972000Y-70866000D03*
X153314400Y-87833200D03*
X141020800Y-62788800D03*
X118872000Y-90474800D03*
X119075200Y-78689200D03*
X129540000Y-79959200D03*
G04 #@! TO.N,+3V3*
X141224000Y-59791600D03*
G04 #@! TO.N,VBUS*
X157073600Y-98933000D03*
X157073600Y-90805000D03*
G04 #@! TO.N,SCK*
X155105051Y-69920143D03*
X141122400Y-67919600D03*
G04 #@! TO.N,MISO*
X155092400Y-71932800D03*
X141986000Y-69748400D03*
G04 #@! TO.N,MOSI*
X155092400Y-70932797D03*
X141122400Y-68919603D03*
G04 #@! TO.N,CCS*
X137820400Y-75641200D03*
X139649200Y-75641200D03*
X143560800Y-71120000D03*
G04 #@! TO.N,SW*
X156718000Y-79756000D03*
G04 #@! TO.N,VRy*
X130179653Y-78100347D03*
G04 #@! TD*
D16*
G04 #@! TO.N,GND*
X121056400Y-93319600D02*
X123393200Y-90982800D01*
X123393200Y-90982800D02*
X136702800Y-90982800D01*
X130904654Y-72484654D02*
X127000000Y-68580000D01*
X128205201Y-82367001D02*
X130904654Y-79667548D01*
X123007001Y-82367001D02*
X128205201Y-82367001D01*
X130904654Y-79667548D02*
X130904654Y-72484654D01*
X121920000Y-81280000D02*
X123007001Y-82367001D01*
X130904654Y-79667548D02*
X130975548Y-79667548D01*
X130975548Y-79667548D02*
X131724400Y-80416400D01*
X121361200Y-68580000D02*
X127000000Y-68580000D01*
X117043200Y-64262000D02*
X121361200Y-68580000D01*
G04 #@! TO.N,+5V*
X138684000Y-70866000D02*
X138684000Y-83058000D01*
X138684000Y-70866000D02*
X138684000Y-69088000D01*
X138684000Y-69088000D02*
X141478000Y-66294000D01*
X141478000Y-66294000D02*
X144526000Y-66294000D01*
X144526000Y-66294000D02*
X153416000Y-66294000D01*
X153416000Y-66294000D02*
X155448000Y-66294000D01*
X155448000Y-66294000D02*
X156972000Y-67818000D01*
X156972000Y-67818000D02*
X156972000Y-70866000D01*
X153314400Y-87833200D02*
X141427200Y-87833200D01*
X138684000Y-85090000D02*
X138684000Y-83058000D01*
X141427200Y-87833200D02*
X138684000Y-85090000D01*
X141020800Y-62788800D02*
X144526000Y-66294000D01*
X118872000Y-90474800D02*
X118872000Y-78892400D01*
X118872000Y-78892400D02*
X119075200Y-78689200D01*
X123139200Y-79959200D02*
X121920000Y-78740000D01*
X129540000Y-79959200D02*
X123139200Y-79959200D01*
G04 #@! TO.N,+3V3*
X127000000Y-66040000D02*
X134975600Y-66040000D01*
X134975600Y-66040000D02*
X141224000Y-59791600D01*
G04 #@! TO.N,VBUS*
X157073600Y-98933000D02*
X157073600Y-90805000D01*
G04 #@! TO.N,SCK*
X155105051Y-69920143D02*
X153104508Y-67919600D01*
X153104508Y-67919600D02*
X141122400Y-67919600D01*
G04 #@! TO.N,MISO*
X153314400Y-70720485D02*
X153314400Y-69791207D01*
X155092400Y-71932800D02*
X154526715Y-71932800D01*
X154526715Y-71932800D02*
X153314400Y-70720485D01*
X153314400Y-69791207D02*
X152342813Y-68819620D01*
X152342813Y-68819620D02*
X142484390Y-68819620D01*
X142484390Y-68819620D02*
X142484390Y-69250010D01*
X142484390Y-69250010D02*
X141986000Y-69748400D01*
G04 #@! TO.N,MOSI*
X155092400Y-70932797D02*
X152529213Y-68369610D01*
X152529213Y-68369610D02*
X142297990Y-68369610D01*
X142297990Y-68369610D02*
X141747997Y-68919603D01*
X141747997Y-68919603D02*
X141122400Y-68919603D01*
G04 #@! TO.N,CCS*
X127000000Y-86360000D02*
X137718800Y-75641200D01*
X137718800Y-75641200D02*
X137820400Y-75641200D01*
X139649200Y-75641200D02*
X139649200Y-75031600D01*
X139649200Y-75031600D02*
X143560800Y-71120000D01*
G04 #@! TO.N,SW*
X156718000Y-85502602D02*
X156718000Y-79756000D01*
X121920000Y-71120000D02*
X120832999Y-72207001D01*
X120832999Y-84341761D02*
X126478239Y-89987001D01*
X126478239Y-89987001D02*
X152233601Y-89987001D01*
X120832999Y-72207001D02*
X120832999Y-84341761D01*
X152233601Y-89987001D02*
X156718000Y-85502602D01*
G04 #@! TO.N,VRy*
X130179653Y-77770891D02*
X130179653Y-78100347D01*
X127521761Y-75112999D02*
X130179653Y-77770891D01*
X121920000Y-73660000D02*
X123372999Y-75112999D01*
X123372999Y-75112999D02*
X127521761Y-75112999D01*
G04 #@! TD*
D17*
G04 #@! TO.N,GND*
G36*
X189840001Y-100940000D02*
G01*
X92100000Y-100940000D01*
X92100000Y-98211001D01*
X123397329Y-98211001D01*
X123397329Y-99911001D01*
X123409589Y-100035483D01*
X123445899Y-100155181D01*
X123504864Y-100265495D01*
X123584216Y-100362186D01*
X123680907Y-100441538D01*
X123791221Y-100500503D01*
X123910919Y-100536813D01*
X124035401Y-100549073D01*
X125735401Y-100549073D01*
X125859883Y-100536813D01*
X125979581Y-100500503D01*
X126089895Y-100441538D01*
X126186586Y-100362186D01*
X126265938Y-100265495D01*
X126324903Y-100155181D01*
X126346914Y-100082621D01*
X126478769Y-100214476D01*
X126721990Y-100376991D01*
X126992243Y-100488933D01*
X127279141Y-100546001D01*
X127571661Y-100546001D01*
X127858559Y-100488933D01*
X128128812Y-100376991D01*
X128372033Y-100214476D01*
X128578876Y-100007633D01*
X128695401Y-99833241D01*
X128811926Y-100007633D01*
X129018769Y-100214476D01*
X129261990Y-100376991D01*
X129532243Y-100488933D01*
X129819141Y-100546001D01*
X130111661Y-100546001D01*
X130398559Y-100488933D01*
X130668812Y-100376991D01*
X130912033Y-100214476D01*
X131118876Y-100007633D01*
X131281391Y-99764412D01*
X131393333Y-99494159D01*
X131450401Y-99207261D01*
X131450401Y-98914741D01*
X131393333Y-98627843D01*
X131281391Y-98357590D01*
X131118876Y-98114369D01*
X130912033Y-97907526D01*
X130668812Y-97745011D01*
X130398559Y-97633069D01*
X130111661Y-97576001D01*
X129819141Y-97576001D01*
X129532243Y-97633069D01*
X129261990Y-97745011D01*
X129018769Y-97907526D01*
X128811926Y-98114369D01*
X128695401Y-98288761D01*
X128578876Y-98114369D01*
X128372033Y-97907526D01*
X128128812Y-97745011D01*
X127858559Y-97633069D01*
X127571661Y-97576001D01*
X127279141Y-97576001D01*
X126992243Y-97633069D01*
X126721990Y-97745011D01*
X126478769Y-97907526D01*
X126346914Y-98039381D01*
X126324903Y-97966821D01*
X126265938Y-97856507D01*
X126186586Y-97759816D01*
X126089895Y-97680464D01*
X125979581Y-97621499D01*
X125859883Y-97585189D01*
X125735401Y-97572929D01*
X124035401Y-97572929D01*
X123910919Y-97585189D01*
X123791221Y-97621499D01*
X123680907Y-97680464D01*
X123584216Y-97759816D01*
X123504864Y-97856507D01*
X123445899Y-97966821D01*
X123409589Y-98086519D01*
X123397329Y-98211001D01*
X92100000Y-98211001D01*
X92100000Y-95035000D01*
X149616528Y-95035000D01*
X149616528Y-96735000D01*
X149628788Y-96859482D01*
X149665098Y-96979180D01*
X149724063Y-97089494D01*
X149803415Y-97186185D01*
X149900106Y-97265537D01*
X150010420Y-97324502D01*
X150130118Y-97360812D01*
X150254600Y-97373072D01*
X151954600Y-97373072D01*
X152079082Y-97360812D01*
X152198780Y-97324502D01*
X152309094Y-97265537D01*
X152405785Y-97186185D01*
X152485137Y-97089494D01*
X152544102Y-96979180D01*
X152580412Y-96859482D01*
X152592672Y-96735000D01*
X152592672Y-95035000D01*
X152580412Y-94910518D01*
X152544102Y-94790820D01*
X152485137Y-94680506D01*
X152405785Y-94583815D01*
X152309094Y-94504463D01*
X152198780Y-94445498D01*
X152118134Y-94421034D01*
X152202188Y-94345269D01*
X152376241Y-94111920D01*
X152501425Y-93849099D01*
X152546076Y-93701890D01*
X152424755Y-93472000D01*
X151231600Y-93472000D01*
X151231600Y-93492000D01*
X150977600Y-93492000D01*
X150977600Y-93472000D01*
X149784445Y-93472000D01*
X149663124Y-93701890D01*
X149707775Y-93849099D01*
X149832959Y-94111920D01*
X150007012Y-94345269D01*
X150091066Y-94421034D01*
X150010420Y-94445498D01*
X149900106Y-94504463D01*
X149803415Y-94583815D01*
X149724063Y-94680506D01*
X149665098Y-94790820D01*
X149628788Y-94910518D01*
X149616528Y-95035000D01*
X92100000Y-95035000D01*
X92100000Y-92988110D01*
X149663124Y-92988110D01*
X149784445Y-93218000D01*
X150977600Y-93218000D01*
X150977600Y-92024186D01*
X151231600Y-92024186D01*
X151231600Y-93218000D01*
X152424755Y-93218000D01*
X152546076Y-92988110D01*
X152501425Y-92840901D01*
X152376241Y-92578080D01*
X152202188Y-92344731D01*
X151985955Y-92149822D01*
X151735852Y-92000843D01*
X151461491Y-91903519D01*
X151231600Y-92024186D01*
X150977600Y-92024186D01*
X150747709Y-91903519D01*
X150473348Y-92000843D01*
X150223245Y-92149822D01*
X150007012Y-92344731D01*
X149832959Y-92578080D01*
X149707775Y-92840901D01*
X149663124Y-92988110D01*
X92100000Y-92988110D01*
X92100000Y-90372861D01*
X117837000Y-90372861D01*
X117837000Y-90576739D01*
X117876774Y-90776698D01*
X117954795Y-90965056D01*
X118068063Y-91134574D01*
X118212226Y-91278737D01*
X118381744Y-91392005D01*
X118570102Y-91470026D01*
X118770061Y-91509800D01*
X118973939Y-91509800D01*
X119173898Y-91470026D01*
X119362256Y-91392005D01*
X119531774Y-91278737D01*
X119675937Y-91134574D01*
X119789205Y-90965056D01*
X119867226Y-90776698D01*
X119907000Y-90576739D01*
X119907000Y-90372861D01*
X119867226Y-90172902D01*
X119789205Y-89984544D01*
X119675937Y-89815026D01*
X119632000Y-89771089D01*
X119632000Y-79561942D01*
X119734974Y-79493137D01*
X119879137Y-79348974D01*
X119992405Y-79179456D01*
X120070426Y-78991098D01*
X120073000Y-78978160D01*
X120073000Y-84304429D01*
X120069323Y-84341761D01*
X120083997Y-84490746D01*
X120127453Y-84634007D01*
X120198025Y-84766037D01*
X120224055Y-84797754D01*
X120292999Y-84881762D01*
X120321997Y-84905560D01*
X125914440Y-90498004D01*
X125938238Y-90527002D01*
X125967236Y-90550800D01*
X126053962Y-90621975D01*
X126185992Y-90692547D01*
X126329253Y-90736004D01*
X126440906Y-90747001D01*
X126440916Y-90747001D01*
X126478239Y-90750677D01*
X126515562Y-90747001D01*
X152196279Y-90747001D01*
X152233601Y-90750677D01*
X152270923Y-90747001D01*
X152270934Y-90747001D01*
X152382587Y-90736004D01*
X152491187Y-90703061D01*
X156038600Y-90703061D01*
X156038600Y-90906939D01*
X156078374Y-91106898D01*
X156156395Y-91295256D01*
X156269663Y-91464774D01*
X156313601Y-91508712D01*
X156313600Y-98229289D01*
X156269663Y-98273226D01*
X156156395Y-98442744D01*
X156078374Y-98631102D01*
X156038600Y-98831061D01*
X156038600Y-99034939D01*
X156078374Y-99234898D01*
X156156395Y-99423256D01*
X156269663Y-99592774D01*
X156413826Y-99736937D01*
X156583344Y-99850205D01*
X156771702Y-99928226D01*
X156971661Y-99968000D01*
X157175539Y-99968000D01*
X157375498Y-99928226D01*
X157563856Y-99850205D01*
X157733374Y-99736937D01*
X157877537Y-99592774D01*
X157990805Y-99423256D01*
X158068826Y-99234898D01*
X158108600Y-99034939D01*
X158108600Y-98831061D01*
X158068826Y-98631102D01*
X157990805Y-98442744D01*
X157877537Y-98273226D01*
X157833600Y-98229289D01*
X157833600Y-91508711D01*
X157877537Y-91464774D01*
X157990805Y-91295256D01*
X158068826Y-91106898D01*
X158108600Y-90906939D01*
X158108600Y-90703061D01*
X158068826Y-90503102D01*
X157990805Y-90314744D01*
X157877537Y-90145226D01*
X157733374Y-90001063D01*
X157563856Y-89887795D01*
X157375498Y-89809774D01*
X157175539Y-89770000D01*
X156971661Y-89770000D01*
X156771702Y-89809774D01*
X156583344Y-89887795D01*
X156413826Y-90001063D01*
X156269663Y-90145226D01*
X156156395Y-90314744D01*
X156078374Y-90503102D01*
X156038600Y-90703061D01*
X152491187Y-90703061D01*
X152525848Y-90692547D01*
X152657877Y-90621975D01*
X152773602Y-90527002D01*
X152797405Y-90497998D01*
X156372925Y-86922478D01*
X173750000Y-86922478D01*
X173750000Y-87219922D01*
X173808029Y-87511651D01*
X173921856Y-87786453D01*
X174087107Y-88033769D01*
X174297431Y-88244093D01*
X174544747Y-88409344D01*
X174819549Y-88523171D01*
X175111278Y-88581200D01*
X175408722Y-88581200D01*
X175700451Y-88523171D01*
X175975253Y-88409344D01*
X176222569Y-88244093D01*
X176432893Y-88033769D01*
X176598144Y-87786453D01*
X176711971Y-87511651D01*
X176770000Y-87219922D01*
X176770000Y-86922478D01*
X176748080Y-86812276D01*
X177711100Y-86812276D01*
X177711100Y-87330124D01*
X177812127Y-87838022D01*
X178010299Y-88316451D01*
X178298000Y-88747026D01*
X178664174Y-89113200D01*
X179094749Y-89400901D01*
X179573178Y-89599073D01*
X180081076Y-89700100D01*
X180598924Y-89700100D01*
X181106822Y-89599073D01*
X181585251Y-89400901D01*
X182015826Y-89113200D01*
X182382000Y-88747026D01*
X182669701Y-88316451D01*
X182867873Y-87838022D01*
X182968900Y-87330124D01*
X182968900Y-86922478D01*
X183910000Y-86922478D01*
X183910000Y-87219922D01*
X183968029Y-87511651D01*
X184081856Y-87786453D01*
X184247107Y-88033769D01*
X184457431Y-88244093D01*
X184704747Y-88409344D01*
X184979549Y-88523171D01*
X185271278Y-88581200D01*
X185568722Y-88581200D01*
X185860451Y-88523171D01*
X186135253Y-88409344D01*
X186382569Y-88244093D01*
X186592893Y-88033769D01*
X186758144Y-87786453D01*
X186871971Y-87511651D01*
X186930000Y-87219922D01*
X186930000Y-86922478D01*
X186871971Y-86630749D01*
X186758144Y-86355947D01*
X186592893Y-86108631D01*
X186382569Y-85898307D01*
X186135253Y-85733056D01*
X185860451Y-85619229D01*
X185568722Y-85561200D01*
X185271278Y-85561200D01*
X184979549Y-85619229D01*
X184704747Y-85733056D01*
X184457431Y-85898307D01*
X184247107Y-86108631D01*
X184081856Y-86355947D01*
X183968029Y-86630749D01*
X183910000Y-86922478D01*
X182968900Y-86922478D01*
X182968900Y-86812276D01*
X182867873Y-86304378D01*
X182669701Y-85825949D01*
X182382000Y-85395374D01*
X182015826Y-85029200D01*
X181585251Y-84741499D01*
X181106822Y-84543327D01*
X180598924Y-84442300D01*
X180081076Y-84442300D01*
X179573178Y-84543327D01*
X179094749Y-84741499D01*
X178664174Y-85029200D01*
X178298000Y-85395374D01*
X178010299Y-85825949D01*
X177812127Y-86304378D01*
X177711100Y-86812276D01*
X176748080Y-86812276D01*
X176711971Y-86630749D01*
X176598144Y-86355947D01*
X176554882Y-86291200D01*
X176703345Y-86291200D01*
X177043373Y-86223564D01*
X177363673Y-86090892D01*
X177651935Y-85898281D01*
X177897081Y-85653135D01*
X178089692Y-85364873D01*
X178222364Y-85044573D01*
X178290000Y-84704545D01*
X178290000Y-84357855D01*
X178222364Y-84017827D01*
X178089692Y-83697527D01*
X177897081Y-83409265D01*
X177703547Y-83215731D01*
X181835074Y-83215731D01*
X181945921Y-83492914D01*
X182256840Y-83646289D01*
X182591705Y-83736060D01*
X182937650Y-83758776D01*
X183281380Y-83713566D01*
X183609685Y-83602166D01*
X183814079Y-83492914D01*
X183924926Y-83215731D01*
X182880000Y-82170805D01*
X181835074Y-83215731D01*
X177703547Y-83215731D01*
X177651935Y-83164119D01*
X177363673Y-82971508D01*
X177043373Y-82838836D01*
X176703345Y-82771200D01*
X176356655Y-82771200D01*
X176016627Y-82838836D01*
X175696327Y-82971508D01*
X175408065Y-83164119D01*
X175162919Y-83409265D01*
X174970308Y-83697527D01*
X174837636Y-84017827D01*
X174770000Y-84357855D01*
X174770000Y-84704545D01*
X174837636Y-85044573D01*
X174970308Y-85364873D01*
X175102638Y-85562919D01*
X174819549Y-85619229D01*
X174544747Y-85733056D01*
X174297431Y-85898307D01*
X174087107Y-86108631D01*
X173921856Y-86355947D01*
X173808029Y-86630749D01*
X173750000Y-86922478D01*
X156372925Y-86922478D01*
X157229004Y-86066400D01*
X157258001Y-86042603D01*
X157284332Y-86010519D01*
X157352974Y-85926879D01*
X157423546Y-85794849D01*
X157442290Y-85733056D01*
X157467003Y-85651588D01*
X157478000Y-85539935D01*
X157478000Y-85539925D01*
X157481676Y-85502602D01*
X157478000Y-85465279D01*
X157478000Y-82048850D01*
X181112424Y-82048850D01*
X181157634Y-82392580D01*
X181269034Y-82720885D01*
X181378286Y-82925279D01*
X181655469Y-83036126D01*
X182700395Y-81991200D01*
X183059605Y-81991200D01*
X184104531Y-83036126D01*
X184381714Y-82925279D01*
X184535089Y-82614360D01*
X184624860Y-82279495D01*
X184647576Y-81933550D01*
X184602366Y-81589820D01*
X184490966Y-81261515D01*
X184381714Y-81057121D01*
X184104531Y-80946274D01*
X183059605Y-81991200D01*
X182700395Y-81991200D01*
X181655469Y-80946274D01*
X181378286Y-81057121D01*
X181224911Y-81368040D01*
X181135140Y-81702905D01*
X181112424Y-82048850D01*
X157478000Y-82048850D01*
X157478000Y-80766669D01*
X181835074Y-80766669D01*
X182880000Y-81811595D01*
X183924926Y-80766669D01*
X183814079Y-80489486D01*
X183503160Y-80336111D01*
X183168295Y-80246340D01*
X182822350Y-80223624D01*
X182478620Y-80268834D01*
X182150315Y-80380234D01*
X181945921Y-80489486D01*
X181835074Y-80766669D01*
X157478000Y-80766669D01*
X157478000Y-80459711D01*
X157521937Y-80415774D01*
X157635205Y-80246256D01*
X157713226Y-80057898D01*
X157753000Y-79857939D01*
X157753000Y-79654061D01*
X157713226Y-79454102D01*
X157635205Y-79265744D01*
X157521937Y-79096226D01*
X157377774Y-78952063D01*
X157208256Y-78838795D01*
X157019898Y-78760774D01*
X156819939Y-78721000D01*
X156616061Y-78721000D01*
X156416102Y-78760774D01*
X156227744Y-78838795D01*
X156058226Y-78952063D01*
X155914063Y-79096226D01*
X155800795Y-79265744D01*
X155722774Y-79454102D01*
X155683000Y-79654061D01*
X155683000Y-79857939D01*
X155722774Y-80057898D01*
X155800795Y-80246256D01*
X155914063Y-80415774D01*
X155958001Y-80459712D01*
X155958000Y-85187800D01*
X154045356Y-87100445D01*
X153974174Y-87029263D01*
X153804656Y-86915995D01*
X153616298Y-86837974D01*
X153416339Y-86798200D01*
X153212461Y-86798200D01*
X153012502Y-86837974D01*
X152824144Y-86915995D01*
X152654626Y-87029263D01*
X152610689Y-87073200D01*
X141742002Y-87073200D01*
X139444000Y-84775199D01*
X139444000Y-83761711D01*
X139487937Y-83717774D01*
X139601205Y-83548256D01*
X139679226Y-83359898D01*
X139719000Y-83159939D01*
X139719000Y-82956061D01*
X139679226Y-82756102D01*
X139601205Y-82567744D01*
X139487937Y-82398226D01*
X139444000Y-82354289D01*
X139444000Y-76655660D01*
X139547261Y-76676200D01*
X139751139Y-76676200D01*
X139951098Y-76636426D01*
X140139456Y-76558405D01*
X140308974Y-76445137D01*
X140453137Y-76300974D01*
X140566405Y-76131456D01*
X140644426Y-75943098D01*
X140684200Y-75743139D01*
X140684200Y-75539261D01*
X140644426Y-75339302D01*
X140577609Y-75177992D01*
X143600602Y-72155000D01*
X143662739Y-72155000D01*
X143862698Y-72115226D01*
X144051056Y-72037205D01*
X144220574Y-71923937D01*
X144364737Y-71779774D01*
X144478005Y-71610256D01*
X144556026Y-71421898D01*
X144595800Y-71221939D01*
X144595800Y-71018061D01*
X144556026Y-70818102D01*
X144478005Y-70629744D01*
X144364737Y-70460226D01*
X144220574Y-70316063D01*
X144051056Y-70202795D01*
X143862698Y-70124774D01*
X143662739Y-70085000D01*
X143458861Y-70085000D01*
X143258902Y-70124774D01*
X143070544Y-70202795D01*
X142901026Y-70316063D01*
X142756863Y-70460226D01*
X142643595Y-70629744D01*
X142565574Y-70818102D01*
X142525800Y-71018061D01*
X142525800Y-71080198D01*
X139444000Y-74161999D01*
X139444000Y-71569711D01*
X139487937Y-71525774D01*
X139601205Y-71356256D01*
X139679226Y-71167898D01*
X139719000Y-70967939D01*
X139719000Y-70764061D01*
X139679226Y-70564102D01*
X139601205Y-70375744D01*
X139487937Y-70206226D01*
X139444000Y-70162289D01*
X139444000Y-69402801D01*
X140101867Y-68744935D01*
X140087400Y-68817664D01*
X140087400Y-69021542D01*
X140127174Y-69221501D01*
X140205195Y-69409859D01*
X140318463Y-69579377D01*
X140462626Y-69723540D01*
X140632144Y-69836808D01*
X140820502Y-69914829D01*
X140969732Y-69944512D01*
X140990774Y-70050298D01*
X141068795Y-70238656D01*
X141182063Y-70408174D01*
X141326226Y-70552337D01*
X141495744Y-70665605D01*
X141684102Y-70743626D01*
X141884061Y-70783400D01*
X142087939Y-70783400D01*
X142287898Y-70743626D01*
X142476256Y-70665605D01*
X142645774Y-70552337D01*
X142789937Y-70408174D01*
X142903205Y-70238656D01*
X142981226Y-70050298D01*
X143021000Y-69850339D01*
X143021000Y-69792794D01*
X143024391Y-69790011D01*
X143111984Y-69683279D01*
X143119364Y-69674287D01*
X143169965Y-69579620D01*
X152028012Y-69579620D01*
X152554401Y-70106009D01*
X152554400Y-70683162D01*
X152550724Y-70720485D01*
X152554400Y-70757807D01*
X152554400Y-70757817D01*
X152565397Y-70869470D01*
X152595267Y-70967939D01*
X152608854Y-71012731D01*
X152679426Y-71144761D01*
X152719271Y-71193311D01*
X152774399Y-71260486D01*
X152803403Y-71284289D01*
X153962916Y-72443803D01*
X153986714Y-72472801D01*
X154102439Y-72567774D01*
X154234468Y-72638346D01*
X154377676Y-72681787D01*
X154432626Y-72736737D01*
X154602144Y-72850005D01*
X154790502Y-72928026D01*
X154990461Y-72967800D01*
X155194339Y-72967800D01*
X155394298Y-72928026D01*
X155582656Y-72850005D01*
X155752174Y-72736737D01*
X155896337Y-72592574D01*
X156009605Y-72423056D01*
X156087626Y-72234698D01*
X156127400Y-72034739D01*
X156127400Y-71830861D01*
X156087626Y-71630902D01*
X156009605Y-71442544D01*
X156003093Y-71432799D01*
X156009605Y-71423053D01*
X156046034Y-71335106D01*
X156054795Y-71356256D01*
X156168063Y-71525774D01*
X156312226Y-71669937D01*
X156481744Y-71783205D01*
X156670102Y-71861226D01*
X156870061Y-71901000D01*
X157073939Y-71901000D01*
X157273898Y-71861226D01*
X157462256Y-71783205D01*
X157631774Y-71669937D01*
X157775937Y-71525774D01*
X157889205Y-71356256D01*
X157967226Y-71167898D01*
X158007000Y-70967939D01*
X158007000Y-70764061D01*
X157967226Y-70564102D01*
X157889205Y-70375744D01*
X157775937Y-70206226D01*
X157732000Y-70162289D01*
X157732000Y-67855322D01*
X157735676Y-67817999D01*
X157732000Y-67780676D01*
X157732000Y-67780667D01*
X157721030Y-67669278D01*
X173750000Y-67669278D01*
X173750000Y-67966722D01*
X173808029Y-68258451D01*
X173921856Y-68533253D01*
X174087107Y-68780569D01*
X174297431Y-68990893D01*
X174544747Y-69156144D01*
X174819549Y-69269971D01*
X175111278Y-69328000D01*
X175408722Y-69328000D01*
X175700451Y-69269971D01*
X175975253Y-69156144D01*
X176222569Y-68990893D01*
X176432893Y-68780569D01*
X176598144Y-68533253D01*
X176711971Y-68258451D01*
X176770000Y-67966722D01*
X176770000Y-67669278D01*
X176748080Y-67559076D01*
X177711100Y-67559076D01*
X177711100Y-68076924D01*
X177812127Y-68584822D01*
X178010299Y-69063251D01*
X178298000Y-69493826D01*
X178664174Y-69860000D01*
X179094749Y-70147701D01*
X179573178Y-70345873D01*
X180081076Y-70446900D01*
X180598924Y-70446900D01*
X181106822Y-70345873D01*
X181585251Y-70147701D01*
X182015826Y-69860000D01*
X182382000Y-69493826D01*
X182669701Y-69063251D01*
X182867873Y-68584822D01*
X182968900Y-68076924D01*
X182968900Y-67669278D01*
X183910000Y-67669278D01*
X183910000Y-67966722D01*
X183968029Y-68258451D01*
X184081856Y-68533253D01*
X184247107Y-68780569D01*
X184457431Y-68990893D01*
X184704747Y-69156144D01*
X184979549Y-69269971D01*
X185271278Y-69328000D01*
X185568722Y-69328000D01*
X185860451Y-69269971D01*
X186135253Y-69156144D01*
X186382569Y-68990893D01*
X186592893Y-68780569D01*
X186758144Y-68533253D01*
X186871971Y-68258451D01*
X186930000Y-67966722D01*
X186930000Y-67669278D01*
X186871971Y-67377549D01*
X186758144Y-67102747D01*
X186592893Y-66855431D01*
X186382569Y-66645107D01*
X186135253Y-66479856D01*
X185860451Y-66366029D01*
X185568722Y-66308000D01*
X185271278Y-66308000D01*
X184979549Y-66366029D01*
X184704747Y-66479856D01*
X184457431Y-66645107D01*
X184247107Y-66855431D01*
X184081856Y-67102747D01*
X183968029Y-67377549D01*
X183910000Y-67669278D01*
X182968900Y-67669278D01*
X182968900Y-67559076D01*
X182867873Y-67051178D01*
X182669701Y-66572749D01*
X182382000Y-66142174D01*
X182015826Y-65776000D01*
X181585251Y-65488299D01*
X181106822Y-65290127D01*
X180598924Y-65189100D01*
X180081076Y-65189100D01*
X179573178Y-65290127D01*
X179094749Y-65488299D01*
X178664174Y-65776000D01*
X178298000Y-66142174D01*
X178010299Y-66572749D01*
X177812127Y-67051178D01*
X177711100Y-67559076D01*
X176748080Y-67559076D01*
X176711971Y-67377549D01*
X176598144Y-67102747D01*
X176554882Y-67038000D01*
X176703345Y-67038000D01*
X177043373Y-66970364D01*
X177363673Y-66837692D01*
X177651935Y-66645081D01*
X177897081Y-66399935D01*
X178089692Y-66111673D01*
X178222364Y-65791373D01*
X178290000Y-65451345D01*
X178290000Y-65104655D01*
X178222364Y-64764627D01*
X178089692Y-64444327D01*
X177897081Y-64156065D01*
X177703547Y-63962531D01*
X181835074Y-63962531D01*
X181945921Y-64239714D01*
X182256840Y-64393089D01*
X182591705Y-64482860D01*
X182937650Y-64505576D01*
X183281380Y-64460366D01*
X183609685Y-64348966D01*
X183814079Y-64239714D01*
X183924926Y-63962531D01*
X182880000Y-62917605D01*
X181835074Y-63962531D01*
X177703547Y-63962531D01*
X177651935Y-63910919D01*
X177363673Y-63718308D01*
X177043373Y-63585636D01*
X176703345Y-63518000D01*
X176356655Y-63518000D01*
X176016627Y-63585636D01*
X175696327Y-63718308D01*
X175408065Y-63910919D01*
X175162919Y-64156065D01*
X174970308Y-64444327D01*
X174837636Y-64764627D01*
X174770000Y-65104655D01*
X174770000Y-65451345D01*
X174837636Y-65791373D01*
X174970308Y-66111673D01*
X175102638Y-66309719D01*
X174819549Y-66366029D01*
X174544747Y-66479856D01*
X174297431Y-66645107D01*
X174087107Y-66855431D01*
X173921856Y-67102747D01*
X173808029Y-67377549D01*
X173750000Y-67669278D01*
X157721030Y-67669278D01*
X157721003Y-67669014D01*
X157677546Y-67525753D01*
X157606974Y-67393724D01*
X157591069Y-67374344D01*
X157535799Y-67306996D01*
X157535795Y-67306992D01*
X157512001Y-67277999D01*
X157483009Y-67254206D01*
X156011803Y-65783002D01*
X155988001Y-65753999D01*
X155872276Y-65659026D01*
X155740247Y-65588454D01*
X155596986Y-65544997D01*
X155485333Y-65534000D01*
X155485322Y-65534000D01*
X155448000Y-65530324D01*
X155410678Y-65534000D01*
X154119711Y-65534000D01*
X154075774Y-65490063D01*
X153906256Y-65376795D01*
X153717898Y-65298774D01*
X153517939Y-65259000D01*
X153314061Y-65259000D01*
X153114102Y-65298774D01*
X152925744Y-65376795D01*
X152756226Y-65490063D01*
X152712289Y-65534000D01*
X145229711Y-65534000D01*
X145185774Y-65490063D01*
X145016256Y-65376795D01*
X144827898Y-65298774D01*
X144627939Y-65259000D01*
X144565803Y-65259000D01*
X142102452Y-62795650D01*
X181112424Y-62795650D01*
X181157634Y-63139380D01*
X181269034Y-63467685D01*
X181378286Y-63672079D01*
X181655469Y-63782926D01*
X182700395Y-62738000D01*
X183059605Y-62738000D01*
X184104531Y-63782926D01*
X184381714Y-63672079D01*
X184535089Y-63361160D01*
X184624860Y-63026295D01*
X184647576Y-62680350D01*
X184602366Y-62336620D01*
X184490966Y-62008315D01*
X184381714Y-61803921D01*
X184104531Y-61693074D01*
X183059605Y-62738000D01*
X182700395Y-62738000D01*
X181655469Y-61693074D01*
X181378286Y-61803921D01*
X181224911Y-62114840D01*
X181135140Y-62449705D01*
X181112424Y-62795650D01*
X142102452Y-62795650D01*
X142055800Y-62748999D01*
X142055800Y-62686861D01*
X142016026Y-62486902D01*
X141938005Y-62298544D01*
X141824737Y-62129026D01*
X141680574Y-61984863D01*
X141511056Y-61871595D01*
X141322698Y-61793574D01*
X141122739Y-61753800D01*
X140918861Y-61753800D01*
X140718902Y-61793574D01*
X140530544Y-61871595D01*
X140361026Y-61984863D01*
X140216863Y-62129026D01*
X140103595Y-62298544D01*
X140025574Y-62486902D01*
X139985800Y-62686861D01*
X139985800Y-62890739D01*
X140025574Y-63090698D01*
X140103595Y-63279056D01*
X140216863Y-63448574D01*
X140361026Y-63592737D01*
X140530544Y-63706005D01*
X140718902Y-63784026D01*
X140918861Y-63823800D01*
X140980999Y-63823800D01*
X142691198Y-65534000D01*
X141515325Y-65534000D01*
X141478000Y-65530324D01*
X141440675Y-65534000D01*
X141440667Y-65534000D01*
X141329014Y-65544997D01*
X141185753Y-65588454D01*
X141053724Y-65659026D01*
X140937999Y-65753999D01*
X140914202Y-65782996D01*
X138172998Y-68524201D01*
X138144000Y-68547999D01*
X138120202Y-68576997D01*
X138120201Y-68576998D01*
X138049026Y-68663724D01*
X137978454Y-68795754D01*
X137934998Y-68939015D01*
X137920324Y-69088000D01*
X137924001Y-69125332D01*
X137924000Y-70162289D01*
X137880063Y-70206226D01*
X137766795Y-70375744D01*
X137688774Y-70564102D01*
X137649000Y-70764061D01*
X137649000Y-70967939D01*
X137688774Y-71167898D01*
X137766795Y-71356256D01*
X137880063Y-71525774D01*
X137924000Y-71569711D01*
X137924000Y-74606530D01*
X137922339Y-74606200D01*
X137718461Y-74606200D01*
X137518502Y-74645974D01*
X137330144Y-74723995D01*
X137160626Y-74837263D01*
X137016463Y-74981426D01*
X136903195Y-75150944D01*
X136825174Y-75339302D01*
X136795199Y-75489999D01*
X128397000Y-83888199D01*
X128397000Y-83682408D01*
X128343314Y-83412510D01*
X128238005Y-83158273D01*
X128085120Y-82929465D01*
X127890535Y-82734880D01*
X127661727Y-82581995D01*
X127584485Y-82550000D01*
X127661727Y-82518005D01*
X127890535Y-82365120D01*
X128085120Y-82170535D01*
X128238005Y-81941727D01*
X128343314Y-81687490D01*
X128397000Y-81417592D01*
X128397000Y-81142408D01*
X128343314Y-80872510D01*
X128279811Y-80719200D01*
X128836289Y-80719200D01*
X128880226Y-80763137D01*
X129049744Y-80876405D01*
X129238102Y-80954426D01*
X129438061Y-80994200D01*
X129641939Y-80994200D01*
X129841898Y-80954426D01*
X130030256Y-80876405D01*
X130199774Y-80763137D01*
X130343937Y-80618974D01*
X130457205Y-80449456D01*
X130535226Y-80261098D01*
X130575000Y-80061139D01*
X130575000Y-79857261D01*
X130535226Y-79657302D01*
X130457205Y-79468944D01*
X130343937Y-79299426D01*
X130199774Y-79155263D01*
X130169968Y-79135347D01*
X130281592Y-79135347D01*
X130481551Y-79095573D01*
X130669909Y-79017552D01*
X130839427Y-78904284D01*
X130983590Y-78760121D01*
X131096858Y-78590603D01*
X131174879Y-78402245D01*
X131214653Y-78202286D01*
X131214653Y-77998408D01*
X131174879Y-77798449D01*
X131096858Y-77610091D01*
X130983590Y-77440573D01*
X130839427Y-77296410D01*
X130669909Y-77183142D01*
X130664441Y-77180877D01*
X128085565Y-74602002D01*
X128062165Y-74573490D01*
X128085120Y-74550535D01*
X128238005Y-74321727D01*
X128343314Y-74067490D01*
X128397000Y-73797592D01*
X128397000Y-73522408D01*
X128343314Y-73252510D01*
X128238005Y-72998273D01*
X128085120Y-72769465D01*
X127890535Y-72574880D01*
X127661727Y-72421995D01*
X127584485Y-72390000D01*
X127661727Y-72358005D01*
X127890535Y-72205120D01*
X128085120Y-72010535D01*
X128238005Y-71781727D01*
X128343314Y-71527490D01*
X128397000Y-71257592D01*
X128397000Y-70982408D01*
X128343314Y-70712510D01*
X128238005Y-70458273D01*
X128085120Y-70229465D01*
X127890535Y-70034880D01*
X127661727Y-69881995D01*
X127590057Y-69852308D01*
X127603023Y-69847636D01*
X127718980Y-69785656D01*
X127785960Y-69545565D01*
X127000000Y-68759605D01*
X126214040Y-69545565D01*
X126281020Y-69785656D01*
X126416760Y-69849485D01*
X126338273Y-69881995D01*
X126109465Y-70034880D01*
X125914880Y-70229465D01*
X125761995Y-70458273D01*
X125656686Y-70712510D01*
X125603000Y-70982408D01*
X125603000Y-71257592D01*
X125656686Y-71527490D01*
X125761995Y-71781727D01*
X125914880Y-72010535D01*
X126109465Y-72205120D01*
X126338273Y-72358005D01*
X126415515Y-72390000D01*
X126338273Y-72421995D01*
X126109465Y-72574880D01*
X125914880Y-72769465D01*
X125761995Y-72998273D01*
X125656686Y-73252510D01*
X125603000Y-73522408D01*
X125603000Y-73797592D01*
X125656686Y-74067490D01*
X125761995Y-74321727D01*
X125782890Y-74352999D01*
X123687801Y-74352999D01*
X123286372Y-73951570D01*
X123317000Y-73797592D01*
X123317000Y-73522408D01*
X123263314Y-73252510D01*
X123158005Y-72998273D01*
X123005120Y-72769465D01*
X122810535Y-72574880D01*
X122581727Y-72421995D01*
X122504485Y-72390000D01*
X122581727Y-72358005D01*
X122810535Y-72205120D01*
X123005120Y-72010535D01*
X123158005Y-71781727D01*
X123263314Y-71527490D01*
X123317000Y-71257592D01*
X123317000Y-70982408D01*
X123263314Y-70712510D01*
X123158005Y-70458273D01*
X123005120Y-70229465D01*
X122810535Y-70034880D01*
X122581727Y-69881995D01*
X122327490Y-69776686D01*
X122057592Y-69723000D01*
X121782408Y-69723000D01*
X121512510Y-69776686D01*
X121258273Y-69881995D01*
X121029465Y-70034880D01*
X120834880Y-70229465D01*
X120681995Y-70458273D01*
X120576686Y-70712510D01*
X120523000Y-70982408D01*
X120523000Y-71257592D01*
X120553628Y-71411571D01*
X120322001Y-71643197D01*
X120292998Y-71667000D01*
X120237870Y-71734175D01*
X120198025Y-71782725D01*
X120156065Y-71861226D01*
X120127453Y-71914755D01*
X120083996Y-72058016D01*
X120072999Y-72169669D01*
X120072999Y-72169679D01*
X120069323Y-72207001D01*
X120072999Y-72244323D01*
X120073000Y-78400240D01*
X120070426Y-78387302D01*
X119992405Y-78198944D01*
X119879137Y-78029426D01*
X119734974Y-77885263D01*
X119565456Y-77771995D01*
X119377098Y-77693974D01*
X119177139Y-77654200D01*
X118973261Y-77654200D01*
X118773302Y-77693974D01*
X118584944Y-77771995D01*
X118415426Y-77885263D01*
X118271263Y-78029426D01*
X118157995Y-78198944D01*
X118079974Y-78387302D01*
X118040200Y-78587261D01*
X118040200Y-78791139D01*
X118079974Y-78991098D01*
X118112001Y-79068417D01*
X118112000Y-89771089D01*
X118068063Y-89815026D01*
X117954795Y-89984544D01*
X117876774Y-90172902D01*
X117837000Y-90372861D01*
X92100000Y-90372861D01*
X92100000Y-68652017D01*
X125598090Y-68652017D01*
X125639078Y-68924133D01*
X125732364Y-69183023D01*
X125794344Y-69298980D01*
X126034435Y-69365960D01*
X126820395Y-68580000D01*
X127179605Y-68580000D01*
X127965565Y-69365960D01*
X128205656Y-69298980D01*
X128322756Y-69049952D01*
X128389023Y-68782865D01*
X128401910Y-68507983D01*
X128360922Y-68235867D01*
X128267636Y-67976977D01*
X128205656Y-67861020D01*
X127965565Y-67794040D01*
X127179605Y-68580000D01*
X126820395Y-68580000D01*
X126034435Y-67794040D01*
X125794344Y-67861020D01*
X125677244Y-68110048D01*
X125610977Y-68377135D01*
X125598090Y-68652017D01*
X92100000Y-68652017D01*
X92100000Y-66323552D01*
X92370297Y-66435513D01*
X92679414Y-66497000D01*
X92994586Y-66497000D01*
X93303703Y-66435513D01*
X93594884Y-66314902D01*
X93856941Y-66139801D01*
X94079801Y-65916941D01*
X94107000Y-65876235D01*
X94134199Y-65916941D01*
X94357059Y-66139801D01*
X94619116Y-66314902D01*
X94910297Y-66435513D01*
X95219414Y-66497000D01*
X95534586Y-66497000D01*
X95843703Y-66435513D01*
X96134884Y-66314902D01*
X96396941Y-66139801D01*
X96619801Y-65916941D01*
X96647000Y-65876235D01*
X96674199Y-65916941D01*
X96897059Y-66139801D01*
X97159116Y-66314902D01*
X97450297Y-66435513D01*
X97759414Y-66497000D01*
X98074586Y-66497000D01*
X98383703Y-66435513D01*
X98674884Y-66314902D01*
X98936941Y-66139801D01*
X99159801Y-65916941D01*
X99187000Y-65876235D01*
X99214199Y-65916941D01*
X99437059Y-66139801D01*
X99699116Y-66314902D01*
X99990297Y-66435513D01*
X100299414Y-66497000D01*
X100614586Y-66497000D01*
X100923703Y-66435513D01*
X101214884Y-66314902D01*
X101476941Y-66139801D01*
X101699801Y-65916941D01*
X101727000Y-65876235D01*
X101754199Y-65916941D01*
X101977059Y-66139801D01*
X102239116Y-66314902D01*
X102530297Y-66435513D01*
X102839414Y-66497000D01*
X103154586Y-66497000D01*
X103463703Y-66435513D01*
X103754884Y-66314902D01*
X104016941Y-66139801D01*
X104239801Y-65916941D01*
X104267000Y-65876235D01*
X104294199Y-65916941D01*
X104517059Y-66139801D01*
X104779116Y-66314902D01*
X105070297Y-66435513D01*
X105379414Y-66497000D01*
X105694586Y-66497000D01*
X106003703Y-66435513D01*
X106294884Y-66314902D01*
X106556941Y-66139801D01*
X106779801Y-65916941D01*
X106807000Y-65876235D01*
X106834199Y-65916941D01*
X107057059Y-66139801D01*
X107319116Y-66314902D01*
X107610297Y-66435513D01*
X107919414Y-66497000D01*
X108234586Y-66497000D01*
X108543703Y-66435513D01*
X108834884Y-66314902D01*
X109096941Y-66139801D01*
X109319801Y-65916941D01*
X109347000Y-65876235D01*
X109374199Y-65916941D01*
X109597059Y-66139801D01*
X109859116Y-66314902D01*
X110150297Y-66435513D01*
X110459414Y-66497000D01*
X110774586Y-66497000D01*
X111083703Y-66435513D01*
X111374884Y-66314902D01*
X111636941Y-66139801D01*
X111859801Y-65916941D01*
X112034902Y-65654884D01*
X112155513Y-65363703D01*
X112217000Y-65054586D01*
X112217000Y-64739414D01*
X112155513Y-64430297D01*
X112034902Y-64139116D01*
X111859801Y-63877059D01*
X111636941Y-63654199D01*
X111374884Y-63479098D01*
X111093170Y-63362408D01*
X125603000Y-63362408D01*
X125603000Y-63637592D01*
X125656686Y-63907490D01*
X125761995Y-64161727D01*
X125914880Y-64390535D01*
X126109465Y-64585120D01*
X126338273Y-64738005D01*
X126415515Y-64770000D01*
X126338273Y-64801995D01*
X126109465Y-64954880D01*
X125914880Y-65149465D01*
X125761995Y-65378273D01*
X125656686Y-65632510D01*
X125603000Y-65902408D01*
X125603000Y-66177592D01*
X125656686Y-66447490D01*
X125761995Y-66701727D01*
X125914880Y-66930535D01*
X126109465Y-67125120D01*
X126338273Y-67278005D01*
X126409943Y-67307692D01*
X126396977Y-67312364D01*
X126281020Y-67374344D01*
X126214040Y-67614435D01*
X127000000Y-68400395D01*
X127785960Y-67614435D01*
X127718980Y-67374344D01*
X127583240Y-67310515D01*
X127661727Y-67278005D01*
X127890535Y-67125120D01*
X128085120Y-66930535D01*
X128172341Y-66800000D01*
X134938278Y-66800000D01*
X134975600Y-66803676D01*
X135012922Y-66800000D01*
X135012933Y-66800000D01*
X135124586Y-66789003D01*
X135267847Y-66745546D01*
X135399876Y-66674974D01*
X135515601Y-66580001D01*
X135539404Y-66550997D01*
X140576932Y-61513469D01*
X181835074Y-61513469D01*
X182880000Y-62558395D01*
X183924926Y-61513469D01*
X183814079Y-61236286D01*
X183503160Y-61082911D01*
X183168295Y-60993140D01*
X182822350Y-60970424D01*
X182478620Y-61015634D01*
X182150315Y-61127034D01*
X181945921Y-61236286D01*
X181835074Y-61513469D01*
X140576932Y-61513469D01*
X141263802Y-60826600D01*
X141325939Y-60826600D01*
X141525898Y-60786826D01*
X141714256Y-60708805D01*
X141883774Y-60595537D01*
X142027937Y-60451374D01*
X142141205Y-60281856D01*
X142219226Y-60093498D01*
X142259000Y-59893539D01*
X142259000Y-59689661D01*
X142219226Y-59489702D01*
X142141205Y-59301344D01*
X142027937Y-59131826D01*
X141883774Y-58987663D01*
X141714256Y-58874395D01*
X141525898Y-58796374D01*
X141325939Y-58756600D01*
X141122061Y-58756600D01*
X140922102Y-58796374D01*
X140733744Y-58874395D01*
X140564226Y-58987663D01*
X140420063Y-59131826D01*
X140306795Y-59301344D01*
X140228774Y-59489702D01*
X140189000Y-59689661D01*
X140189000Y-59751798D01*
X134660799Y-65280000D01*
X128172341Y-65280000D01*
X128085120Y-65149465D01*
X127890535Y-64954880D01*
X127661727Y-64801995D01*
X127584485Y-64770000D01*
X127661727Y-64738005D01*
X127890535Y-64585120D01*
X128085120Y-64390535D01*
X128238005Y-64161727D01*
X128343314Y-63907490D01*
X128397000Y-63637592D01*
X128397000Y-63362408D01*
X128343314Y-63092510D01*
X128238005Y-62838273D01*
X128085120Y-62609465D01*
X127890535Y-62414880D01*
X127661727Y-62261995D01*
X127407490Y-62156686D01*
X127137592Y-62103000D01*
X126862408Y-62103000D01*
X126592510Y-62156686D01*
X126338273Y-62261995D01*
X126109465Y-62414880D01*
X125914880Y-62609465D01*
X125761995Y-62838273D01*
X125656686Y-63092510D01*
X125603000Y-63362408D01*
X111093170Y-63362408D01*
X111083703Y-63358487D01*
X110774586Y-63297000D01*
X110459414Y-63297000D01*
X110150297Y-63358487D01*
X109859116Y-63479098D01*
X109597059Y-63654199D01*
X109374199Y-63877059D01*
X109347000Y-63917765D01*
X109319801Y-63877059D01*
X109096941Y-63654199D01*
X108834884Y-63479098D01*
X108543703Y-63358487D01*
X108234586Y-63297000D01*
X107919414Y-63297000D01*
X107610297Y-63358487D01*
X107319116Y-63479098D01*
X107057059Y-63654199D01*
X106834199Y-63877059D01*
X106807000Y-63917765D01*
X106779801Y-63877059D01*
X106556941Y-63654199D01*
X106294884Y-63479098D01*
X106003703Y-63358487D01*
X105694586Y-63297000D01*
X105379414Y-63297000D01*
X105070297Y-63358487D01*
X104779116Y-63479098D01*
X104517059Y-63654199D01*
X104294199Y-63877059D01*
X104267000Y-63917765D01*
X104239801Y-63877059D01*
X104016941Y-63654199D01*
X103754884Y-63479098D01*
X103463703Y-63358487D01*
X103154586Y-63297000D01*
X102839414Y-63297000D01*
X102530297Y-63358487D01*
X102239116Y-63479098D01*
X101977059Y-63654199D01*
X101754199Y-63877059D01*
X101727000Y-63917765D01*
X101699801Y-63877059D01*
X101476941Y-63654199D01*
X101214884Y-63479098D01*
X100923703Y-63358487D01*
X100614586Y-63297000D01*
X100299414Y-63297000D01*
X99990297Y-63358487D01*
X99699116Y-63479098D01*
X99437059Y-63654199D01*
X99214199Y-63877059D01*
X99187000Y-63917765D01*
X99159801Y-63877059D01*
X98936941Y-63654199D01*
X98674884Y-63479098D01*
X98383703Y-63358487D01*
X98074586Y-63297000D01*
X97759414Y-63297000D01*
X97450297Y-63358487D01*
X97159116Y-63479098D01*
X96897059Y-63654199D01*
X96674199Y-63877059D01*
X96647000Y-63917765D01*
X96619801Y-63877059D01*
X96396941Y-63654199D01*
X96134884Y-63479098D01*
X95843703Y-63358487D01*
X95534586Y-63297000D01*
X95219414Y-63297000D01*
X94910297Y-63358487D01*
X94619116Y-63479098D01*
X94357059Y-63654199D01*
X94134199Y-63877059D01*
X94107000Y-63917765D01*
X94079801Y-63877059D01*
X93856941Y-63654199D01*
X93594884Y-63479098D01*
X93303703Y-63358487D01*
X92994586Y-63297000D01*
X92679414Y-63297000D01*
X92370297Y-63358487D01*
X92100000Y-63470448D01*
X92100000Y-54000000D01*
X189840000Y-54000000D01*
X189840001Y-100940000D01*
G37*
X189840001Y-100940000D02*
X92100000Y-100940000D01*
X92100000Y-98211001D01*
X123397329Y-98211001D01*
X123397329Y-99911001D01*
X123409589Y-100035483D01*
X123445899Y-100155181D01*
X123504864Y-100265495D01*
X123584216Y-100362186D01*
X123680907Y-100441538D01*
X123791221Y-100500503D01*
X123910919Y-100536813D01*
X124035401Y-100549073D01*
X125735401Y-100549073D01*
X125859883Y-100536813D01*
X125979581Y-100500503D01*
X126089895Y-100441538D01*
X126186586Y-100362186D01*
X126265938Y-100265495D01*
X126324903Y-100155181D01*
X126346914Y-100082621D01*
X126478769Y-100214476D01*
X126721990Y-100376991D01*
X126992243Y-100488933D01*
X127279141Y-100546001D01*
X127571661Y-100546001D01*
X127858559Y-100488933D01*
X128128812Y-100376991D01*
X128372033Y-100214476D01*
X128578876Y-100007633D01*
X128695401Y-99833241D01*
X128811926Y-100007633D01*
X129018769Y-100214476D01*
X129261990Y-100376991D01*
X129532243Y-100488933D01*
X129819141Y-100546001D01*
X130111661Y-100546001D01*
X130398559Y-100488933D01*
X130668812Y-100376991D01*
X130912033Y-100214476D01*
X131118876Y-100007633D01*
X131281391Y-99764412D01*
X131393333Y-99494159D01*
X131450401Y-99207261D01*
X131450401Y-98914741D01*
X131393333Y-98627843D01*
X131281391Y-98357590D01*
X131118876Y-98114369D01*
X130912033Y-97907526D01*
X130668812Y-97745011D01*
X130398559Y-97633069D01*
X130111661Y-97576001D01*
X129819141Y-97576001D01*
X129532243Y-97633069D01*
X129261990Y-97745011D01*
X129018769Y-97907526D01*
X128811926Y-98114369D01*
X128695401Y-98288761D01*
X128578876Y-98114369D01*
X128372033Y-97907526D01*
X128128812Y-97745011D01*
X127858559Y-97633069D01*
X127571661Y-97576001D01*
X127279141Y-97576001D01*
X126992243Y-97633069D01*
X126721990Y-97745011D01*
X126478769Y-97907526D01*
X126346914Y-98039381D01*
X126324903Y-97966821D01*
X126265938Y-97856507D01*
X126186586Y-97759816D01*
X126089895Y-97680464D01*
X125979581Y-97621499D01*
X125859883Y-97585189D01*
X125735401Y-97572929D01*
X124035401Y-97572929D01*
X123910919Y-97585189D01*
X123791221Y-97621499D01*
X123680907Y-97680464D01*
X123584216Y-97759816D01*
X123504864Y-97856507D01*
X123445899Y-97966821D01*
X123409589Y-98086519D01*
X123397329Y-98211001D01*
X92100000Y-98211001D01*
X92100000Y-95035000D01*
X149616528Y-95035000D01*
X149616528Y-96735000D01*
X149628788Y-96859482D01*
X149665098Y-96979180D01*
X149724063Y-97089494D01*
X149803415Y-97186185D01*
X149900106Y-97265537D01*
X150010420Y-97324502D01*
X150130118Y-97360812D01*
X150254600Y-97373072D01*
X151954600Y-97373072D01*
X152079082Y-97360812D01*
X152198780Y-97324502D01*
X152309094Y-97265537D01*
X152405785Y-97186185D01*
X152485137Y-97089494D01*
X152544102Y-96979180D01*
X152580412Y-96859482D01*
X152592672Y-96735000D01*
X152592672Y-95035000D01*
X152580412Y-94910518D01*
X152544102Y-94790820D01*
X152485137Y-94680506D01*
X152405785Y-94583815D01*
X152309094Y-94504463D01*
X152198780Y-94445498D01*
X152118134Y-94421034D01*
X152202188Y-94345269D01*
X152376241Y-94111920D01*
X152501425Y-93849099D01*
X152546076Y-93701890D01*
X152424755Y-93472000D01*
X151231600Y-93472000D01*
X151231600Y-93492000D01*
X150977600Y-93492000D01*
X150977600Y-93472000D01*
X149784445Y-93472000D01*
X149663124Y-93701890D01*
X149707775Y-93849099D01*
X149832959Y-94111920D01*
X150007012Y-94345269D01*
X150091066Y-94421034D01*
X150010420Y-94445498D01*
X149900106Y-94504463D01*
X149803415Y-94583815D01*
X149724063Y-94680506D01*
X149665098Y-94790820D01*
X149628788Y-94910518D01*
X149616528Y-95035000D01*
X92100000Y-95035000D01*
X92100000Y-92988110D01*
X149663124Y-92988110D01*
X149784445Y-93218000D01*
X150977600Y-93218000D01*
X150977600Y-92024186D01*
X151231600Y-92024186D01*
X151231600Y-93218000D01*
X152424755Y-93218000D01*
X152546076Y-92988110D01*
X152501425Y-92840901D01*
X152376241Y-92578080D01*
X152202188Y-92344731D01*
X151985955Y-92149822D01*
X151735852Y-92000843D01*
X151461491Y-91903519D01*
X151231600Y-92024186D01*
X150977600Y-92024186D01*
X150747709Y-91903519D01*
X150473348Y-92000843D01*
X150223245Y-92149822D01*
X150007012Y-92344731D01*
X149832959Y-92578080D01*
X149707775Y-92840901D01*
X149663124Y-92988110D01*
X92100000Y-92988110D01*
X92100000Y-90372861D01*
X117837000Y-90372861D01*
X117837000Y-90576739D01*
X117876774Y-90776698D01*
X117954795Y-90965056D01*
X118068063Y-91134574D01*
X118212226Y-91278737D01*
X118381744Y-91392005D01*
X118570102Y-91470026D01*
X118770061Y-91509800D01*
X118973939Y-91509800D01*
X119173898Y-91470026D01*
X119362256Y-91392005D01*
X119531774Y-91278737D01*
X119675937Y-91134574D01*
X119789205Y-90965056D01*
X119867226Y-90776698D01*
X119907000Y-90576739D01*
X119907000Y-90372861D01*
X119867226Y-90172902D01*
X119789205Y-89984544D01*
X119675937Y-89815026D01*
X119632000Y-89771089D01*
X119632000Y-79561942D01*
X119734974Y-79493137D01*
X119879137Y-79348974D01*
X119992405Y-79179456D01*
X120070426Y-78991098D01*
X120073000Y-78978160D01*
X120073000Y-84304429D01*
X120069323Y-84341761D01*
X120083997Y-84490746D01*
X120127453Y-84634007D01*
X120198025Y-84766037D01*
X120224055Y-84797754D01*
X120292999Y-84881762D01*
X120321997Y-84905560D01*
X125914440Y-90498004D01*
X125938238Y-90527002D01*
X125967236Y-90550800D01*
X126053962Y-90621975D01*
X126185992Y-90692547D01*
X126329253Y-90736004D01*
X126440906Y-90747001D01*
X126440916Y-90747001D01*
X126478239Y-90750677D01*
X126515562Y-90747001D01*
X152196279Y-90747001D01*
X152233601Y-90750677D01*
X152270923Y-90747001D01*
X152270934Y-90747001D01*
X152382587Y-90736004D01*
X152491187Y-90703061D01*
X156038600Y-90703061D01*
X156038600Y-90906939D01*
X156078374Y-91106898D01*
X156156395Y-91295256D01*
X156269663Y-91464774D01*
X156313601Y-91508712D01*
X156313600Y-98229289D01*
X156269663Y-98273226D01*
X156156395Y-98442744D01*
X156078374Y-98631102D01*
X156038600Y-98831061D01*
X156038600Y-99034939D01*
X156078374Y-99234898D01*
X156156395Y-99423256D01*
X156269663Y-99592774D01*
X156413826Y-99736937D01*
X156583344Y-99850205D01*
X156771702Y-99928226D01*
X156971661Y-99968000D01*
X157175539Y-99968000D01*
X157375498Y-99928226D01*
X157563856Y-99850205D01*
X157733374Y-99736937D01*
X157877537Y-99592774D01*
X157990805Y-99423256D01*
X158068826Y-99234898D01*
X158108600Y-99034939D01*
X158108600Y-98831061D01*
X158068826Y-98631102D01*
X157990805Y-98442744D01*
X157877537Y-98273226D01*
X157833600Y-98229289D01*
X157833600Y-91508711D01*
X157877537Y-91464774D01*
X157990805Y-91295256D01*
X158068826Y-91106898D01*
X158108600Y-90906939D01*
X158108600Y-90703061D01*
X158068826Y-90503102D01*
X157990805Y-90314744D01*
X157877537Y-90145226D01*
X157733374Y-90001063D01*
X157563856Y-89887795D01*
X157375498Y-89809774D01*
X157175539Y-89770000D01*
X156971661Y-89770000D01*
X156771702Y-89809774D01*
X156583344Y-89887795D01*
X156413826Y-90001063D01*
X156269663Y-90145226D01*
X156156395Y-90314744D01*
X156078374Y-90503102D01*
X156038600Y-90703061D01*
X152491187Y-90703061D01*
X152525848Y-90692547D01*
X152657877Y-90621975D01*
X152773602Y-90527002D01*
X152797405Y-90497998D01*
X156372925Y-86922478D01*
X173750000Y-86922478D01*
X173750000Y-87219922D01*
X173808029Y-87511651D01*
X173921856Y-87786453D01*
X174087107Y-88033769D01*
X174297431Y-88244093D01*
X174544747Y-88409344D01*
X174819549Y-88523171D01*
X175111278Y-88581200D01*
X175408722Y-88581200D01*
X175700451Y-88523171D01*
X175975253Y-88409344D01*
X176222569Y-88244093D01*
X176432893Y-88033769D01*
X176598144Y-87786453D01*
X176711971Y-87511651D01*
X176770000Y-87219922D01*
X176770000Y-86922478D01*
X176748080Y-86812276D01*
X177711100Y-86812276D01*
X177711100Y-87330124D01*
X177812127Y-87838022D01*
X178010299Y-88316451D01*
X178298000Y-88747026D01*
X178664174Y-89113200D01*
X179094749Y-89400901D01*
X179573178Y-89599073D01*
X180081076Y-89700100D01*
X180598924Y-89700100D01*
X181106822Y-89599073D01*
X181585251Y-89400901D01*
X182015826Y-89113200D01*
X182382000Y-88747026D01*
X182669701Y-88316451D01*
X182867873Y-87838022D01*
X182968900Y-87330124D01*
X182968900Y-86922478D01*
X183910000Y-86922478D01*
X183910000Y-87219922D01*
X183968029Y-87511651D01*
X184081856Y-87786453D01*
X184247107Y-88033769D01*
X184457431Y-88244093D01*
X184704747Y-88409344D01*
X184979549Y-88523171D01*
X185271278Y-88581200D01*
X185568722Y-88581200D01*
X185860451Y-88523171D01*
X186135253Y-88409344D01*
X186382569Y-88244093D01*
X186592893Y-88033769D01*
X186758144Y-87786453D01*
X186871971Y-87511651D01*
X186930000Y-87219922D01*
X186930000Y-86922478D01*
X186871971Y-86630749D01*
X186758144Y-86355947D01*
X186592893Y-86108631D01*
X186382569Y-85898307D01*
X186135253Y-85733056D01*
X185860451Y-85619229D01*
X185568722Y-85561200D01*
X185271278Y-85561200D01*
X184979549Y-85619229D01*
X184704747Y-85733056D01*
X184457431Y-85898307D01*
X184247107Y-86108631D01*
X184081856Y-86355947D01*
X183968029Y-86630749D01*
X183910000Y-86922478D01*
X182968900Y-86922478D01*
X182968900Y-86812276D01*
X182867873Y-86304378D01*
X182669701Y-85825949D01*
X182382000Y-85395374D01*
X182015826Y-85029200D01*
X181585251Y-84741499D01*
X181106822Y-84543327D01*
X180598924Y-84442300D01*
X180081076Y-84442300D01*
X179573178Y-84543327D01*
X179094749Y-84741499D01*
X178664174Y-85029200D01*
X178298000Y-85395374D01*
X178010299Y-85825949D01*
X177812127Y-86304378D01*
X177711100Y-86812276D01*
X176748080Y-86812276D01*
X176711971Y-86630749D01*
X176598144Y-86355947D01*
X176554882Y-86291200D01*
X176703345Y-86291200D01*
X177043373Y-86223564D01*
X177363673Y-86090892D01*
X177651935Y-85898281D01*
X177897081Y-85653135D01*
X178089692Y-85364873D01*
X178222364Y-85044573D01*
X178290000Y-84704545D01*
X178290000Y-84357855D01*
X178222364Y-84017827D01*
X178089692Y-83697527D01*
X177897081Y-83409265D01*
X177703547Y-83215731D01*
X181835074Y-83215731D01*
X181945921Y-83492914D01*
X182256840Y-83646289D01*
X182591705Y-83736060D01*
X182937650Y-83758776D01*
X183281380Y-83713566D01*
X183609685Y-83602166D01*
X183814079Y-83492914D01*
X183924926Y-83215731D01*
X182880000Y-82170805D01*
X181835074Y-83215731D01*
X177703547Y-83215731D01*
X177651935Y-83164119D01*
X177363673Y-82971508D01*
X177043373Y-82838836D01*
X176703345Y-82771200D01*
X176356655Y-82771200D01*
X176016627Y-82838836D01*
X175696327Y-82971508D01*
X175408065Y-83164119D01*
X175162919Y-83409265D01*
X174970308Y-83697527D01*
X174837636Y-84017827D01*
X174770000Y-84357855D01*
X174770000Y-84704545D01*
X174837636Y-85044573D01*
X174970308Y-85364873D01*
X175102638Y-85562919D01*
X174819549Y-85619229D01*
X174544747Y-85733056D01*
X174297431Y-85898307D01*
X174087107Y-86108631D01*
X173921856Y-86355947D01*
X173808029Y-86630749D01*
X173750000Y-86922478D01*
X156372925Y-86922478D01*
X157229004Y-86066400D01*
X157258001Y-86042603D01*
X157284332Y-86010519D01*
X157352974Y-85926879D01*
X157423546Y-85794849D01*
X157442290Y-85733056D01*
X157467003Y-85651588D01*
X157478000Y-85539935D01*
X157478000Y-85539925D01*
X157481676Y-85502602D01*
X157478000Y-85465279D01*
X157478000Y-82048850D01*
X181112424Y-82048850D01*
X181157634Y-82392580D01*
X181269034Y-82720885D01*
X181378286Y-82925279D01*
X181655469Y-83036126D01*
X182700395Y-81991200D01*
X183059605Y-81991200D01*
X184104531Y-83036126D01*
X184381714Y-82925279D01*
X184535089Y-82614360D01*
X184624860Y-82279495D01*
X184647576Y-81933550D01*
X184602366Y-81589820D01*
X184490966Y-81261515D01*
X184381714Y-81057121D01*
X184104531Y-80946274D01*
X183059605Y-81991200D01*
X182700395Y-81991200D01*
X181655469Y-80946274D01*
X181378286Y-81057121D01*
X181224911Y-81368040D01*
X181135140Y-81702905D01*
X181112424Y-82048850D01*
X157478000Y-82048850D01*
X157478000Y-80766669D01*
X181835074Y-80766669D01*
X182880000Y-81811595D01*
X183924926Y-80766669D01*
X183814079Y-80489486D01*
X183503160Y-80336111D01*
X183168295Y-80246340D01*
X182822350Y-80223624D01*
X182478620Y-80268834D01*
X182150315Y-80380234D01*
X181945921Y-80489486D01*
X181835074Y-80766669D01*
X157478000Y-80766669D01*
X157478000Y-80459711D01*
X157521937Y-80415774D01*
X157635205Y-80246256D01*
X157713226Y-80057898D01*
X157753000Y-79857939D01*
X157753000Y-79654061D01*
X157713226Y-79454102D01*
X157635205Y-79265744D01*
X157521937Y-79096226D01*
X157377774Y-78952063D01*
X157208256Y-78838795D01*
X157019898Y-78760774D01*
X156819939Y-78721000D01*
X156616061Y-78721000D01*
X156416102Y-78760774D01*
X156227744Y-78838795D01*
X156058226Y-78952063D01*
X155914063Y-79096226D01*
X155800795Y-79265744D01*
X155722774Y-79454102D01*
X155683000Y-79654061D01*
X155683000Y-79857939D01*
X155722774Y-80057898D01*
X155800795Y-80246256D01*
X155914063Y-80415774D01*
X155958001Y-80459712D01*
X155958000Y-85187800D01*
X154045356Y-87100445D01*
X153974174Y-87029263D01*
X153804656Y-86915995D01*
X153616298Y-86837974D01*
X153416339Y-86798200D01*
X153212461Y-86798200D01*
X153012502Y-86837974D01*
X152824144Y-86915995D01*
X152654626Y-87029263D01*
X152610689Y-87073200D01*
X141742002Y-87073200D01*
X139444000Y-84775199D01*
X139444000Y-83761711D01*
X139487937Y-83717774D01*
X139601205Y-83548256D01*
X139679226Y-83359898D01*
X139719000Y-83159939D01*
X139719000Y-82956061D01*
X139679226Y-82756102D01*
X139601205Y-82567744D01*
X139487937Y-82398226D01*
X139444000Y-82354289D01*
X139444000Y-76655660D01*
X139547261Y-76676200D01*
X139751139Y-76676200D01*
X139951098Y-76636426D01*
X140139456Y-76558405D01*
X140308974Y-76445137D01*
X140453137Y-76300974D01*
X140566405Y-76131456D01*
X140644426Y-75943098D01*
X140684200Y-75743139D01*
X140684200Y-75539261D01*
X140644426Y-75339302D01*
X140577609Y-75177992D01*
X143600602Y-72155000D01*
X143662739Y-72155000D01*
X143862698Y-72115226D01*
X144051056Y-72037205D01*
X144220574Y-71923937D01*
X144364737Y-71779774D01*
X144478005Y-71610256D01*
X144556026Y-71421898D01*
X144595800Y-71221939D01*
X144595800Y-71018061D01*
X144556026Y-70818102D01*
X144478005Y-70629744D01*
X144364737Y-70460226D01*
X144220574Y-70316063D01*
X144051056Y-70202795D01*
X143862698Y-70124774D01*
X143662739Y-70085000D01*
X143458861Y-70085000D01*
X143258902Y-70124774D01*
X143070544Y-70202795D01*
X142901026Y-70316063D01*
X142756863Y-70460226D01*
X142643595Y-70629744D01*
X142565574Y-70818102D01*
X142525800Y-71018061D01*
X142525800Y-71080198D01*
X139444000Y-74161999D01*
X139444000Y-71569711D01*
X139487937Y-71525774D01*
X139601205Y-71356256D01*
X139679226Y-71167898D01*
X139719000Y-70967939D01*
X139719000Y-70764061D01*
X139679226Y-70564102D01*
X139601205Y-70375744D01*
X139487937Y-70206226D01*
X139444000Y-70162289D01*
X139444000Y-69402801D01*
X140101867Y-68744935D01*
X140087400Y-68817664D01*
X140087400Y-69021542D01*
X140127174Y-69221501D01*
X140205195Y-69409859D01*
X140318463Y-69579377D01*
X140462626Y-69723540D01*
X140632144Y-69836808D01*
X140820502Y-69914829D01*
X140969732Y-69944512D01*
X140990774Y-70050298D01*
X141068795Y-70238656D01*
X141182063Y-70408174D01*
X141326226Y-70552337D01*
X141495744Y-70665605D01*
X141684102Y-70743626D01*
X141884061Y-70783400D01*
X142087939Y-70783400D01*
X142287898Y-70743626D01*
X142476256Y-70665605D01*
X142645774Y-70552337D01*
X142789937Y-70408174D01*
X142903205Y-70238656D01*
X142981226Y-70050298D01*
X143021000Y-69850339D01*
X143021000Y-69792794D01*
X143024391Y-69790011D01*
X143111984Y-69683279D01*
X143119364Y-69674287D01*
X143169965Y-69579620D01*
X152028012Y-69579620D01*
X152554401Y-70106009D01*
X152554400Y-70683162D01*
X152550724Y-70720485D01*
X152554400Y-70757807D01*
X152554400Y-70757817D01*
X152565397Y-70869470D01*
X152595267Y-70967939D01*
X152608854Y-71012731D01*
X152679426Y-71144761D01*
X152719271Y-71193311D01*
X152774399Y-71260486D01*
X152803403Y-71284289D01*
X153962916Y-72443803D01*
X153986714Y-72472801D01*
X154102439Y-72567774D01*
X154234468Y-72638346D01*
X154377676Y-72681787D01*
X154432626Y-72736737D01*
X154602144Y-72850005D01*
X154790502Y-72928026D01*
X154990461Y-72967800D01*
X155194339Y-72967800D01*
X155394298Y-72928026D01*
X155582656Y-72850005D01*
X155752174Y-72736737D01*
X155896337Y-72592574D01*
X156009605Y-72423056D01*
X156087626Y-72234698D01*
X156127400Y-72034739D01*
X156127400Y-71830861D01*
X156087626Y-71630902D01*
X156009605Y-71442544D01*
X156003093Y-71432799D01*
X156009605Y-71423053D01*
X156046034Y-71335106D01*
X156054795Y-71356256D01*
X156168063Y-71525774D01*
X156312226Y-71669937D01*
X156481744Y-71783205D01*
X156670102Y-71861226D01*
X156870061Y-71901000D01*
X157073939Y-71901000D01*
X157273898Y-71861226D01*
X157462256Y-71783205D01*
X157631774Y-71669937D01*
X157775937Y-71525774D01*
X157889205Y-71356256D01*
X157967226Y-71167898D01*
X158007000Y-70967939D01*
X158007000Y-70764061D01*
X157967226Y-70564102D01*
X157889205Y-70375744D01*
X157775937Y-70206226D01*
X157732000Y-70162289D01*
X157732000Y-67855322D01*
X157735676Y-67817999D01*
X157732000Y-67780676D01*
X157732000Y-67780667D01*
X157721030Y-67669278D01*
X173750000Y-67669278D01*
X173750000Y-67966722D01*
X173808029Y-68258451D01*
X173921856Y-68533253D01*
X174087107Y-68780569D01*
X174297431Y-68990893D01*
X174544747Y-69156144D01*
X174819549Y-69269971D01*
X175111278Y-69328000D01*
X175408722Y-69328000D01*
X175700451Y-69269971D01*
X175975253Y-69156144D01*
X176222569Y-68990893D01*
X176432893Y-68780569D01*
X176598144Y-68533253D01*
X176711971Y-68258451D01*
X176770000Y-67966722D01*
X176770000Y-67669278D01*
X176748080Y-67559076D01*
X177711100Y-67559076D01*
X177711100Y-68076924D01*
X177812127Y-68584822D01*
X178010299Y-69063251D01*
X178298000Y-69493826D01*
X178664174Y-69860000D01*
X179094749Y-70147701D01*
X179573178Y-70345873D01*
X180081076Y-70446900D01*
X180598924Y-70446900D01*
X181106822Y-70345873D01*
X181585251Y-70147701D01*
X182015826Y-69860000D01*
X182382000Y-69493826D01*
X182669701Y-69063251D01*
X182867873Y-68584822D01*
X182968900Y-68076924D01*
X182968900Y-67669278D01*
X183910000Y-67669278D01*
X183910000Y-67966722D01*
X183968029Y-68258451D01*
X184081856Y-68533253D01*
X184247107Y-68780569D01*
X184457431Y-68990893D01*
X184704747Y-69156144D01*
X184979549Y-69269971D01*
X185271278Y-69328000D01*
X185568722Y-69328000D01*
X185860451Y-69269971D01*
X186135253Y-69156144D01*
X186382569Y-68990893D01*
X186592893Y-68780569D01*
X186758144Y-68533253D01*
X186871971Y-68258451D01*
X186930000Y-67966722D01*
X186930000Y-67669278D01*
X186871971Y-67377549D01*
X186758144Y-67102747D01*
X186592893Y-66855431D01*
X186382569Y-66645107D01*
X186135253Y-66479856D01*
X185860451Y-66366029D01*
X185568722Y-66308000D01*
X185271278Y-66308000D01*
X184979549Y-66366029D01*
X184704747Y-66479856D01*
X184457431Y-66645107D01*
X184247107Y-66855431D01*
X184081856Y-67102747D01*
X183968029Y-67377549D01*
X183910000Y-67669278D01*
X182968900Y-67669278D01*
X182968900Y-67559076D01*
X182867873Y-67051178D01*
X182669701Y-66572749D01*
X182382000Y-66142174D01*
X182015826Y-65776000D01*
X181585251Y-65488299D01*
X181106822Y-65290127D01*
X180598924Y-65189100D01*
X180081076Y-65189100D01*
X179573178Y-65290127D01*
X179094749Y-65488299D01*
X178664174Y-65776000D01*
X178298000Y-66142174D01*
X178010299Y-66572749D01*
X177812127Y-67051178D01*
X177711100Y-67559076D01*
X176748080Y-67559076D01*
X176711971Y-67377549D01*
X176598144Y-67102747D01*
X176554882Y-67038000D01*
X176703345Y-67038000D01*
X177043373Y-66970364D01*
X177363673Y-66837692D01*
X177651935Y-66645081D01*
X177897081Y-66399935D01*
X178089692Y-66111673D01*
X178222364Y-65791373D01*
X178290000Y-65451345D01*
X178290000Y-65104655D01*
X178222364Y-64764627D01*
X178089692Y-64444327D01*
X177897081Y-64156065D01*
X177703547Y-63962531D01*
X181835074Y-63962531D01*
X181945921Y-64239714D01*
X182256840Y-64393089D01*
X182591705Y-64482860D01*
X182937650Y-64505576D01*
X183281380Y-64460366D01*
X183609685Y-64348966D01*
X183814079Y-64239714D01*
X183924926Y-63962531D01*
X182880000Y-62917605D01*
X181835074Y-63962531D01*
X177703547Y-63962531D01*
X177651935Y-63910919D01*
X177363673Y-63718308D01*
X177043373Y-63585636D01*
X176703345Y-63518000D01*
X176356655Y-63518000D01*
X176016627Y-63585636D01*
X175696327Y-63718308D01*
X175408065Y-63910919D01*
X175162919Y-64156065D01*
X174970308Y-64444327D01*
X174837636Y-64764627D01*
X174770000Y-65104655D01*
X174770000Y-65451345D01*
X174837636Y-65791373D01*
X174970308Y-66111673D01*
X175102638Y-66309719D01*
X174819549Y-66366029D01*
X174544747Y-66479856D01*
X174297431Y-66645107D01*
X174087107Y-66855431D01*
X173921856Y-67102747D01*
X173808029Y-67377549D01*
X173750000Y-67669278D01*
X157721030Y-67669278D01*
X157721003Y-67669014D01*
X157677546Y-67525753D01*
X157606974Y-67393724D01*
X157591069Y-67374344D01*
X157535799Y-67306996D01*
X157535795Y-67306992D01*
X157512001Y-67277999D01*
X157483009Y-67254206D01*
X156011803Y-65783002D01*
X155988001Y-65753999D01*
X155872276Y-65659026D01*
X155740247Y-65588454D01*
X155596986Y-65544997D01*
X155485333Y-65534000D01*
X155485322Y-65534000D01*
X155448000Y-65530324D01*
X155410678Y-65534000D01*
X154119711Y-65534000D01*
X154075774Y-65490063D01*
X153906256Y-65376795D01*
X153717898Y-65298774D01*
X153517939Y-65259000D01*
X153314061Y-65259000D01*
X153114102Y-65298774D01*
X152925744Y-65376795D01*
X152756226Y-65490063D01*
X152712289Y-65534000D01*
X145229711Y-65534000D01*
X145185774Y-65490063D01*
X145016256Y-65376795D01*
X144827898Y-65298774D01*
X144627939Y-65259000D01*
X144565803Y-65259000D01*
X142102452Y-62795650D01*
X181112424Y-62795650D01*
X181157634Y-63139380D01*
X181269034Y-63467685D01*
X181378286Y-63672079D01*
X181655469Y-63782926D01*
X182700395Y-62738000D01*
X183059605Y-62738000D01*
X184104531Y-63782926D01*
X184381714Y-63672079D01*
X184535089Y-63361160D01*
X184624860Y-63026295D01*
X184647576Y-62680350D01*
X184602366Y-62336620D01*
X184490966Y-62008315D01*
X184381714Y-61803921D01*
X184104531Y-61693074D01*
X183059605Y-62738000D01*
X182700395Y-62738000D01*
X181655469Y-61693074D01*
X181378286Y-61803921D01*
X181224911Y-62114840D01*
X181135140Y-62449705D01*
X181112424Y-62795650D01*
X142102452Y-62795650D01*
X142055800Y-62748999D01*
X142055800Y-62686861D01*
X142016026Y-62486902D01*
X141938005Y-62298544D01*
X141824737Y-62129026D01*
X141680574Y-61984863D01*
X141511056Y-61871595D01*
X141322698Y-61793574D01*
X141122739Y-61753800D01*
X140918861Y-61753800D01*
X140718902Y-61793574D01*
X140530544Y-61871595D01*
X140361026Y-61984863D01*
X140216863Y-62129026D01*
X140103595Y-62298544D01*
X140025574Y-62486902D01*
X139985800Y-62686861D01*
X139985800Y-62890739D01*
X140025574Y-63090698D01*
X140103595Y-63279056D01*
X140216863Y-63448574D01*
X140361026Y-63592737D01*
X140530544Y-63706005D01*
X140718902Y-63784026D01*
X140918861Y-63823800D01*
X140980999Y-63823800D01*
X142691198Y-65534000D01*
X141515325Y-65534000D01*
X141478000Y-65530324D01*
X141440675Y-65534000D01*
X141440667Y-65534000D01*
X141329014Y-65544997D01*
X141185753Y-65588454D01*
X141053724Y-65659026D01*
X140937999Y-65753999D01*
X140914202Y-65782996D01*
X138172998Y-68524201D01*
X138144000Y-68547999D01*
X138120202Y-68576997D01*
X138120201Y-68576998D01*
X138049026Y-68663724D01*
X137978454Y-68795754D01*
X137934998Y-68939015D01*
X137920324Y-69088000D01*
X137924001Y-69125332D01*
X137924000Y-70162289D01*
X137880063Y-70206226D01*
X137766795Y-70375744D01*
X137688774Y-70564102D01*
X137649000Y-70764061D01*
X137649000Y-70967939D01*
X137688774Y-71167898D01*
X137766795Y-71356256D01*
X137880063Y-71525774D01*
X137924000Y-71569711D01*
X137924000Y-74606530D01*
X137922339Y-74606200D01*
X137718461Y-74606200D01*
X137518502Y-74645974D01*
X137330144Y-74723995D01*
X137160626Y-74837263D01*
X137016463Y-74981426D01*
X136903195Y-75150944D01*
X136825174Y-75339302D01*
X136795199Y-75489999D01*
X128397000Y-83888199D01*
X128397000Y-83682408D01*
X128343314Y-83412510D01*
X128238005Y-83158273D01*
X128085120Y-82929465D01*
X127890535Y-82734880D01*
X127661727Y-82581995D01*
X127584485Y-82550000D01*
X127661727Y-82518005D01*
X127890535Y-82365120D01*
X128085120Y-82170535D01*
X128238005Y-81941727D01*
X128343314Y-81687490D01*
X128397000Y-81417592D01*
X128397000Y-81142408D01*
X128343314Y-80872510D01*
X128279811Y-80719200D01*
X128836289Y-80719200D01*
X128880226Y-80763137D01*
X129049744Y-80876405D01*
X129238102Y-80954426D01*
X129438061Y-80994200D01*
X129641939Y-80994200D01*
X129841898Y-80954426D01*
X130030256Y-80876405D01*
X130199774Y-80763137D01*
X130343937Y-80618974D01*
X130457205Y-80449456D01*
X130535226Y-80261098D01*
X130575000Y-80061139D01*
X130575000Y-79857261D01*
X130535226Y-79657302D01*
X130457205Y-79468944D01*
X130343937Y-79299426D01*
X130199774Y-79155263D01*
X130169968Y-79135347D01*
X130281592Y-79135347D01*
X130481551Y-79095573D01*
X130669909Y-79017552D01*
X130839427Y-78904284D01*
X130983590Y-78760121D01*
X131096858Y-78590603D01*
X131174879Y-78402245D01*
X131214653Y-78202286D01*
X131214653Y-77998408D01*
X131174879Y-77798449D01*
X131096858Y-77610091D01*
X130983590Y-77440573D01*
X130839427Y-77296410D01*
X130669909Y-77183142D01*
X130664441Y-77180877D01*
X128085565Y-74602002D01*
X128062165Y-74573490D01*
X128085120Y-74550535D01*
X128238005Y-74321727D01*
X128343314Y-74067490D01*
X128397000Y-73797592D01*
X128397000Y-73522408D01*
X128343314Y-73252510D01*
X128238005Y-72998273D01*
X128085120Y-72769465D01*
X127890535Y-72574880D01*
X127661727Y-72421995D01*
X127584485Y-72390000D01*
X127661727Y-72358005D01*
X127890535Y-72205120D01*
X128085120Y-72010535D01*
X128238005Y-71781727D01*
X128343314Y-71527490D01*
X128397000Y-71257592D01*
X128397000Y-70982408D01*
X128343314Y-70712510D01*
X128238005Y-70458273D01*
X128085120Y-70229465D01*
X127890535Y-70034880D01*
X127661727Y-69881995D01*
X127590057Y-69852308D01*
X127603023Y-69847636D01*
X127718980Y-69785656D01*
X127785960Y-69545565D01*
X127000000Y-68759605D01*
X126214040Y-69545565D01*
X126281020Y-69785656D01*
X126416760Y-69849485D01*
X126338273Y-69881995D01*
X126109465Y-70034880D01*
X125914880Y-70229465D01*
X125761995Y-70458273D01*
X125656686Y-70712510D01*
X125603000Y-70982408D01*
X125603000Y-71257592D01*
X125656686Y-71527490D01*
X125761995Y-71781727D01*
X125914880Y-72010535D01*
X126109465Y-72205120D01*
X126338273Y-72358005D01*
X126415515Y-72390000D01*
X126338273Y-72421995D01*
X126109465Y-72574880D01*
X125914880Y-72769465D01*
X125761995Y-72998273D01*
X125656686Y-73252510D01*
X125603000Y-73522408D01*
X125603000Y-73797592D01*
X125656686Y-74067490D01*
X125761995Y-74321727D01*
X125782890Y-74352999D01*
X123687801Y-74352999D01*
X123286372Y-73951570D01*
X123317000Y-73797592D01*
X123317000Y-73522408D01*
X123263314Y-73252510D01*
X123158005Y-72998273D01*
X123005120Y-72769465D01*
X122810535Y-72574880D01*
X122581727Y-72421995D01*
X122504485Y-72390000D01*
X122581727Y-72358005D01*
X122810535Y-72205120D01*
X123005120Y-72010535D01*
X123158005Y-71781727D01*
X123263314Y-71527490D01*
X123317000Y-71257592D01*
X123317000Y-70982408D01*
X123263314Y-70712510D01*
X123158005Y-70458273D01*
X123005120Y-70229465D01*
X122810535Y-70034880D01*
X122581727Y-69881995D01*
X122327490Y-69776686D01*
X122057592Y-69723000D01*
X121782408Y-69723000D01*
X121512510Y-69776686D01*
X121258273Y-69881995D01*
X121029465Y-70034880D01*
X120834880Y-70229465D01*
X120681995Y-70458273D01*
X120576686Y-70712510D01*
X120523000Y-70982408D01*
X120523000Y-71257592D01*
X120553628Y-71411571D01*
X120322001Y-71643197D01*
X120292998Y-71667000D01*
X120237870Y-71734175D01*
X120198025Y-71782725D01*
X120156065Y-71861226D01*
X120127453Y-71914755D01*
X120083996Y-72058016D01*
X120072999Y-72169669D01*
X120072999Y-72169679D01*
X120069323Y-72207001D01*
X120072999Y-72244323D01*
X120073000Y-78400240D01*
X120070426Y-78387302D01*
X119992405Y-78198944D01*
X119879137Y-78029426D01*
X119734974Y-77885263D01*
X119565456Y-77771995D01*
X119377098Y-77693974D01*
X119177139Y-77654200D01*
X118973261Y-77654200D01*
X118773302Y-77693974D01*
X118584944Y-77771995D01*
X118415426Y-77885263D01*
X118271263Y-78029426D01*
X118157995Y-78198944D01*
X118079974Y-78387302D01*
X118040200Y-78587261D01*
X118040200Y-78791139D01*
X118079974Y-78991098D01*
X118112001Y-79068417D01*
X118112000Y-89771089D01*
X118068063Y-89815026D01*
X117954795Y-89984544D01*
X117876774Y-90172902D01*
X117837000Y-90372861D01*
X92100000Y-90372861D01*
X92100000Y-68652017D01*
X125598090Y-68652017D01*
X125639078Y-68924133D01*
X125732364Y-69183023D01*
X125794344Y-69298980D01*
X126034435Y-69365960D01*
X126820395Y-68580000D01*
X127179605Y-68580000D01*
X127965565Y-69365960D01*
X128205656Y-69298980D01*
X128322756Y-69049952D01*
X128389023Y-68782865D01*
X128401910Y-68507983D01*
X128360922Y-68235867D01*
X128267636Y-67976977D01*
X128205656Y-67861020D01*
X127965565Y-67794040D01*
X127179605Y-68580000D01*
X126820395Y-68580000D01*
X126034435Y-67794040D01*
X125794344Y-67861020D01*
X125677244Y-68110048D01*
X125610977Y-68377135D01*
X125598090Y-68652017D01*
X92100000Y-68652017D01*
X92100000Y-66323552D01*
X92370297Y-66435513D01*
X92679414Y-66497000D01*
X92994586Y-66497000D01*
X93303703Y-66435513D01*
X93594884Y-66314902D01*
X93856941Y-66139801D01*
X94079801Y-65916941D01*
X94107000Y-65876235D01*
X94134199Y-65916941D01*
X94357059Y-66139801D01*
X94619116Y-66314902D01*
X94910297Y-66435513D01*
X95219414Y-66497000D01*
X95534586Y-66497000D01*
X95843703Y-66435513D01*
X96134884Y-66314902D01*
X96396941Y-66139801D01*
X96619801Y-65916941D01*
X96647000Y-65876235D01*
X96674199Y-65916941D01*
X96897059Y-66139801D01*
X97159116Y-66314902D01*
X97450297Y-66435513D01*
X97759414Y-66497000D01*
X98074586Y-66497000D01*
X98383703Y-66435513D01*
X98674884Y-66314902D01*
X98936941Y-66139801D01*
X99159801Y-65916941D01*
X99187000Y-65876235D01*
X99214199Y-65916941D01*
X99437059Y-66139801D01*
X99699116Y-66314902D01*
X99990297Y-66435513D01*
X100299414Y-66497000D01*
X100614586Y-66497000D01*
X100923703Y-66435513D01*
X101214884Y-66314902D01*
X101476941Y-66139801D01*
X101699801Y-65916941D01*
X101727000Y-65876235D01*
X101754199Y-65916941D01*
X101977059Y-66139801D01*
X102239116Y-66314902D01*
X102530297Y-66435513D01*
X102839414Y-66497000D01*
X103154586Y-66497000D01*
X103463703Y-66435513D01*
X103754884Y-66314902D01*
X104016941Y-66139801D01*
X104239801Y-65916941D01*
X104267000Y-65876235D01*
X104294199Y-65916941D01*
X104517059Y-66139801D01*
X104779116Y-66314902D01*
X105070297Y-66435513D01*
X105379414Y-66497000D01*
X105694586Y-66497000D01*
X106003703Y-66435513D01*
X106294884Y-66314902D01*
X106556941Y-66139801D01*
X106779801Y-65916941D01*
X106807000Y-65876235D01*
X106834199Y-65916941D01*
X107057059Y-66139801D01*
X107319116Y-66314902D01*
X107610297Y-66435513D01*
X107919414Y-66497000D01*
X108234586Y-66497000D01*
X108543703Y-66435513D01*
X108834884Y-66314902D01*
X109096941Y-66139801D01*
X109319801Y-65916941D01*
X109347000Y-65876235D01*
X109374199Y-65916941D01*
X109597059Y-66139801D01*
X109859116Y-66314902D01*
X110150297Y-66435513D01*
X110459414Y-66497000D01*
X110774586Y-66497000D01*
X111083703Y-66435513D01*
X111374884Y-66314902D01*
X111636941Y-66139801D01*
X111859801Y-65916941D01*
X112034902Y-65654884D01*
X112155513Y-65363703D01*
X112217000Y-65054586D01*
X112217000Y-64739414D01*
X112155513Y-64430297D01*
X112034902Y-64139116D01*
X111859801Y-63877059D01*
X111636941Y-63654199D01*
X111374884Y-63479098D01*
X111093170Y-63362408D01*
X125603000Y-63362408D01*
X125603000Y-63637592D01*
X125656686Y-63907490D01*
X125761995Y-64161727D01*
X125914880Y-64390535D01*
X126109465Y-64585120D01*
X126338273Y-64738005D01*
X126415515Y-64770000D01*
X126338273Y-64801995D01*
X126109465Y-64954880D01*
X125914880Y-65149465D01*
X125761995Y-65378273D01*
X125656686Y-65632510D01*
X125603000Y-65902408D01*
X125603000Y-66177592D01*
X125656686Y-66447490D01*
X125761995Y-66701727D01*
X125914880Y-66930535D01*
X126109465Y-67125120D01*
X126338273Y-67278005D01*
X126409943Y-67307692D01*
X126396977Y-67312364D01*
X126281020Y-67374344D01*
X126214040Y-67614435D01*
X127000000Y-68400395D01*
X127785960Y-67614435D01*
X127718980Y-67374344D01*
X127583240Y-67310515D01*
X127661727Y-67278005D01*
X127890535Y-67125120D01*
X128085120Y-66930535D01*
X128172341Y-66800000D01*
X134938278Y-66800000D01*
X134975600Y-66803676D01*
X135012922Y-66800000D01*
X135012933Y-66800000D01*
X135124586Y-66789003D01*
X135267847Y-66745546D01*
X135399876Y-66674974D01*
X135515601Y-66580001D01*
X135539404Y-66550997D01*
X140576932Y-61513469D01*
X181835074Y-61513469D01*
X182880000Y-62558395D01*
X183924926Y-61513469D01*
X183814079Y-61236286D01*
X183503160Y-61082911D01*
X183168295Y-60993140D01*
X182822350Y-60970424D01*
X182478620Y-61015634D01*
X182150315Y-61127034D01*
X181945921Y-61236286D01*
X181835074Y-61513469D01*
X140576932Y-61513469D01*
X141263802Y-60826600D01*
X141325939Y-60826600D01*
X141525898Y-60786826D01*
X141714256Y-60708805D01*
X141883774Y-60595537D01*
X142027937Y-60451374D01*
X142141205Y-60281856D01*
X142219226Y-60093498D01*
X142259000Y-59893539D01*
X142259000Y-59689661D01*
X142219226Y-59489702D01*
X142141205Y-59301344D01*
X142027937Y-59131826D01*
X141883774Y-58987663D01*
X141714256Y-58874395D01*
X141525898Y-58796374D01*
X141325939Y-58756600D01*
X141122061Y-58756600D01*
X140922102Y-58796374D01*
X140733744Y-58874395D01*
X140564226Y-58987663D01*
X140420063Y-59131826D01*
X140306795Y-59301344D01*
X140228774Y-59489702D01*
X140189000Y-59689661D01*
X140189000Y-59751798D01*
X134660799Y-65280000D01*
X128172341Y-65280000D01*
X128085120Y-65149465D01*
X127890535Y-64954880D01*
X127661727Y-64801995D01*
X127584485Y-64770000D01*
X127661727Y-64738005D01*
X127890535Y-64585120D01*
X128085120Y-64390535D01*
X128238005Y-64161727D01*
X128343314Y-63907490D01*
X128397000Y-63637592D01*
X128397000Y-63362408D01*
X128343314Y-63092510D01*
X128238005Y-62838273D01*
X128085120Y-62609465D01*
X127890535Y-62414880D01*
X127661727Y-62261995D01*
X127407490Y-62156686D01*
X127137592Y-62103000D01*
X126862408Y-62103000D01*
X126592510Y-62156686D01*
X126338273Y-62261995D01*
X126109465Y-62414880D01*
X125914880Y-62609465D01*
X125761995Y-62838273D01*
X125656686Y-63092510D01*
X125603000Y-63362408D01*
X111093170Y-63362408D01*
X111083703Y-63358487D01*
X110774586Y-63297000D01*
X110459414Y-63297000D01*
X110150297Y-63358487D01*
X109859116Y-63479098D01*
X109597059Y-63654199D01*
X109374199Y-63877059D01*
X109347000Y-63917765D01*
X109319801Y-63877059D01*
X109096941Y-63654199D01*
X108834884Y-63479098D01*
X108543703Y-63358487D01*
X108234586Y-63297000D01*
X107919414Y-63297000D01*
X107610297Y-63358487D01*
X107319116Y-63479098D01*
X107057059Y-63654199D01*
X106834199Y-63877059D01*
X106807000Y-63917765D01*
X106779801Y-63877059D01*
X106556941Y-63654199D01*
X106294884Y-63479098D01*
X106003703Y-63358487D01*
X105694586Y-63297000D01*
X105379414Y-63297000D01*
X105070297Y-63358487D01*
X104779116Y-63479098D01*
X104517059Y-63654199D01*
X104294199Y-63877059D01*
X104267000Y-63917765D01*
X104239801Y-63877059D01*
X104016941Y-63654199D01*
X103754884Y-63479098D01*
X103463703Y-63358487D01*
X103154586Y-63297000D01*
X102839414Y-63297000D01*
X102530297Y-63358487D01*
X102239116Y-63479098D01*
X101977059Y-63654199D01*
X101754199Y-63877059D01*
X101727000Y-63917765D01*
X101699801Y-63877059D01*
X101476941Y-63654199D01*
X101214884Y-63479098D01*
X100923703Y-63358487D01*
X100614586Y-63297000D01*
X100299414Y-63297000D01*
X99990297Y-63358487D01*
X99699116Y-63479098D01*
X99437059Y-63654199D01*
X99214199Y-63877059D01*
X99187000Y-63917765D01*
X99159801Y-63877059D01*
X98936941Y-63654199D01*
X98674884Y-63479098D01*
X98383703Y-63358487D01*
X98074586Y-63297000D01*
X97759414Y-63297000D01*
X97450297Y-63358487D01*
X97159116Y-63479098D01*
X96897059Y-63654199D01*
X96674199Y-63877059D01*
X96647000Y-63917765D01*
X96619801Y-63877059D01*
X96396941Y-63654199D01*
X96134884Y-63479098D01*
X95843703Y-63358487D01*
X95534586Y-63297000D01*
X95219414Y-63297000D01*
X94910297Y-63358487D01*
X94619116Y-63479098D01*
X94357059Y-63654199D01*
X94134199Y-63877059D01*
X94107000Y-63917765D01*
X94079801Y-63877059D01*
X93856941Y-63654199D01*
X93594884Y-63479098D01*
X93303703Y-63358487D01*
X92994586Y-63297000D01*
X92679414Y-63297000D01*
X92370297Y-63358487D01*
X92100000Y-63470448D01*
X92100000Y-54000000D01*
X189840000Y-54000000D01*
X189840001Y-100940000D01*
G36*
X125656686Y-80872510D02*
G01*
X125603000Y-81142408D01*
X125603000Y-81417592D01*
X125656686Y-81687490D01*
X125761995Y-81941727D01*
X125914880Y-82170535D01*
X126109465Y-82365120D01*
X126338273Y-82518005D01*
X126415515Y-82550000D01*
X126338273Y-82581995D01*
X126109465Y-82734880D01*
X125914880Y-82929465D01*
X125761995Y-83158273D01*
X125656686Y-83412510D01*
X125603000Y-83682408D01*
X125603000Y-83957592D01*
X125656686Y-84227490D01*
X125761995Y-84481727D01*
X125914880Y-84710535D01*
X126109465Y-84905120D01*
X126338273Y-85058005D01*
X126415515Y-85090000D01*
X126338273Y-85121995D01*
X126109465Y-85274880D01*
X125914880Y-85469465D01*
X125761995Y-85698273D01*
X125656686Y-85952510D01*
X125603000Y-86222408D01*
X125603000Y-86497592D01*
X125656686Y-86767490D01*
X125761995Y-87021727D01*
X125914880Y-87250535D01*
X126109465Y-87445120D01*
X126338273Y-87598005D01*
X126415515Y-87630000D01*
X126338273Y-87661995D01*
X126109465Y-87814880D01*
X125914880Y-88009465D01*
X125778945Y-88212905D01*
X121592999Y-84026960D01*
X121592999Y-82638224D01*
X121717135Y-82669023D01*
X121992017Y-82681910D01*
X122264133Y-82640922D01*
X122523023Y-82547636D01*
X122638980Y-82485656D01*
X122705960Y-82245565D01*
X121920000Y-81459605D01*
X121905858Y-81473748D01*
X121726253Y-81294143D01*
X121740395Y-81280000D01*
X121726253Y-81265858D01*
X121905858Y-81086253D01*
X121920000Y-81100395D01*
X121934143Y-81086253D01*
X122113748Y-81265858D01*
X122099605Y-81280000D01*
X122885565Y-82065960D01*
X123125656Y-81998980D01*
X123242756Y-81749952D01*
X123309023Y-81482865D01*
X123321910Y-81207983D01*
X123280922Y-80935867D01*
X123202850Y-80719200D01*
X125720189Y-80719200D01*
X125656686Y-80872510D01*
G37*
X125656686Y-80872510D02*
X125603000Y-81142408D01*
X125603000Y-81417592D01*
X125656686Y-81687490D01*
X125761995Y-81941727D01*
X125914880Y-82170535D01*
X126109465Y-82365120D01*
X126338273Y-82518005D01*
X126415515Y-82550000D01*
X126338273Y-82581995D01*
X126109465Y-82734880D01*
X125914880Y-82929465D01*
X125761995Y-83158273D01*
X125656686Y-83412510D01*
X125603000Y-83682408D01*
X125603000Y-83957592D01*
X125656686Y-84227490D01*
X125761995Y-84481727D01*
X125914880Y-84710535D01*
X126109465Y-84905120D01*
X126338273Y-85058005D01*
X126415515Y-85090000D01*
X126338273Y-85121995D01*
X126109465Y-85274880D01*
X125914880Y-85469465D01*
X125761995Y-85698273D01*
X125656686Y-85952510D01*
X125603000Y-86222408D01*
X125603000Y-86497592D01*
X125656686Y-86767490D01*
X125761995Y-87021727D01*
X125914880Y-87250535D01*
X126109465Y-87445120D01*
X126338273Y-87598005D01*
X126415515Y-87630000D01*
X126338273Y-87661995D01*
X126109465Y-87814880D01*
X125914880Y-88009465D01*
X125778945Y-88212905D01*
X121592999Y-84026960D01*
X121592999Y-82638224D01*
X121717135Y-82669023D01*
X121992017Y-82681910D01*
X122264133Y-82640922D01*
X122523023Y-82547636D01*
X122638980Y-82485656D01*
X122705960Y-82245565D01*
X121920000Y-81459605D01*
X121905858Y-81473748D01*
X121726253Y-81294143D01*
X121740395Y-81280000D01*
X121726253Y-81265858D01*
X121905858Y-81086253D01*
X121920000Y-81100395D01*
X121934143Y-81086253D01*
X122113748Y-81265858D01*
X122099605Y-81280000D01*
X122885565Y-82065960D01*
X123125656Y-81998980D01*
X123242756Y-81749952D01*
X123309023Y-81482865D01*
X123321910Y-81207983D01*
X123280922Y-80935867D01*
X123202850Y-80719200D01*
X125720189Y-80719200D01*
X125656686Y-80872510D01*
G04 #@! TD*
M02*
